<svg width="348" height="69" viewBox="0 0 348 69" fill="none" xmlns="http://www.w3.org/2000/svg">
<circle cx="35" cy="24" r="21.5" fill="#ECE711" stroke="white"/>
<path d="M45.7688 18.9397L43.0376 16.8352C42.852 16.716 42.6502 16.6242 42.4384 16.5626C42.2275 16.4943 42.008 16.4564 41.7864 16.4499H33.925L34.8461 22.1999H41.7864C41.975 22.1999 42.2108 22.1574 42.4373 22.0872C42.6639 22.0171 42.8824 21.9205 43.0364 21.8158L45.7677 19.709C45.923 19.6044 46 19.4652 46 19.3249C46 19.1846 45.9229 19.0455 45.7688 18.9397ZM32.775 14.1499H31.625C31.4725 14.1499 31.3262 14.2105 31.2184 14.3183C31.1106 14.4261 31.05 14.5724 31.05 14.7249V18.7499H27.2136C27.0227 18.7499 26.7881 18.7925 26.5615 18.8638C26.3338 18.9328 26.1165 19.0282 25.9624 19.1352L23.2312 21.2397C23.0759 21.3443 23 21.4846 23 21.6249C23 21.7641 23.0759 21.9032 23.2312 22.0102L25.9624 24.117C26.1165 24.2216 26.3338 24.3182 26.5615 24.3872C26.7881 24.4574 27.0227 24.4999 27.2136 24.4999H31.05V34.2749C31.05 34.4274 31.1106 34.5737 31.2184 34.6815C31.3262 34.7893 31.4725 34.8499 31.625 34.8499H32.775C32.9275 34.8499 33.0738 34.7893 33.1816 34.6815C33.2894 34.5737 33.35 34.4274 33.35 34.2749V14.7249C33.35 14.5724 33.2894 14.4261 33.1816 14.3183C33.0738 14.2105 32.9275 14.1499 32.775 14.1499Z" fill="white"/>
<path d="M14.2034 60H12.9378L15.2421 53.4545H16.7059L19.0135 60H17.7478L15.9996 54.7969H15.9485L14.2034 60ZM14.245 57.4336H17.6967V58.386H14.245V57.4336ZM22.0936 60H19.8756V53.4545H22.1384C22.7882 53.4545 23.3465 53.5856 23.8131 53.8477C24.2818 54.1076 24.6419 54.4815 24.8933 54.9695C25.1448 55.4574 25.2705 56.0412 25.2705 56.7209C25.2705 57.4027 25.1437 57.9886 24.8901 58.4787C24.6387 58.9687 24.2754 59.3448 23.8003 59.6069C23.3273 59.869 22.7584 60 22.0936 60ZM21.0613 58.9741H22.0361C22.4921 58.9741 22.8724 58.891 23.1771 58.7248C23.4818 58.5565 23.7108 58.3061 23.8642 57.9737C24.0176 57.6392 24.0943 57.2216 24.0943 56.7209C24.0943 56.2202 24.0176 55.8047 23.8642 55.4744C23.7108 55.142 23.4839 54.8938 23.1835 54.7298C22.8852 54.5636 22.5144 54.4805 22.0712 54.4805H21.0613V58.9741ZM28.6151 60H26.3971V53.4545H28.6598C29.3097 53.4545 29.8679 53.5856 30.3346 53.8477C30.8033 54.1076 31.1634 54.4815 31.4148 54.9695C31.6662 55.4574 31.7919 56.0412 31.7919 56.7209C31.7919 57.4027 31.6652 57.9886 31.4116 58.4787C31.1602 58.9687 30.7969 59.3448 30.3218 59.6069C29.8488 59.869 29.2799 60 28.6151 60ZM27.5828 58.9741H28.5576C29.0135 58.9741 29.3939 58.891 29.6986 58.7248C30.0032 58.5565 30.2323 58.3061 30.3857 57.9737C30.5391 57.6392 30.6158 57.2216 30.6158 56.7209C30.6158 56.2202 30.5391 55.8047 30.3857 55.4744C30.2323 55.142 30.0054 54.8938 29.7049 54.7298C29.4066 54.5636 29.0359 54.4805 28.5927 54.4805H27.5828V58.9741ZM32.9185 60V53.4545H35.3731C35.8759 53.4545 36.2978 53.5419 36.6387 53.7166C36.9818 53.8913 37.2406 54.1364 37.4154 54.4517C37.5922 54.7649 37.6806 55.1303 37.6806 55.5479C37.6806 55.9677 37.5911 56.332 37.4122 56.641C37.2353 56.9478 36.9743 57.1854 36.6291 57.3537C36.284 57.5199 35.86 57.603 35.3571 57.603H33.6089V56.6186H35.1973C35.4913 56.6186 35.7321 56.5781 35.9196 56.4972C36.1071 56.4141 36.2456 56.2937 36.3351 56.136C36.4267 55.9762 36.4725 55.7802 36.4725 55.5479C36.4725 55.3157 36.4267 55.1175 36.3351 54.9535C36.2435 54.7873 36.1039 54.6616 35.9164 54.5763C35.7289 54.489 35.4871 54.4453 35.1909 54.4453H34.1043V60H32.9185ZM36.2999 57.0341L37.9203 60H36.5972L35.0055 57.0341H36.2999ZM38.7721 60V53.4545H43.0292V54.4485H39.9578V56.2255H42.8086V57.2195H39.9578V59.006H43.0547V60H38.7721ZM47.796 55.2539C47.7662 54.9748 47.6405 54.7575 47.4189 54.6019C47.1994 54.4464 46.9139 54.3686 46.5624 54.3686C46.3152 54.3686 46.1032 54.4059 45.9264 54.4805C45.7495 54.555 45.6142 54.6562 45.5205 54.7841C45.4267 54.9119 45.3788 55.0579 45.3766 55.2219C45.3766 55.3583 45.4075 55.4766 45.4693 55.5767C45.5332 55.6768 45.6195 55.7621 45.7282 55.8324C45.8369 55.9006 45.9573 55.9581 46.0894 56.005C46.2215 56.0518 46.3546 56.0913 46.4889 56.1232L47.1025 56.2766C47.3497 56.3342 47.5872 56.4119 47.8152 56.5099C48.0453 56.608 48.2509 56.7315 48.432 56.8807C48.6153 57.0298 48.7602 57.2099 48.8667 57.4208C48.9732 57.6317 49.0265 57.8789 49.0265 58.1623C49.0265 58.5458 48.9285 58.8835 48.7325 59.1754C48.5364 59.4652 48.2531 59.6921 47.8823 59.8562C47.5137 60.0181 47.0673 60.0991 46.5432 60.0991C46.034 60.0991 45.5918 60.0202 45.2168 59.8626C44.844 59.7049 44.5521 59.4748 44.3411 59.1722C44.1323 58.8697 44.0194 58.5011 44.0024 58.0664H45.1689C45.1859 58.2944 45.2563 58.484 45.3798 58.6353C45.5034 58.7866 45.6643 58.8995 45.8624 58.9741C46.0627 59.0487 46.2864 59.0859 46.5336 59.0859C46.7914 59.0859 47.0173 59.0476 47.2112 58.9709C47.4072 58.892 47.5606 58.7834 47.6714 58.6449C47.7822 58.5043 47.8386 58.3402 47.8408 58.1527C47.8386 57.9822 47.7886 57.8416 47.6906 57.7308C47.5926 57.6179 47.4551 57.5241 47.2783 57.4496C47.1036 57.3729 46.899 57.3047 46.6646 57.245L45.92 57.0533C45.3809 56.9148 44.9548 56.7049 44.6416 56.4237C44.3305 56.1403 44.1749 55.7642 44.1749 55.2955C44.1749 54.9098 44.2793 54.5721 44.4881 54.2823C44.6991 53.9925 44.9857 53.7678 45.3479 53.608C45.7101 53.446 46.1203 53.3651 46.5783 53.3651C47.0428 53.3651 47.4498 53.446 47.7992 53.608C48.1508 53.7678 48.4267 53.9904 48.627 54.2759C48.8273 54.5593 48.9306 54.8853 48.937 55.2539H47.796ZM53.6408 55.2539C53.6109 54.9748 53.4852 54.7575 53.2636 54.6019C53.0442 54.4464 52.7587 54.3686 52.4071 54.3686C52.1599 54.3686 51.9479 54.4059 51.7711 54.4805C51.5942 54.555 51.4589 54.6562 51.3652 54.7841C51.2714 54.9119 51.2235 55.0579 51.2214 55.2219C51.2214 55.3583 51.2523 55.4766 51.3141 55.5767C51.378 55.6768 51.4643 55.7621 51.5729 55.8324C51.6816 55.9006 51.802 55.9581 51.9341 56.005C52.0662 56.0518 52.1994 56.0913 52.3336 56.1232L52.9472 56.2766C53.1944 56.3342 53.432 56.4119 53.6599 56.5099C53.89 56.608 54.0957 56.7315 54.2768 56.8807C54.46 57.0298 54.6049 57.2099 54.7114 57.4208C54.818 57.6317 54.8712 57.8789 54.8712 58.1623C54.8712 58.5458 54.7732 58.8835 54.5772 59.1754C54.3812 59.4652 54.0978 59.6921 53.7271 59.8562C53.3584 60.0181 52.9121 60.0991 52.3879 60.0991C51.8787 60.0991 51.4366 60.0202 51.0616 59.8626C50.6887 59.7049 50.3968 59.4748 50.1859 59.1722C49.9771 58.8697 49.8641 58.5011 49.8471 58.0664H51.0136C51.0307 58.2944 51.101 58.484 51.2246 58.6353C51.3481 58.7866 51.509 58.8995 51.7072 58.9741C51.9074 59.0487 52.1312 59.0859 52.3783 59.0859C52.6361 59.0859 52.862 59.0476 53.0559 58.9709C53.2519 58.892 53.4053 58.7834 53.5161 58.6449C53.6269 58.5043 53.6834 58.3402 53.6855 58.1527C53.6834 57.9822 53.6333 57.8416 53.5353 57.7308C53.4373 57.6179 53.2998 57.5241 53.123 57.4496C52.9483 57.3729 52.7437 57.3047 52.5094 57.245L51.7647 57.0533C51.2256 56.9148 50.7995 56.7049 50.4863 56.4237C50.1752 56.1403 50.0197 55.7642 50.0197 55.2955C50.0197 54.9098 50.1241 54.5721 50.3329 54.2823C50.5438 53.9925 50.8304 53.7678 51.1926 53.608C51.5548 53.446 51.965 53.3651 52.4231 53.3651C52.8876 53.3651 53.2945 53.446 53.644 53.608C53.9955 53.7678 54.2714 53.9904 54.4717 54.2759C54.672 54.5593 54.7753 54.8853 54.7817 55.2539H53.6408Z" fill="black"/>
<path d="M110.389 60V53.4545H112.844C113.347 53.4545 113.769 53.5483 114.109 53.7358C114.452 53.9233 114.711 54.1811 114.886 54.5092C115.063 54.8352 115.151 55.206 115.151 55.6214C115.151 56.0412 115.063 56.4141 114.886 56.7401C114.709 57.0661 114.448 57.3228 114.103 57.5103C113.758 57.6957 113.333 57.7884 112.828 57.7884H111.201V56.8136H112.668C112.962 56.8136 113.203 56.7624 113.39 56.6602C113.578 56.5579 113.716 56.4173 113.806 56.2383C113.897 56.0593 113.943 55.8537 113.943 55.6214C113.943 55.3892 113.897 55.1847 113.806 55.0078C113.716 54.831 113.577 54.6935 113.387 54.5955C113.2 54.4954 112.958 54.4453 112.662 54.4453H111.575V60H110.389ZM116.292 60H115.027L117.331 53.4545H118.795L121.102 60H119.837L118.088 54.7969H118.037L116.292 60ZM116.334 57.4336H119.786V58.386H116.334V57.4336ZM127.259 55.663H126.064C126.03 55.467 125.967 55.2933 125.876 55.142C125.784 54.9886 125.67 54.8587 125.534 54.7521C125.397 54.6456 125.242 54.5657 125.067 54.5124C124.894 54.457 124.708 54.4293 124.508 54.4293C124.152 54.4293 123.837 54.5188 123.562 54.6978C123.287 54.8746 123.072 55.1346 122.916 55.4776C122.761 55.8185 122.683 56.2351 122.683 56.7273C122.683 57.228 122.761 57.6499 122.916 57.9929C123.074 58.3338 123.289 58.5916 123.562 58.7663C123.837 58.9389 124.151 59.0252 124.504 59.0252C124.701 59.0252 124.884 58.9996 125.054 58.9485C125.227 58.8952 125.381 58.8175 125.518 58.7152C125.656 58.6129 125.772 58.4872 125.866 58.3381C125.962 58.1889 126.028 58.0185 126.064 57.8267L127.259 57.8331C127.215 58.1442 127.118 58.4361 126.969 58.7088C126.822 58.9815 126.629 59.2223 126.39 59.4311C126.152 59.6378 125.872 59.7997 125.553 59.9169C125.233 60.032 124.878 60.0895 124.489 60.0895C123.913 60.0895 123.4 59.9563 122.948 59.69C122.496 59.4237 122.14 59.0391 121.881 58.5362C121.621 58.0334 121.491 57.4304 121.491 56.7273C121.491 56.022 121.622 55.419 121.884 54.9183C122.146 54.4155 122.503 54.0309 122.954 53.7646C123.406 53.4982 123.917 53.3651 124.489 53.3651C124.853 53.3651 125.192 53.4162 125.505 53.5185C125.818 53.6207 126.097 53.771 126.342 53.9691C126.587 54.1651 126.789 54.4059 126.946 54.6914C127.106 54.9748 127.21 55.2987 127.259 55.663ZM128.345 60V53.4545H129.531V56.462H129.611L132.165 53.4545H133.612L131.081 56.3917L133.635 60H132.209L130.257 57.1939L129.531 58.0504V60H128.345ZM135.277 60H134.011L136.315 53.4545H137.779L140.087 60H138.821L137.073 54.7969H137.022L135.277 60ZM135.318 57.4336H138.77V58.386H135.318V57.4336ZM145.026 55.5447C144.973 55.3722 144.899 55.2177 144.806 55.0813C144.714 54.9428 144.603 54.8246 144.473 54.7266C144.345 54.6286 144.198 54.555 144.032 54.506C143.866 54.4549 143.685 54.4293 143.489 54.4293C143.137 54.4293 142.824 54.5178 142.549 54.6946C142.274 54.8714 142.058 55.1314 141.9 55.4744C141.745 55.8153 141.667 56.2308 141.667 56.7209C141.667 57.2152 141.745 57.6339 141.9 57.9769C142.056 58.32 142.272 58.581 142.549 58.7599C142.826 58.9368 143.148 59.0252 143.514 59.0252C143.847 59.0252 144.134 58.9613 144.377 58.8335C144.622 58.7056 144.811 58.5245 144.943 58.2901C145.075 58.0536 145.141 57.7766 145.141 57.4592L145.41 57.5007H143.633V56.5739H146.289V57.3601C146.289 57.9205 146.169 58.4052 145.931 58.8143C145.692 59.2234 145.364 59.5387 144.946 59.7603C144.529 59.9798 144.049 60.0895 143.508 60.0895C142.905 60.0895 142.376 59.9542 141.92 59.6836C141.466 59.4109 141.111 59.0241 140.855 58.5234C140.602 58.0206 140.475 57.424 140.475 56.7337C140.475 56.2053 140.55 55.7333 140.699 55.3178C140.85 54.9023 141.061 54.5497 141.332 54.2599C141.602 53.968 141.92 53.7464 142.284 53.5952C142.648 53.4418 143.045 53.3651 143.473 53.3651C143.835 53.3651 144.173 53.4183 144.486 53.5249C144.799 53.6293 145.077 53.7784 145.32 53.9723C145.565 54.1662 145.767 54.3963 145.924 54.6626C146.082 54.929 146.185 55.223 146.234 55.5447H145.026ZM147.435 60V53.4545H151.692V54.4485H148.621V56.2255H151.472V57.2195H148.621V59.006H151.718V60H147.435Z" fill="black"/>
<path d="M203.011 55.2539C202.981 54.9748 202.855 54.7575 202.634 54.6019C202.414 54.4464 202.129 54.3686 201.777 54.3686C201.53 54.3686 201.318 54.4059 201.141 54.4805C200.964 54.555 200.829 54.6562 200.735 54.7841C200.642 54.9119 200.594 55.0579 200.591 55.2219C200.591 55.3583 200.622 55.4766 200.684 55.5767C200.748 55.6768 200.834 55.7621 200.943 55.8324C201.052 55.9006 201.172 55.9581 201.304 56.005C201.436 56.0518 201.569 56.0913 201.704 56.1232L202.317 56.2766C202.564 56.3342 202.802 56.4119 203.03 56.5099C203.26 56.608 203.466 56.7315 203.647 56.8807C203.83 57.0298 203.975 57.2099 204.082 57.4208C204.188 57.6317 204.241 57.8789 204.241 58.1623C204.241 58.5458 204.143 58.8835 203.947 59.1754C203.751 59.4652 203.468 59.6921 203.097 59.8562C202.729 60.0181 202.282 60.0991 201.758 60.0991C201.249 60.0991 200.807 60.0202 200.432 59.8626C200.059 59.7049 199.767 59.4748 199.556 59.1722C199.347 58.8697 199.234 58.5011 199.217 58.0664H200.384C200.401 58.2944 200.471 58.484 200.595 58.6353C200.718 58.7866 200.879 58.8995 201.077 58.9741C201.278 59.0487 201.501 59.0859 201.748 59.0859C202.006 59.0859 202.232 59.0476 202.426 58.9709C202.622 58.892 202.775 58.7834 202.886 58.6449C202.997 58.5043 203.053 58.3402 203.056 58.1527C203.053 57.9822 203.003 57.8416 202.905 57.7308C202.807 57.6179 202.67 57.5241 202.493 57.4496C202.318 57.3729 202.114 57.3047 201.879 57.245L201.135 57.0533C200.596 56.9148 200.17 56.7049 199.856 56.4237C199.545 56.1403 199.39 55.7642 199.39 55.2955C199.39 54.9098 199.494 54.5721 199.703 54.2823C199.914 53.9925 200.201 53.7678 200.563 53.608C200.925 53.446 201.335 53.3651 201.793 53.3651C202.258 53.3651 202.665 53.446 203.014 53.608C203.366 53.7678 203.642 53.9904 203.842 54.2759C204.042 54.5593 204.145 54.8853 204.152 55.2539H203.011ZM210.901 55.663H209.706C209.672 55.467 209.609 55.2933 209.517 55.142C209.426 54.9886 209.312 54.8587 209.175 54.7521C209.039 54.6456 208.883 54.5657 208.709 54.5124C208.536 54.457 208.35 54.4293 208.149 54.4293C207.793 54.4293 207.478 54.5188 207.203 54.6978C206.928 54.8746 206.713 55.1346 206.558 55.4776C206.402 55.8185 206.324 56.2351 206.324 56.7273C206.324 57.228 206.402 57.6499 206.558 57.9929C206.715 58.3338 206.931 58.5916 207.203 58.7663C207.478 58.9389 207.792 59.0252 208.146 59.0252C208.342 59.0252 208.525 58.9996 208.696 58.9485C208.868 58.8952 209.023 58.8175 209.159 58.7152C209.298 58.6129 209.414 58.4872 209.508 58.3381C209.603 58.1889 209.67 58.0185 209.706 57.8267L210.901 57.8331C210.856 58.1442 210.759 58.4361 210.61 58.7088C210.463 58.9815 210.27 59.2223 210.032 59.4311C209.793 59.6378 209.514 59.7997 209.194 59.9169C208.875 60.032 208.52 60.0895 208.13 60.0895C207.555 60.0895 207.041 59.9563 206.59 59.69C206.138 59.4237 205.782 59.0391 205.522 58.5362C205.262 58.0334 205.132 57.4304 205.132 56.7273C205.132 56.022 205.263 55.419 205.525 54.9183C205.787 54.4155 206.144 54.0309 206.596 53.7646C207.048 53.4982 207.559 53.3651 208.13 53.3651C208.494 53.3651 208.833 53.4162 209.146 53.5185C209.46 53.6207 209.739 53.771 209.984 53.9691C210.229 54.1651 210.43 54.4059 210.588 54.6914C210.748 54.9748 210.852 55.2987 210.901 55.663ZM211.987 60V53.4545H213.173V56.2255H216.206V53.4545H217.395V60H216.206V57.2195H213.173V60H211.987ZM218.684 60V53.4545H222.941V54.4485H219.87V56.2255H222.721V57.2195H219.87V59.006H222.967V60H218.684ZM226.369 60H224.151V53.4545H226.414C227.064 53.4545 227.622 53.5856 228.088 53.8477C228.557 54.1076 228.917 54.4815 229.169 54.9695C229.42 55.4574 229.546 56.0412 229.546 56.7209C229.546 57.4027 229.419 57.9886 229.166 58.4787C228.914 58.9687 228.551 59.3448 228.076 59.6069C227.603 59.869 227.034 60 226.369 60ZM225.337 58.9741H226.311C226.767 58.9741 227.148 58.891 227.452 58.7248C227.757 58.5565 227.986 58.3061 228.14 57.9737C228.293 57.6392 228.37 57.2216 228.37 56.7209C228.37 56.2202 228.293 55.8047 228.14 55.4744C227.986 55.142 227.759 54.8938 227.459 54.7298C227.161 54.5636 226.79 54.4805 226.347 54.4805H225.337V58.9741ZM234.799 53.4545H235.984V57.7308C235.984 58.1996 235.873 58.6119 235.652 58.9677C235.432 59.3235 235.123 59.6016 234.725 59.8018C234.327 60 233.861 60.0991 233.328 60.0991C232.794 60.0991 232.327 60 231.928 59.8018C231.53 59.6016 231.221 59.3235 231.002 58.9677C230.782 58.6119 230.672 58.1996 230.672 57.7308V53.4545H231.858V57.6317C231.858 57.9045 231.918 58.1474 232.037 58.3604C232.159 58.5735 232.329 58.7408 232.549 58.8622C232.768 58.9815 233.028 59.0412 233.328 59.0412C233.629 59.0412 233.889 58.9815 234.108 58.8622C234.33 58.7408 234.5 58.5735 234.62 58.3604C234.739 58.1474 234.799 57.9045 234.799 57.6317V53.4545ZM237.273 60V53.4545H238.459V59.006H241.342V60H237.273ZM242.371 60V53.4545H246.628V54.4485H243.556V56.2255H246.407V57.2195H243.556V59.006H246.653V60H242.371Z" fill="black"/>
<path d="M294.6 55.2539C294.57 54.9748 294.444 54.7575 294.223 54.6019C294.003 54.4464 293.718 54.3686 293.366 54.3686C293.119 54.3686 292.907 54.4059 292.73 54.4805C292.553 54.555 292.418 54.6562 292.324 54.7841C292.23 54.9119 292.182 55.0579 292.18 55.2219C292.18 55.3583 292.211 55.4766 292.273 55.5767C292.337 55.6768 292.423 55.7621 292.532 55.8324C292.641 55.9006 292.761 55.9581 292.893 56.005C293.025 56.0518 293.158 56.0913 293.293 56.1232L293.906 56.2766C294.153 56.3342 294.391 56.4119 294.619 56.5099C294.849 56.608 295.055 56.7315 295.236 56.8807C295.419 57.0298 295.564 57.2099 295.67 57.4208C295.777 57.6317 295.83 57.8789 295.83 58.1623C295.83 58.5458 295.732 58.8835 295.536 59.1754C295.34 59.4652 295.057 59.6921 294.686 59.8562C294.317 60.0181 293.871 60.0991 293.347 60.0991C292.838 60.0991 292.396 60.0202 292.021 59.8626C291.648 59.7049 291.356 59.4748 291.145 59.1722C290.936 58.8697 290.823 58.5011 290.806 58.0664H291.973C291.99 58.2944 292.06 58.484 292.184 58.6353C292.307 58.7866 292.468 58.8995 292.666 58.9741C292.866 59.0487 293.09 59.0859 293.337 59.0859C293.595 59.0859 293.821 59.0476 294.015 58.9709C294.211 58.892 294.364 58.7834 294.475 58.6449C294.586 58.5043 294.642 58.3402 294.644 58.1527C294.642 57.9822 294.592 57.8416 294.494 57.7308C294.396 57.6179 294.259 57.5241 294.082 57.4496C293.907 57.3729 293.703 57.3047 293.468 57.245L292.724 57.0533C292.185 56.9148 291.758 56.7049 291.445 56.4237C291.134 56.1403 290.979 55.7642 290.979 55.2955C290.979 54.9098 291.083 54.5721 291.292 54.2823C291.503 53.9925 291.789 53.7678 292.152 53.608C292.514 53.446 292.924 53.3651 293.382 53.3651C293.847 53.3651 294.254 53.446 294.603 53.608C294.955 53.7678 295.23 53.9904 295.431 54.2759C295.631 54.5593 295.734 54.8853 295.741 55.2539H294.6ZM301.013 53.4545H302.199V57.7308C302.199 58.1996 302.088 58.6119 301.867 58.9677C301.647 59.3235 301.338 59.6016 300.94 59.8018C300.541 60 300.076 60.0991 299.543 60.0991C299.008 60.0991 298.542 60 298.143 59.8018C297.745 59.6016 297.436 59.3235 297.216 58.9677C296.997 58.6119 296.887 58.1996 296.887 57.7308V53.4545H298.073V57.6317C298.073 57.9045 298.133 58.1474 298.252 58.3604C298.373 58.5735 298.544 58.7408 298.763 58.8622C298.983 58.9815 299.243 59.0412 299.543 59.0412C299.844 59.0412 300.104 58.9815 300.323 58.8622C300.545 58.7408 300.715 58.5735 300.834 58.3604C300.954 58.1474 301.013 57.9045 301.013 57.6317V53.4545ZM303.488 53.4545H304.939L306.882 58.1974H306.959L308.902 53.4545H310.353V60H309.215V55.5032H309.154L307.345 59.9808H306.495L304.686 55.4936H304.626V60H303.488V53.4545ZM311.644 53.4545H313.095L315.038 58.1974H315.115L317.058 53.4545H318.509V60H317.371V55.5032H317.311L315.502 59.9808H314.652L312.843 55.4936H312.782V60H311.644V53.4545ZM320.641 60H319.375L321.68 53.4545H323.143L325.451 60H324.185L322.437 54.7969H322.386L320.641 60ZM320.682 57.4336H324.134V58.386H320.682V57.4336ZM326.313 60V53.4545H328.768C329.27 53.4545 329.692 53.5419 330.033 53.7166C330.376 53.8913 330.635 54.1364 330.81 54.4517C330.987 54.7649 331.075 55.1303 331.075 55.5479C331.075 55.9677 330.986 56.332 330.807 56.641C330.63 56.9478 330.369 57.1854 330.024 57.3537C329.678 57.5199 329.254 57.603 328.752 57.603H327.003V56.6186H328.592C328.886 56.6186 329.127 56.5781 329.314 56.4972C329.502 56.4141 329.64 56.2937 329.73 56.136C329.821 55.9762 329.867 55.7802 329.867 55.5479C329.867 55.3157 329.821 55.1175 329.73 54.9535C329.638 54.7873 329.498 54.6616 329.311 54.5763C329.123 54.489 328.882 54.4453 328.585 54.4453H327.499V60H326.313ZM329.694 57.0341L331.315 60H329.992L328.4 57.0341H329.694ZM331.464 53.4545H332.803L334.405 56.3501H334.469L336.07 53.4545H337.409L335.028 57.5582V60H333.845V57.5582L331.464 53.4545Z" fill="black"/>
<line x1="57" y1="23.5" x2="128" y2="23.5" stroke="#ECE711"/>
<circle cx="129" cy="24" r="21.5" fill="white" stroke="#ECE711"/>
<line x1="151" y1="23.5" x2="222" y2="23.5" stroke="#ECE711"/>
<circle cx="223" cy="22" r="21.5" fill="white" stroke="#ECE711"/>
<line x1="245" y1="21.5" x2="316" y2="21.5" stroke="#ECE711"/>
<circle cx="312" cy="22" r="21.5" fill="white" stroke="#ECE711"/>
<path d="M122.12 18H135.87L134.93 17H122.93L122.12 18ZM137.54 18.23C137.83 18.57 138 19 138 19.5V32C138 32.5304 137.789 33.0391 137.414 33.4142C137.039 33.7893 136.53 34 136 34H122C121.47 34 120.961 33.7893 120.586 33.4142C120.211 33.0391 120 32.5304 120 32V19.5C120 19 120.17 18.57 120.46 18.23L121.84 16.55C122.12 16.21 122.53 16 123 16H135C135.47 16 135.88 16.21 136.15 16.55L137.54 18.23ZM123 31H129V28H123V31Z" fill="#ECE711"/>
<path d="M223 32C217.477 32 213 27.523 213 22C213 16.477 217.477 12 223 12C228.523 12 233 16.477 233 22C233 27.523 228.523 32 223 32ZM223 30C225.122 30 227.157 29.1571 228.657 27.6569C230.157 26.1566 231 24.1217 231 22C231 19.8783 230.157 17.8434 228.657 16.3431C227.157 14.8429 225.122 14 223 14C220.878 14 218.843 14.8429 217.343 16.3431C215.843 17.8434 215 19.8783 215 22C215 24.1217 215.843 26.1566 217.343 27.6569C218.843 29.1571 220.878 30 223 30ZM224 22H228V24H222V17H224V22Z" fill="#ECE711"/>
<path fill-rule="evenodd" clip-rule="evenodd" d="M307.099 11.25H316.9C317.917 11.25 318.617 11.25 319.206 11.454C319.757 11.6484 320.255 11.9672 320.662 12.3855C321.069 12.8038 321.374 13.3105 321.554 13.866C321.75 14.463 321.749 15.173 321.749 16.226V30.374C321.749 31.84 320.022 32.712 318.885 31.671C318.849 31.6361 318.8 31.6166 318.75 31.6166C318.699 31.6166 318.651 31.6361 318.614 31.671L318.13 32.113C317.202 32.963 315.796 32.963 314.868 32.113C314.7 31.9562 314.479 31.8689 314.249 31.8689C314.019 31.8689 313.798 31.9562 313.63 32.113C312.702 32.963 311.296 32.963 310.368 32.113C310.2 31.9562 309.979 31.8689 309.749 31.8689C309.519 31.8689 309.298 31.9562 309.13 32.113C308.202 32.963 306.796 32.963 305.868 32.113L305.385 31.671C305.348 31.6358 305.3 31.6161 305.249 31.6161C305.198 31.6161 305.15 31.6358 305.113 31.671C303.976 32.711 302.249 31.84 302.249 30.374V16.227C302.249 15.173 302.249 14.463 302.444 13.866C302.623 13.3104 302.929 12.8038 303.336 12.3854C303.743 11.9671 304.241 11.6483 304.792 11.454C305.382 11.249 306.082 11.25 307.099 11.25ZM307.245 12.75C306.024 12.75 305.603 12.76 305.285 12.871C304.953 12.9898 304.653 13.1834 304.407 13.437C304.162 13.6905 303.979 13.9971 303.871 14.333C303.76 14.672 303.751 15.118 303.751 16.37V30.374C303.751 30.494 303.81 30.566 303.885 30.601C303.919 30.6173 303.957 30.6235 303.995 30.619C304.036 30.6125 304.073 30.5932 304.102 30.564C304.415 30.2759 304.825 30.116 305.25 30.116C305.675 30.116 306.085 30.2759 306.398 30.564L306.881 31.006C307.049 31.1628 307.27 31.2501 307.5 31.2501C307.73 31.2501 307.951 31.1628 308.119 31.006C308.563 30.5965 309.146 30.3692 309.75 30.3692C310.354 30.3692 310.937 30.5965 311.381 31.006C311.549 31.1628 311.77 31.2501 312 31.2501C312.23 31.2501 312.451 31.1628 312.619 31.006C313.063 30.5965 313.646 30.3692 314.25 30.3692C314.854 30.3692 315.437 30.5965 315.881 31.006C316.049 31.1628 316.27 31.2501 316.5 31.2501C316.73 31.2501 316.951 31.1628 317.119 31.006L317.602 30.564C317.915 30.2759 318.325 30.116 318.75 30.116C319.175 30.116 319.585 30.2759 319.898 30.564C319.941 30.604 319.978 30.616 320.006 30.619C320.043 30.6234 320.081 30.6171 320.115 30.601C320.19 30.566 320.25 30.493 320.25 30.374V16.37C320.25 15.118 320.24 14.672 320.13 14.333C320.022 13.9969 319.838 13.6901 319.593 13.4365C319.347 13.183 319.047 12.9894 318.714 12.871C318.397 12.761 317.976 12.751 316.755 12.751L307.245 12.75ZM306.25 17.5C306.25 17.3011 306.329 17.1103 306.47 16.9697C306.61 16.829 306.801 16.75 307 16.75H307.5C307.699 16.75 307.89 16.829 308.03 16.9697C308.171 17.1103 308.25 17.3011 308.25 17.5C308.25 17.6989 308.171 17.8897 308.03 18.0303C307.89 18.171 307.699 18.25 307.5 18.25H307C306.801 18.25 306.61 18.171 306.47 18.0303C306.329 17.8897 306.25 17.6989 306.25 17.5ZM309.75 17.5C309.75 17.3011 309.829 17.1103 309.97 16.9697C310.11 16.829 310.301 16.75 310.5 16.75H317C317.199 16.75 317.39 16.829 317.53 16.9697C317.671 17.1103 317.75 17.3011 317.75 17.5C317.75 17.6989 317.671 17.8897 317.53 18.0303C317.39 18.171 317.199 18.25 317 18.25H310.5C310.301 18.25 310.11 18.171 309.97 18.0303C309.829 17.8897 309.75 17.6989 309.75 17.5ZM306.25 21C306.25 20.8011 306.329 20.6103 306.47 20.4697C306.61 20.329 306.801 20.25 307 20.25H307.5C307.699 20.25 307.89 20.329 308.03 20.4697C308.171 20.6103 308.25 20.8011 308.25 21C308.25 21.1989 308.171 21.3897 308.03 21.5303C307.89 21.671 307.699 21.75 307.5 21.75H307C306.801 21.75 306.61 21.671 306.47 21.5303C306.329 21.3897 306.25 21.1989 306.25 21ZM309.75 21C309.75 20.8011 309.829 20.6103 309.97 20.4697C310.11 20.329 310.301 20.25 310.5 20.25H317C317.199 20.25 317.39 20.329 317.53 20.4697C317.671 20.6103 317.75 20.8011 317.75 21C317.75 21.1989 317.671 21.3897 317.53 21.5303C317.39 21.671 317.199 21.75 317 21.75H310.5C310.301 21.75 310.11 21.671 309.97 21.5303C309.829 21.3897 309.75 21.1989 309.75 21ZM306.25 24.5C306.25 24.3011 306.329 24.1103 306.47 23.9697C306.61 23.829 306.801 23.75 307 23.75H307.5C307.699 23.75 307.89 23.829 308.03 23.9697C308.171 24.1103 308.25 24.3011 308.25 24.5C308.25 24.6989 308.171 24.8897 308.03 25.0303C307.89 25.171 307.699 25.25 307.5 25.25H307C306.801 25.25 306.61 25.171 306.47 25.0303C306.329 24.8897 306.25 24.6989 306.25 24.5ZM309.75 24.5C309.75 24.3011 309.829 24.1103 309.97 23.9697C310.11 23.829 310.301 23.75 310.5 23.75H317C317.199 23.75 317.39 23.829 317.53 23.9697C317.671 24.1103 317.75 24.3011 317.75 24.5C317.75 24.6989 317.671 24.8897 317.53 25.0303C317.39 25.171 317.199 25.25 317 25.25H310.5C310.301 25.25 310.11 25.171 309.97 25.0303C309.829 24.8897 309.75 24.6989 309.75 24.5Z" fill="#ECE711"/>
</svg>
