<svg width="36" height="36" viewBox="0 0 36 36" fill="none" xmlns="http://www.w3.org/2000/svg">
<path fill-rule="evenodd" clip-rule="evenodd" d="M27.888 4.25804C30.4909 4.25804 32.6012 6.35864 32.6012 8.9491C32.6012 11.5401 30.4909 13.641 27.888 13.641C25.2853 13.641 23.175 11.5404 23.175 8.9491C23.175 6.35864 25.2853 4.25804 27.888 4.25804ZM32.1588 15.2699C30.0383 15.2699 28.3183 16.9821 28.3183 19.0926C28.3183 21.2041 30.0383 22.9156 32.1588 22.9162C34.28 22.9162 36 21.2041 36 19.0926C35.9997 16.9821 34.28 15.2699 32.1588 15.2699ZM27.7058 26.339C26.2248 26.339 25.0233 27.5349 25.0233 29.0088C25.0233 30.4831 26.2248 31.679 27.7058 31.679C29.1865 31.679 30.3879 30.4831 30.3879 29.0088C30.3879 27.5349 29.1865 26.339 27.7058 26.339ZM17.4458 30.6594C15.9648 30.6594 14.7634 31.855 14.7634 33.3293C14.7634 34.8041 15.9648 36 17.4458 36C18.9268 36 20.1279 34.8041 20.1279 33.3293C20.1282 31.855 18.9271 30.6594 17.4458 30.6594ZM6.96125 26.6194C5.57294 26.6194 4.44776 27.7394 4.44776 29.1213C4.44776 30.5027 5.57294 31.6233 6.96125 31.6233C8.34867 31.6233 9.47415 30.5027 9.47415 29.1213C9.47415 27.7397 8.34867 26.6194 6.96125 26.6194ZM2.67713 16.0759C1.19847 16.0759 0 17.2689 0 18.7408C0 20.2118 1.19847 21.4048 2.67713 21.4048C4.15491 21.4048 5.35338 20.2118 5.35338 18.7408C5.35338 17.2689 4.15462 16.0759 2.67713 16.0759ZM6.96125 4.98813C5.09114 4.98813 3.57422 6.49839 3.57422 8.35993C3.57422 10.2215 5.09114 11.7309 6.96125 11.7309C8.83135 11.7309 10.3477 10.2215 10.3477 8.35993C10.3477 6.49839 8.83135 4.98813 6.96125 4.98813ZM17.4652 0C15.2134 0 13.3865 1.81789 13.3865 4.05911C13.3865 6.30064 15.2134 8.11852 17.4652 8.11852C19.7171 8.11852 21.5433 6.30064 21.5433 4.05911C21.5433 1.81789 19.7171 0 17.4652 0Z" fill="#C02525"/>
</svg>
