<svg width="20" height="20" viewBox="0 0 20 20" fill="none" xmlns="http://www.w3.org/2000/svg">
<path d="M9.99995 0.649908C8.22105 0.582144 6.48762 1.22117 5.17836 2.42737C3.8691 3.63358 3.09043 5.30892 3.01245 7.08741C3.01245 13.3374 7.86245 17.8499 9.47495 19.1624C9.62274 19.2843 9.80836 19.351 9.99995 19.351C10.1915 19.351 10.3772 19.2843 10.525 19.1624C12.1375 17.8499 16.9875 13.3749 16.9875 7.08741C16.9095 5.30892 16.1308 3.63358 14.8215 2.42737C13.5123 1.22117 11.7789 0.582144 9.99995 0.649908ZM9.99995 17.4999C8.83839 16.4793 7.80575 15.3207 6.92495 14.0499C5.45117 12.0224 4.63131 9.59334 4.57495 7.08741C4.65246 5.72322 5.26634 4.44505 6.28267 3.53176C7.29899 2.61848 8.63527 2.1442 9.99995 2.21241C11.3646 2.1442 12.7009 2.61848 13.7172 3.53176C14.7336 4.44505 15.3474 5.72322 15.425 7.08741C15.425 12.1874 11.725 16.0374 9.99995 17.4999Z" fill="#ECE711"/>
<path d="M9.99995 3.17519C9.54868 3.15681 9.09824 3.22819 8.67477 3.3852C8.25129 3.54221 7.86319 3.78172 7.53297 4.08985C7.20275 4.39797 6.93698 4.76858 6.75107 5.18019C6.56516 5.59181 6.46281 6.03623 6.44995 6.48769C6.46446 6.93863 6.56793 7.38227 6.7544 7.79311C6.94087 8.20394 7.20668 8.57389 7.53655 8.8817C7.86643 9.1895 8.25387 9.4291 8.67661 9.58672C9.09936 9.74434 9.54908 9.81689 9.99995 9.80019C10.9075 9.82719 11.789 9.494 12.4517 8.87338C13.1145 8.25275 13.5048 7.3951 13.5375 6.48769C13.5229 6.03784 13.4199 5.59526 13.2342 5.18526C13.0485 4.77526 12.7838 4.40588 12.4553 4.09824C12.1267 3.7906 11.7408 3.55073 11.3195 3.39235C10.8982 3.23396 10.4498 3.16017 9.99995 3.17519ZM9.99995 8.23769C9.50786 8.26501 9.02499 8.09616 8.65715 7.76815C8.2893 7.44013 8.06646 6.97969 8.03745 6.48769C8.06646 5.99569 8.2893 5.53525 8.65715 5.20723C9.02499 4.87922 9.50786 4.71037 9.99995 4.73769C10.4933 4.71029 10.9776 4.87875 11.3474 5.20645C11.7172 5.53416 11.9428 5.99461 11.975 6.48769C11.9428 6.98078 11.7172 7.44122 11.3474 7.76893C10.9776 8.09663 10.4933 8.26509 9.99995 8.23769Z" fill="#ECE711"/>
</svg>
