<svg width="44" height="44" viewBox="0 0 44 44" fill="none" xmlns="http://www.w3.org/2000/svg">
<path fill-rule="evenodd" clip-rule="evenodd" d="M22.0014 0.00419289C23.1723 -0.046352 24.0961 0.365228 25.0271 0.960936C26.2088 1.7155 27.5408 3.21018 29.1844 4.15609C31.494 5.48831 35.7765 3.65065 37.968 6.93606C39.2463 8.84955 39.3072 10.3515 39.4003 11.8353C39.5041 13.4347 39.7798 14.9077 41.4055 17.0739C44.0946 20.659 44.6532 23.0454 43.2675 25.533C42.3222 27.2298 40.3348 28.1721 39.8729 29.2444C38.8954 31.5298 39.9768 33.2519 38.6376 35.9163C37.7066 37.7648 36.2707 38.9815 34.3586 39.6025C32.7472 40.126 31.1251 39.3678 29.8361 39.9166C27.5659 40.877 25.8936 43.1118 24.0854 43.6786C23.3871 43.8952 22.6924 44.0035 22.0014 43.9999C21.3067 44.0035 20.612 43.8988 19.9174 43.6786C18.1127 43.1118 16.4369 40.8806 14.1667 39.9166C12.874 39.3678 11.2555 40.126 9.64416 39.6025C7.73204 38.9815 6.29615 37.7648 5.36516 35.9163C4.02237 33.2519 5.10734 31.5298 4.12621 29.2444C3.6643 28.1721 1.67697 27.2298 0.731654 25.533C-0.6541 23.0454 -0.0919212 20.659 2.59365 17.0739C4.21931 14.9077 4.49503 13.4347 4.59887 11.8353C4.69555 10.3515 4.75285 8.84955 6.03118 6.93606C8.2226 3.65065 12.5052 5.48831 14.8148 4.15609C16.4583 3.21018 17.7868 1.7155 18.972 0.960936C19.9066 0.365228 20.8305 -0.046352 22.0014 0.00419289ZM18.2022 19.4604L21.0167 22.1609L25.8614 17.1967C26.3412 16.7057 26.642 16.3121 27.2329 16.9259L29.1521 18.908C29.7824 19.5362 29.7501 19.9044 29.1557 20.4893L22.1124 27.4609C20.8591 28.6992 21.0775 28.7751 19.8064 27.5042L14.9723 22.6555C14.7074 22.3667 14.736 22.0743 15.026 21.7854L17.2533 19.4568C17.5863 19.1029 17.8548 19.1246 18.2022 19.4604ZM21.9369 9.95432C28.7224 9.95432 34.2189 15.4998 34.2189 22.3378C34.2189 29.1794 28.7189 34.7213 21.9369 34.7213C15.1514 34.7213 9.65491 29.1758 9.65491 22.3378C9.65491 15.4962 15.155 9.95432 21.9369 9.95432Z" fill="#008000" fill-opacity="0.6"/>
</svg>
