<svg width="33" height="32" viewBox="0 0 33 32" fill="none" xmlns="http://www.w3.org/2000/svg">
<path d="M16.5001 1.04005C13.5649 0.931625 10.7047 1.95406 8.54445 3.88399C6.38418 5.81392 5.09936 8.49447 4.9707 11.34C4.9707 21.34 12.9732 28.56 15.6338 30.66C15.8777 30.8551 16.184 30.9618 16.5001 30.9618C16.8162 30.9618 17.1225 30.8551 17.3663 30.66C20.027 28.56 28.0295 21.4 28.0295 11.34C27.9008 8.49447 26.616 5.81392 24.4557 3.88399C22.2954 1.95406 19.4353 0.931625 16.5001 1.04005ZM16.5001 28C14.5835 26.3671 12.8796 24.5134 11.4263 22.48C8.99459 19.236 7.64183 15.3495 7.54883 11.34C7.67672 9.15735 8.68962 7.11228 10.3666 5.65102C12.0435 4.18976 14.2484 3.43091 16.5001 3.54005C18.7518 3.43091 20.9567 4.18976 22.6336 5.65102C24.3105 7.11228 25.3234 9.15735 25.4513 11.34C25.4513 19.5 19.3463 25.66 16.5001 28Z" fill="#ECE711"/>
<path d="M16.5001 5.08021C15.7555 5.0508 15.0123 5.16501 14.3135 5.41622C13.6148 5.66744 12.9744 6.05065 12.4296 6.54365C11.8847 7.03666 11.4462 7.62964 11.1394 8.28821C10.8327 8.94679 10.6638 9.65786 10.6426 10.3802C10.6665 11.1017 10.8372 11.8115 11.1449 12.4689C11.4526 13.1262 11.8912 13.7181 12.4355 14.2106C12.9798 14.7031 13.619 15.0865 14.3166 15.3387C15.0141 15.5909 15.7561 15.7069 16.5001 15.6802C17.9976 15.7234 19.4519 15.1903 20.5455 14.1973C21.6391 13.2043 22.2831 11.8321 22.337 10.3802C22.313 9.66044 22.1429 8.95232 21.8365 8.29632C21.5302 7.64032 21.0934 7.04931 20.5513 6.55709C20.0093 6.06486 19.3724 5.68107 18.6773 5.42766C17.9821 5.17424 17.2423 5.05618 16.5001 5.08021ZM16.5001 13.1802C15.6881 13.2239 14.8914 12.9538 14.2845 12.4289C13.6775 11.9041 13.3098 11.1674 13.262 10.3802C13.3098 9.59301 13.6775 8.8563 14.2845 8.33148C14.8914 7.80665 15.6881 7.5365 16.5001 7.58021C17.3141 7.53636 18.1132 7.8059 18.7234 8.33023C19.3336 8.85455 19.7057 9.59127 19.7588 10.3802C19.7057 11.1691 19.3336 11.9059 18.7234 12.4302C18.1132 12.9545 17.3141 13.2241 16.5001 13.1802Z" fill="#ECE711"/>
</svg>
