<svg width="292" height="257" viewBox="0 0 292 257" fill="none" xmlns="http://www.w3.org/2000/svg">
<g clip-path="url(#clip0_196_124)">
<path d="M187.21 232.057L186.495 222.106C181.81 219.764 176.624 218.6 171.387 218.718C178.754 224.414 178.164 235.799 183.267 243.59C184.877 246.008 187.01 248.033 189.508 249.514C192.007 250.995 194.807 251.895 197.7 252.147L203.832 255.675C204.533 251.038 204.221 246.304 202.917 241.799C201.614 237.294 199.349 233.126 196.279 229.581C194.538 227.609 192.555 225.864 190.377 224.388C189.037 228.237 187.21 232.057 187.21 232.057Z" fill="#F2F2F2"/>
<path d="M150.688 257H291.059C291.178 257 291.293 256.953 291.377 256.868C291.461 256.784 291.509 256.67 291.509 256.55C291.509 256.431 291.461 256.317 291.377 256.232C291.293 256.148 291.178 256.101 291.059 256.101H150.688C150.569 256.101 150.454 256.148 150.37 256.232C150.285 256.317 150.238 256.431 150.238 256.55C150.238 256.67 150.285 256.784 150.37 256.868C150.454 256.953 150.569 257 150.688 257Z" fill="#CCCCCC"/>
<path d="M61.3148 149.618V149.81H61.4489C61.4003 149.749 61.3555 149.685 61.3148 149.618ZM62.3472 67.9807C52.9773 80.1696 47.9054 95.1185 47.9232 110.494C47.9253 112.836 48.04 115.144 48.2672 117.419C48.3023 117.81 48.343 118.201 48.3957 118.586C49.6976 129.901 53.7617 140.722 60.23 150.096C60.4806 150.464 60.7372 150.825 60.9941 151.187C63.7786 155.092 66.9575 158.7 70.4805 161.954C98.842 188.15 143.064 186.388 169.253 158.019C169.655 157.593 170.04 157.161 170.419 156.73C181.138 144.587 187.305 129.094 187.864 112.905C188.422 96.7148 183.338 80.8342 173.481 67.9807C173.184 67.5898 172.881 67.1989 172.566 66.8139C171.875 65.9446 171.16 65.0928 170.419 64.2585C170.04 63.8268 169.655 63.3951 169.253 62.9692C162.714 55.8754 154.776 50.2148 145.939 46.3448C137.103 42.4747 127.56 40.4792 117.914 40.4844C117.244 40.4844 116.579 40.4961 115.914 40.5136C115.47 40.5252 115.027 40.5427 114.584 40.5661C104.655 41.0375 94.9412 43.6228 86.091 48.1491C77.2408 52.6755 69.4581 59.0387 63.2628 66.8139C62.9478 67.1989 62.6448 67.5898 62.3472 67.9807ZM61.4489 149.81C61.4003 149.749 61.3555 149.685 61.3148 149.618V149.81H61.4489Z" fill="white"/>
<path d="M60.825 148.9L61.0232 148.498L75.873 118.586V118.58L76.4505 117.419V117.413L100.982 67.9808V67.975L101.56 66.814L101.565 66.8082L113.989 41.7622L114.584 40.5662C115.027 40.5429 115.47 40.5254 115.914 40.5137L115.325 41.7038L102.866 66.8082V66.814L102.289 67.975V67.9808L77.1152 118.703L77.1095 118.709L62.2598 148.644L61.6765 149.81L61.5831 150.003L60.9941 151.187C60.7372 150.826 60.4807 150.464 60.23 150.096L60.825 148.9Z" fill="#3F3D56"/>
<path d="M76.8646 117.419V118.586H48.3957C48.343 118.201 48.3023 117.81 48.2672 117.419H76.8646Z" fill="#3F3D56"/>
<path d="M121.107 126.521V125.354H149.576C149.628 125.74 149.669 126.13 149.704 126.521H121.107Z" fill="#3F3D56"/>
<path d="M144.919 122.456H146.085V150.933C145.7 150.985 145.309 151.026 144.919 151.061V122.456Z" fill="#3F3D56"/>
<path d="M173.481 67.9808C173.184 67.5899 172.881 67.199 172.566 66.8139H170.419V64.2586C170.04 63.8269 169.655 63.3952 169.253 62.9692V66.8139H63.2628C62.9478 67.199 62.6448 67.5899 62.3472 67.9808H169.253V158.019C169.655 157.593 170.04 157.161 170.419 156.73V67.9808H173.481Z" fill="#3F3D56"/>
<path d="M169.836 148.643H61.3134V149.81H169.836V148.643Z" fill="#3F3D56"/>
<path d="M61.3148 149.618V149.81H61.4489C61.4003 149.749 61.3555 149.685 61.3148 149.618ZM62.3472 67.9807C52.9773 80.1696 47.9054 95.1185 47.9232 110.494C47.9253 112.836 48.04 115.144 48.2672 117.419C48.3023 117.81 48.343 118.201 48.3957 118.586C49.6976 129.901 53.7617 140.722 60.23 150.096C60.4806 150.464 60.7372 150.825 60.9941 151.187C63.7786 155.092 66.9575 158.7 70.4805 161.954C98.842 188.15 143.064 186.388 169.253 158.019C169.655 157.593 170.04 157.161 170.419 156.73C181.138 144.587 187.305 129.094 187.864 112.905C188.422 96.7148 183.338 80.8342 173.481 67.9807C173.184 67.5898 172.881 67.1989 172.566 66.8139C171.875 65.9446 171.16 65.0928 170.419 64.2585C170.04 63.8268 169.655 63.3951 169.253 62.9692C162.714 55.8754 154.776 50.2148 145.939 46.3448C137.103 42.4747 127.56 40.4792 117.914 40.4844C117.244 40.4844 116.579 40.4961 115.914 40.5136C115.47 40.5252 115.027 40.5427 114.584 40.5661C104.655 41.0375 94.9412 43.6228 86.091 48.1491C77.2408 52.6755 69.4581 59.0387 63.2628 66.8139C62.9478 67.1989 62.6448 67.5898 62.3472 67.9807ZM49.5679 118.586C49.5155 118.201 49.4748 117.81 49.4338 117.419C47.6559 99.6992 52.8111 81.9795 63.817 67.9807C64.126 67.5898 64.4353 67.1989 64.756 66.8138C70.7839 59.4593 78.2717 53.4356 86.746 49.1235C95.2202 44.8114 104.497 42.3048 113.989 41.762C114.432 41.7387 114.875 41.7154 115.325 41.7037C116.182 41.6687 117.045 41.6512 117.914 41.6512C127.614 41.6455 137.204 43.6963 146.053 47.6686C154.902 51.6408 162.809 57.4442 169.253 64.6961C169.655 65.1395 170.046 65.5828 170.419 66.0379C170.647 66.2946 170.862 66.5513 171.072 66.8139C171.393 67.1989 171.702 67.5898 172.011 67.9807C181.818 80.435 187.017 95.8986 186.727 111.75C186.437 127.601 180.675 142.863 170.419 154.95C170.046 155.405 169.655 155.849 169.253 156.292C165.701 160.283 161.697 163.846 157.321 166.91C126.216 188.686 83.3527 181.116 61.583 150.003C61.5363 149.939 61.4897 149.875 61.4489 149.81C61.4003 149.749 61.3555 149.685 61.3148 149.618C61.1457 149.379 60.9824 149.139 60.8249 148.9C54.6982 139.844 50.8375 129.447 49.5679 118.586ZM61.4489 149.81C61.4003 149.749 61.3555 149.685 61.3148 149.618V149.81H61.4489Z" fill="#CCCCCC"/>
<path d="M198.523 185.69H128.695C127.841 185.689 127.023 185.349 126.419 184.745C125.815 184.141 125.475 183.323 125.474 182.469V148.435C125.475 147.581 125.815 146.762 126.419 146.158C127.023 145.555 127.841 145.215 128.695 145.214H198.523C199.377 145.215 200.196 145.555 200.8 146.158C201.403 146.762 201.743 147.581 201.744 148.435V182.469C201.743 183.323 201.403 184.141 200.8 184.745C200.196 185.349 199.377 185.689 198.523 185.69Z" fill="#CACACA"/>
<path d="M167.765 182.951C152.472 182.951 136.526 182.805 130.576 182.71C129.794 182.694 129.048 182.372 128.499 181.814C127.95 181.256 127.641 180.505 127.638 179.721V148.437C127.638 148.157 127.75 147.888 127.948 147.69C128.146 147.491 128.414 147.379 128.695 147.378H198.521C198.802 147.378 199.07 147.49 199.269 147.688C199.467 147.886 199.579 148.154 199.58 148.435V169.66C199.567 173.125 198.197 176.447 195.764 178.913C193.33 181.379 190.028 182.792 186.564 182.851C181.019 182.923 174.453 182.951 167.765 182.951Z" fill="#E4E4E4"/>
<path d="M191.314 166.935H134.498C134.13 166.935 133.77 166.82 133.469 166.608C133.168 166.396 132.94 166.096 132.816 165.749L126.385 147.703C126.289 147.433 126.259 147.145 126.298 146.861C126.337 146.578 126.443 146.308 126.607 146.074C126.772 145.841 126.99 145.65 127.244 145.518C127.497 145.386 127.779 145.317 128.065 145.316L199.086 145.217H199.089C199.384 145.217 199.675 145.291 199.935 145.431C200.196 145.571 200.417 145.773 200.58 146.02C200.742 146.267 200.841 146.55 200.867 146.845C200.894 147.139 200.847 147.436 200.73 147.707L192.956 165.852C192.818 166.174 192.589 166.448 192.298 166.64C192.006 166.833 191.664 166.935 191.314 166.935Z" fill="#CACACA"/>
<path d="M150.966 179.443H131.374C130.892 179.442 130.429 179.25 130.089 178.908C129.748 178.567 129.556 178.104 129.556 177.622C129.556 177.139 129.748 176.677 130.089 176.335C130.429 175.994 130.892 175.802 131.374 175.801H150.966C151.448 175.802 151.91 175.994 152.251 176.335C152.592 176.677 152.783 177.139 152.783 177.622C152.783 178.104 152.592 178.567 152.251 178.908C151.91 179.25 151.448 179.442 150.966 179.443Z" fill="#CACACA"/>
<path d="M163.503 171.385C165.96 171.385 167.952 169.393 167.952 166.935C167.952 164.477 165.96 162.485 163.503 162.485C161.046 162.485 159.054 164.477 159.054 166.935C159.054 169.393 161.046 171.385 163.503 171.385Z" fill="#3F3D56"/>
<path d="M22.4899 9.20197C33.4217 1.50135 46.964 -1.54007 60.1377 0.74678C73.3113 3.03363 85.0373 10.4614 92.7358 21.3962C108.767 44.1665 124.854 103.876 113.498 138.466C79.6281 102.681 27.5934 98.962 10.299 79.4666C-8.18074 58.6351 -0.274377 25.2377 22.4899 9.20197Z" fill="#FFC700"/>
<path d="M52.2034 60.764C61.2839 60.764 68.645 53.4009 68.645 44.3181C68.645 35.2352 61.2839 27.8721 52.2034 27.8721C43.123 27.8721 35.7618 35.2352 35.7618 44.3181C35.7618 53.4009 43.123 60.764 52.2034 60.764Z" fill="white"/>
<path d="M127.397 156.377C133.345 156.377 138.166 151.554 138.166 145.605C138.166 139.656 133.345 134.833 127.397 134.833C121.45 134.833 116.628 139.656 116.628 145.605C116.628 151.554 121.45 156.377 127.397 156.377Z" fill="#FFC700"/>
<path opacity="0.2" d="M34.6128 40.5232C33.5242 42.3883 32.8134 44.4495 32.5211 46.5893C32.2289 48.7291 32.3608 50.9056 32.9094 52.9944C33.4581 55.0832 34.4126 57.0434 35.7186 58.7632C37.0246 60.483 38.6565 61.9286 40.521 63.0176C42.3856 64.1065 44.4463 64.8175 46.5855 65.1098C48.7247 65.4022 50.9006 65.2702 52.9888 64.7214C55.0771 64.1727 57.0368 63.2179 58.7561 61.9115C60.4754 60.6052 61.9207 58.9729 63.0094 57.1078C60.0746 59.6831 56.3194 61.1296 52.4159 61.1884C48.5124 61.2473 44.7153 59.9147 41.7043 57.429C38.6934 54.9434 36.665 51.4671 35.9823 47.6223C35.2996 43.7774 36.0071 39.8151 37.9782 36.4443C36.6438 37.6135 35.5073 38.9909 34.6128 40.5232Z" fill="#231F20"/>
<path opacity="0.2" d="M10.2683 79.5444C27.5628 99.0398 79.5974 102.758 113.468 138.544C114.525 135.271 115.338 131.925 115.902 128.532C82.0488 95.9995 32.9109 91.8881 16.2013 73.0521C1.24596 56.1934 3.574 31.1062 17.0711 13.6504C-1.43995 30.814 -6.66658 60.4544 10.2683 79.5444Z" fill="#231F20"/>
<path d="M225.236 148.425L218.254 146.297C215.214 149.963 212.694 160.581 212.694 160.581L203.138 176.114C202.627 176.357 202.188 176.73 201.867 177.196C201.546 177.663 201.353 178.205 201.308 178.77C201.263 179.334 201.367 179.9 201.611 180.412C201.854 180.923 202.228 181.361 202.694 181.682C203.161 182.003 203.703 182.195 204.268 182.239C204.832 182.284 205.398 182.178 205.909 181.934C206.42 181.69 206.857 181.316 207.177 180.849C207.498 180.382 207.689 179.839 207.733 179.274L222.196 161.712L225.236 148.425Z" fill="#FFB6B6"/>
<path d="M225.102 150.12L226.393 139.547L223.5 134.716C222.929 133.769 222.104 133.002 221.12 132.499C220.135 131.997 219.03 131.78 217.928 131.873C216.436 132.009 215.051 132.707 214.054 133.826C213.057 134.944 212.521 136.4 212.556 137.898C212.664 142.442 213.38 148.189 216.173 149.759L216.201 149.775L225.102 150.12Z" fill="#F9A826"/>
<path d="M244.827 245.652L240.64 247.673L230.852 232.481L237.032 229.498L244.827 245.652Z" fill="#FFB6B6"/>
<path d="M247.083 249.95L234.207 256.167L234.129 256.004C233.487 254.674 233.4 253.144 233.886 251.75C234.372 250.357 235.392 249.213 236.721 248.571L238.212 245.651L243.461 245.317L244.585 244.774L247.083 249.95Z" fill="#2F2E41"/>
<path d="M213.66 251.315L209.011 251.315L206.799 233.377L213.661 233.377L213.66 251.315Z" fill="#FFB6B6"/>
<path d="M213.824 256.166L199.527 256.166V255.985C199.527 254.509 200.113 253.093 201.157 252.049C202.201 251.005 203.616 250.419 205.092 250.419H205.092L207.704 248.437L212.576 250.419L213.824 250.419L213.824 256.166Z" fill="#2F2E41"/>
<path d="M209.053 168.121L203.725 204.871L205.175 209.706L203.272 213.131L206.066 238.907L204.932 241.405L208.101 243.36H214.549L214.891 216.131L216.484 212.134V209.93L219.726 193.327L220.474 219.174L221.509 221.171C225.365 229.922 230.56 232.787 234.232 239.328L240.68 235.835L240.545 233.229C241.84 232.573 238.6 230.656 238.288 229.237L237.724 226.697L233.963 218.903L233.819 216.159L234.849 197.491L234.364 172.352L225.906 165.883L209.053 168.121Z" fill="#2F2E41"/>
<path d="M217.424 123.547C222.051 123.547 225.801 119.795 225.801 115.167C225.801 110.539 222.051 106.788 217.424 106.788C212.797 106.788 209.046 110.539 209.046 115.167C209.046 119.795 212.797 123.547 217.424 123.547Z" fill="#FFB6B6"/>
<path d="M205.046 183.975L204.923 183.933L206.545 178.661C206.332 177.982 206.291 177.261 206.427 176.562C206.562 175.863 206.868 175.209 207.319 174.658C207.057 174.204 205.976 172.06 207.736 170.238C207.631 169.707 207.102 166.563 208.949 165.026C208.949 165.026 212.534 137.846 214.545 130.667C214.603 130.142 214.133 125.854 216.837 125.686C218.264 125.597 220.404 125.462 223.617 125.254C224.032 125.225 224.275 125.926 224.643 127.066C224.893 127.838 223.609 128.893 223.92 128.876L223.942 128.874L223.963 128.88C226.96 129.684 229.589 131.495 231.407 134.009C233.226 136.523 234.124 139.587 233.95 142.686L232.995 158.926C233.14 159.579 236.182 178.099 235.386 180.087C234.935 181.215 235.704 181.917 236.266 182.43C236.555 182.695 236.764 182.885 236.735 183.094C236.723 183.152 236.697 183.205 236.659 183.25C236.622 183.294 236.573 183.329 236.518 183.35C236.01 183.604 236.291 185.346 236.588 186.385L236.618 186.491L236.52 186.541C236.406 186.6 227.316 182.429 216.271 182.429C212.109 182.429 209.702 185.6 205.046 183.975Z" fill="#FFC700"/>
<path d="M224.063 120.319C223.976 120.275 223.899 120.212 223.838 120.136C223.776 120.059 223.732 119.971 223.707 119.876L223.588 119.39L223.955 119.772C224.151 119.61 224.301 119.398 224.39 119.159C224.479 118.92 224.502 118.662 224.459 118.41C224.416 118.159 224.308 117.923 224.145 117.727C223.981 117.531 223.77 117.381 223.53 117.294C223.369 117.24 223.203 117.199 223.035 117.173C222.859 117.145 222.685 117.103 222.516 117.048C222.119 116.876 221.778 116.6 221.527 116.248C221.277 115.896 221.128 115.482 221.095 115.051C221.041 114.292 221.125 113.529 221.344 112.8C217.648 113.368 213.878 113.254 210.222 112.465C209.659 112.346 209.12 112.134 208.626 111.837C207.723 111.302 206.972 110.545 206.442 109.639C206.372 109.517 206.343 109.375 206.359 109.235C206.375 109.095 206.436 108.964 206.532 108.861C206.598 108.789 206.679 108.732 206.769 108.692C206.858 108.653 206.955 108.632 207.054 108.631L206.92 108.269C206.878 108.156 206.867 108.033 206.888 107.915C206.908 107.796 206.96 107.685 207.038 107.592C207.116 107.5 207.217 107.43 207.33 107.389C207.444 107.349 207.566 107.339 207.685 107.361L208.159 107.45L208.114 107.135C208.097 107.017 208.111 106.898 208.154 106.787C208.197 106.677 208.269 106.58 208.361 106.505C208.454 106.431 208.564 106.382 208.681 106.363C208.798 106.344 208.918 106.356 209.029 106.398C209.131 106.437 209.24 106.452 209.348 106.444C209.457 106.437 209.562 106.405 209.657 106.353C209.752 106.3 209.835 106.228 209.899 106.14C209.964 106.053 210.009 105.952 210.03 105.846L210.194 105.054L210.21 105.012C211.012 103.675 212.553 102.703 214.438 102.346C216.119 102.027 217.835 102.188 219.495 102.344C220.199 102.358 220.891 102.533 221.517 102.854C221.801 103.018 222.033 103.257 222.189 103.545C222.345 103.833 222.417 104.159 222.398 104.486C224.033 103.983 225.787 104.985 226.654 106.247C227.685 107.748 227.852 109.63 227.882 111.103C227.953 114.584 227.236 117.432 225.751 119.568C225.538 119.931 225.216 120.217 224.832 120.385C224.734 120.418 224.631 120.435 224.527 120.435C224.365 120.435 224.206 120.396 224.063 120.319Z" fill="#2F2E41"/>
<path d="M224.364 153.313L218.215 149.38C214.299 152.089 209.008 161.633 209.008 161.633L195.615 174.009C195.057 174.105 194.534 174.346 194.099 174.708C193.664 175.07 193.331 175.541 193.136 176.072C192.94 176.603 192.888 177.177 192.984 177.735C193.081 178.293 193.322 178.815 193.685 179.25C194.048 179.685 194.518 180.017 195.05 180.212C195.581 180.407 196.155 180.459 196.712 180.361C197.27 180.264 197.792 180.022 198.227 179.659C198.661 179.296 198.992 178.824 199.186 178.293L217.851 165.286L224.364 153.313Z" fill="#FFB6B6"/>
<path d="M223.778 154.909L227.873 145.077L226.392 139.644C226.097 138.579 225.51 137.617 224.698 136.867C223.885 136.118 222.879 135.61 221.794 135.403C220.32 135.131 218.799 135.429 217.536 136.237C216.274 137.045 215.366 138.302 214.995 139.754C213.873 144.158 213.012 149.885 215.277 152.151L215.3 152.174L223.778 154.909Z" fill="#FFC700"/>
</g>
<defs>
<clipPath id="clip0_196_124">
<rect width="291.509" height="257" fill="white"/>
</clipPath>
</defs>
</svg>
