<svg width="29" height="17" viewBox="0 0 29 17" fill="none" xmlns="http://www.w3.org/2000/svg">
<g clip-path="url(#clip0_157_175)">
<path fill-rule="evenodd" clip-rule="evenodd" d="M3.15535 0H29V14.4975H27.1733L27.3008 3.85995V3.73351C27.3008 3.28217 27.1236 2.84928 26.8081 2.52991C26.4926 2.21054 26.0646 2.0308 25.6181 2.03017H3.15064V0H3.15535ZM0 3.44008H25.8446V17H0V3.44008Z" fill="white"/>
<path fill-rule="evenodd" clip-rule="evenodd" d="M21.6462 5.54639C21.6562 6.05185 21.8576 6.53421 22.2088 6.89413C22.56 7.25405 23.0344 7.46414 23.5343 7.48113V12.8464C23.2667 12.8467 23.0019 12.9009 22.7554 13.0061C22.5088 13.1112 22.2856 13.2651 22.0987 13.4587C21.9118 13.6522 21.7651 13.8816 21.6671 14.1333C21.5692 14.385 21.522 14.6539 21.5282 14.9243H4.34725C4.35502 14.4021 4.16035 13.8976 3.80487 13.5186C3.44939 13.1397 2.96132 12.9164 2.44507 12.8965V7.53123C2.97192 7.53696 3.4795 7.3312 3.85646 6.9591C4.23342 6.587 4.44897 6.07894 4.45581 5.54639H21.6462Z" fill="#FFC700"/>
<path fill-rule="evenodd" clip-rule="evenodd" d="M9.50621 8.39254C9.87401 7.69456 10.4383 7.1225 11.1277 6.74872C11.8172 6.37494 12.6008 6.21622 13.3795 6.29264C14.1582 6.36906 14.8969 6.67719 15.5024 7.17805C16.1078 7.67891 16.5527 8.35001 16.7808 9.10648C17.0089 9.86294 17.01 10.6708 16.7838 11.4279C16.5577 12.185 16.1146 12.8572 15.5105 13.3597C14.9063 13.8622 14.1684 14.1723 13.3899 14.2508C12.6114 14.3293 11.8274 14.1727 11.137 13.8008C10.6784 13.5541 10.2725 13.2185 9.94229 12.8131C9.61212 12.4077 9.36422 11.9406 9.21277 11.4383C9.06132 10.936 9.00928 10.4085 9.05963 9.8859C9.10998 9.36329 9.26173 8.85583 9.50621 8.39254Z" fill="white"/>
<path d="M13.032 13.2118C12.9835 13.2125 12.9353 13.2033 12.8903 13.1848C12.8454 13.1663 12.8045 13.1389 12.7702 13.1042C12.7359 13.0696 12.7088 13.0283 12.6905 12.9828C12.6723 12.9374 12.6632 12.8887 12.6638 12.8397V12.477C12.4507 12.4649 12.2399 12.4264 12.036 12.3625C11.8786 12.3096 11.7255 12.2442 11.5782 12.1669C11.5279 12.145 11.4828 12.1123 11.4462 12.0711C11.4095 12.0299 11.3821 11.9812 11.3658 11.9283C11.3378 11.8285 11.3428 11.7221 11.38 11.6254C11.4168 11.533 11.4867 11.458 11.5758 11.4154C11.6287 11.3947 11.6855 11.3865 11.742 11.3915C11.7984 11.3964 11.853 11.4144 11.9015 11.4441C12.0325 11.5111 12.1691 11.5662 12.3098 11.6087C12.5185 11.6684 12.7349 11.6965 12.9517 11.6922C13.1599 11.7105 13.3686 11.663 13.5488 11.5562C13.6039 11.5179 13.6488 11.4666 13.6797 11.4067C13.7105 11.3468 13.7264 11.2802 13.7258 11.2127C13.7268 11.1602 13.7163 11.1082 13.6951 11.0604C13.6739 11.0126 13.6425 10.97 13.6031 10.9359C13.4736 10.8406 13.3228 10.7791 13.1641 10.757L12.4939 10.6091C11.7528 10.45 11.3823 10.0524 11.3823 9.41628C11.3792 9.25372 11.4085 9.0922 11.4685 8.94136C11.5285 8.79052 11.618 8.65346 11.7316 8.53836C11.9854 8.28974 12.3129 8.13218 12.6638 8.08987V7.70339C12.663 7.65487 12.6718 7.60667 12.6896 7.56161C12.7074 7.51655 12.734 7.47554 12.7677 7.44097C12.8021 7.40578 12.8434 7.3781 12.8888 7.35964C12.9343 7.34118 12.983 7.33232 13.032 7.33362C13.0795 7.33249 13.1268 7.34146 13.1707 7.35995C13.2146 7.37844 13.2542 7.40605 13.2869 7.44097C13.3206 7.47554 13.3471 7.51655 13.3649 7.56161C13.3828 7.60667 13.3915 7.65487 13.3907 7.70339V8.07317C13.5511 8.09456 13.7092 8.13131 13.8627 8.18291C14.0133 8.23247 14.1563 8.30314 14.2875 8.39284C14.3316 8.41853 14.3702 8.45287 14.401 8.49384C14.4318 8.5348 14.4542 8.58157 14.4669 8.6314C14.4885 8.72346 14.4785 8.82019 14.4386 8.90575C14.4195 8.94803 14.392 8.98592 14.3579 9.01709C14.3239 9.04827 14.2838 9.07208 14.2403 9.08706C14.1848 9.10333 14.1265 9.1077 14.0692 9.0999C14.0119 9.09209 13.9568 9.07228 13.9075 9.04173C13.7927 8.98461 13.6725 8.93906 13.5488 8.90575C13.3946 8.8663 13.2359 8.84785 13.0768 8.85088C12.881 8.83887 12.6866 8.89072 12.5222 8.99879C12.4598 9.04034 12.4088 9.09707 12.3737 9.16376C12.3387 9.23045 12.3207 9.30498 12.3216 9.38049C12.3202 9.43216 12.3301 9.48352 12.3504 9.53092C12.3708 9.57833 12.4013 9.62063 12.4396 9.65484C12.5631 9.74617 12.7063 9.80666 12.8573 9.83138L13.5347 9.97929C13.8559 10.0315 14.1547 10.1783 14.3937 10.4015C14.4863 10.5018 14.5584 10.6196 14.6058 10.7482C14.6532 10.8768 14.675 11.0135 14.6698 11.1506C14.675 11.3113 14.6465 11.4713 14.5864 11.6201C14.5262 11.7689 14.4356 11.9032 14.3206 12.0142C14.0666 12.2499 13.7483 12.4028 13.4072 12.4532V12.8397C13.4082 12.8882 13.3995 12.9364 13.3816 12.9815C13.3638 13.0266 13.3372 13.0676 13.3034 13.1021C13.2708 13.1373 13.2313 13.1653 13.1874 13.1842C13.1435 13.2031 13.0962 13.2125 13.0485 13.2118H13.032Z" fill="#FFC700"/>
</g>
<defs>
<clipPath id="clip0_157_175">
<rect width="29" height="17" fill="white"/>
</clipPath>
</defs>
</svg>
