<?xml version="1.0" standalone="no"?>
<!DOCTYPE svg PUBLIC "-//W3C//DTD SVG 20010904//EN"
 "http://www.w3.org/TR/2001/REC-SVG-20010904/DTD/svg10.dtd">
<svg version="1.0" xmlns="http://www.w3.org/2000/svg"
 width="512.000000pt" height="512.000000pt" viewBox="0 0 512.000000 512.000000"
 preserveAspectRatio="xMidYMid meet">

<g transform="translate(0.000000,512.000000) scale(0.100000,-0.100000)"
fill="#000000" stroke="none">
<path d="M449 4806 c-100 -27 -193 -106 -244 -206 -47 -93 -55 -158 -55 -482
l0 -298 2411 0 2410 0 -3 318 -3 317 -32 68 c-64 135 -215 249 -372 283 -46 9
-139 14 -308 14 l-243 0 0 -227 c0 -126 -5 -244 -10 -263 -5 -20 -25 -51 -45
-70 -28 -27 -44 -34 -87 -38 -44 -3 -59 0 -87 20 -76 52 -76 51 -79 329 l-4
249 -1199 0 -1199 0 0 -217 c-1 -261 -6 -294 -53 -340 -65 -66 -181 -53 -230
26 -21 34 -22 48 -25 284 l-3 247 -247 -1 c-162 0 -263 -5 -293 -13z"/>
<path d="M152 2073 l3 -1438 26 -66 c49 -127 127 -206 243 -246 48 -17 154
-18 2096 -18 l2045 0 67 23 c136 47 254 146 311 262 l32 65 3 1427 2 1428
-2415 0 -2415 0 2 -1437z m1407 864 c13 -6 34 -25 45 -40 19 -26 21 -44 24
-232 3 -186 2 -208 -16 -249 -35 -79 -44 -81 -298 -81 -315 0 -304 -12 -304
308 0 319 -13 306 305 306 155 1 227 -3 244 -12z m1190 0 c13 -6 34 -25 45
-40 19 -26 21 -44 24 -235 4 -230 -3 -270 -51 -306 -27 -20 -41 -21 -257 -21
-322 0 -310 -13 -310 308 0 319 -13 306 305 306 155 1 227 -3 244 -12z m1211
-2 c55 -29 60 -52 60 -295 0 -321 16 -305 -309 -305 -220 0 -227 1 -258 23
-46 33 -53 70 -53 290 0 210 6 242 55 280 27 21 37 22 252 22 181 0 230 -3
253 -15z m-2383 -1363 c46 -33 53 -70 53 -285 0 -204 -6 -232 -54 -277 -27
-25 -28 -25 -252 -28 -213 -3 -227 -2 -258 18 -54 33 -57 52 -54 303 3 223 3
226 27 251 14 15 39 31 55 36 17 5 126 8 241 7 201 -2 211 -3 242 -25z m1184
5 c50 -34 54 -53 54 -286 0 -119 -3 -229 -8 -244 -4 -15 -22 -36 -40 -47 -29
-18 -51 -20 -255 -20 -328 0 -314 -14 -310 320 3 227 3 229 27 254 14 15 39
31 55 36 17 5 126 8 241 7 182 -2 213 -4 236 -20z m1170 13 c19 -6 46 -22 60
-36 l24 -26 0 -244 0 -244 -28 -27 -27 -28 -244 0 -244 0 -26 24 c-42 40 -48
79 -44 303 4 292 -1 287 303 287 105 1 206 -4 226 -9z"/>
</g>
</svg>
