<?xml version="1.0" standalone="no"?>
<!DOCTYPE svg PUBLIC "-//W3C//DTD SVG 20010904//EN"
 "http://www.w3.org/TR/2001/REC-SVG-20010904/DTD/svg10.dtd">
<svg version="1.0" xmlns="http://www.w3.org/2000/svg"
 width="512.000000pt" height="512.000000pt" viewBox="0 0 512.000000 512.000000"
 preserveAspectRatio="xMidYMid meet">

<g transform="translate(0.000000,512.000000) scale(0.100000,-0.100000)"
fill="#000000" stroke="none">
<path d="M2420 5114 c-506 -64 -914 -366 -1111 -823 -133 -309 -143 -693 -25
-1004 116 -307 359 -586 634 -726 l42 -21 0 -963 c0 -898 1 -964 18 -994 28
-51 469 -536 510 -560 20 -13 53 -23 72 -23 19 0 52 10 72 23 40 24 482 508
511 560 16 28 17 55 15 228 l-3 195 -76 106 -77 105 69 81 c38 44 73 92 79
107 5 14 10 107 10 206 0 205 3 195 -91 321 -33 45 -58 87 -55 94 3 7 29 46
59 86 87 118 87 118 87 282 l0 144 68 37 c225 123 426 334 547 575 178 354
192 779 36 1141 -180 417 -552 718 -994 804 -80 16 -328 28 -397 19z m401
-327 c372 -96 665 -389 767 -766 23 -85 26 -115 26 -261 0 -146 -3 -176 -27
-262 -84 -313 -291 -563 -580 -698 -87 -41 -119 -67 -136 -113 -6 -16 -11
-100 -11 -192 l0 -164 -90 -126 c-93 -132 -110 -173 -93 -229 5 -17 49 -84 96
-148 l87 -118 0 -99 0 -99 -82 -97 c-156 -181 -156 -188 -8 -390 l90 -122 0
-99 -1 -99 -144 -160 c-79 -88 -149 -160 -155 -160 -6 0 -76 72 -155 160
l-144 160 -1 977 c0 667 -3 986 -11 1005 -17 46 -49 72 -136 113 -289 135
-496 385 -580 698 -24 86 -27 116 -27 262 0 146 3 176 26 261 52 191 140 344
282 485 167 168 362 267 592 304 102 16 307 4 415 -23z"/>
<path d="M2455 4506 c-84 -21 -147 -57 -211 -121 -177 -176 -177 -453 1 -630
258 -259 695 -118 757 244 24 141 -22 281 -127 387 -112 113 -269 158 -420
120z m175 -306 c45 -23 80 -80 80 -130 0 -76 -74 -150 -151 -150 -46 0 -108
39 -130 82 -37 72 -14 151 57 194 48 29 92 30 144 4z"/>
</g>
</svg>
