<svg width="148" height="33" viewBox="0 0 148 33" fill="none" xmlns="http://www.w3.org/2000/svg">
<path d="M22.416 19.0811V20.2871C20.3379 22.6003 18.4268 24.5052 16.6826 26.002C14.9508 27.5111 13.2562 28.6676 11.5986 29.4717C9.94108 30.2881 8.33919 30.6963 6.79297 30.6963C5.45703 30.6963 4.30664 30.4303 3.3418 29.8984C2.38932 29.3665 1.66569 28.5872 1.1709 27.5605C0.688477 26.5462 0.447266 25.3402 0.447266 23.9424C0.447266 22.8415 0.620443 21.6787 0.966797 20.4541C1.32552 19.2171 1.83887 17.974 2.50684 16.7246C3.1748 15.4629 3.99121 14.1641 4.95605 12.8281C5.93327 11.4922 7.07747 10.0882 8.38867 8.61621C9.74935 7.09473 11.0915 5.78353 12.415 4.68262C13.7386 3.56934 14.9385 2.69727 16.0146 2.06641C17.0908 1.43555 18.0866 0.965495 19.002 0.65625C19.9297 0.347005 20.6966 0.192383 21.3027 0.192383C21.9212 0.192383 22.4469 0.34082 22.8799 0.637695C23.3128 0.93457 23.6468 1.36751 23.8818 1.93652C24.1169 2.50553 24.2344 3.16113 24.2344 3.90332C24.2344 5.30111 23.7581 6.8597 22.8057 8.5791C21.8532 10.2861 20.6657 11.9375 19.2432 13.5332C17.8206 15.1289 16.46 16.4339 15.1611 17.4482C13.8747 18.4502 12.9469 18.9512 12.3779 18.9512C11.9945 18.9512 11.6357 18.8027 11.3018 18.5059C10.9801 18.1966 10.8193 17.8503 10.8193 17.4668C10.8193 16.7617 11.1904 15.9082 11.9326 14.9062C12.6872 13.9043 13.5036 12.9889 14.3818 12.1602C15.2725 11.319 15.8044 10.8984 15.9775 10.8984C16.0641 10.8984 16.1074 10.9355 16.1074 11.0098C16.1074 11.1211 16.0394 11.3128 15.9033 11.585C15.7796 11.8571 15.7178 12.0241 15.7178 12.0859C15.7178 12.1849 15.7549 12.2344 15.8291 12.2344C16.0394 12.2344 16.6455 11.6715 17.6475 10.5459C18.6494 9.42025 19.5648 8.18327 20.3936 6.83496C21.2347 5.47428 21.6553 4.361 21.6553 3.49512C21.6553 3.13639 21.5749 2.86426 21.4141 2.67871C21.2656 2.48079 21.0368 2.38184 20.7275 2.38184C19.8617 2.38184 18.5443 3.08691 16.7754 4.49707C15.0189 5.89486 13.2129 7.68229 11.3574 9.85938C9.51432 12.0241 7.97428 14.263 6.7373 16.5762C5.50033 18.8893 4.88184 20.9242 4.88184 22.6807C4.88184 23.695 5.03027 24.5423 5.32715 25.2227C5.63639 25.903 6.08171 26.4287 6.66309 26.7998C7.25684 27.1709 7.9681 27.3564 8.79688 27.3564C10.5905 27.3564 12.6253 26.6576 14.9014 25.2598C17.1774 23.862 19.6823 21.8024 22.416 19.0811ZM36.1465 19.1553V20.3242C35.0703 21.4251 34.1364 22.3281 33.3447 23.0332C32.5654 23.7259 31.8789 24.2516 31.2852 24.6104C30.7038 24.9691 30.209 25.1484 29.8008 25.1484C28.8359 25.1484 28.3535 24.5794 28.3535 23.4414C28.3535 22.526 28.6504 21.4684 29.2441 20.2686C29.8503 19.0563 30.7161 17.6338 31.8418 16.001C31.2852 16.3102 30.7594 16.6689 30.2646 17.0771C29.7699 17.473 29.3307 17.8936 28.9473 18.3389C28.5638 18.7718 28.2422 19.1429 27.9824 19.4521C27.1784 20.3551 26.4053 21.2829 25.6631 22.2354C24.9209 23.1755 24.4199 23.7878 24.1602 24.0723C23.9004 24.3568 23.653 24.499 23.418 24.499C22.4531 24.499 21.9707 23.3115 21.9707 20.9365C21.9707 20.1572 22.0882 19.2975 22.3232 18.3574C22.5583 17.4173 23.1891 16.1742 24.2158 14.6279C26.3805 11.387 28.2298 8.73991 29.7637 6.68652C31.3099 4.62077 32.5902 3.06217 33.6045 2.01074C34.6188 0.94694 35.2992 0.427409 35.6455 0.452148C36.0785 0.489258 36.4248 0.575846 36.6846 0.711914C36.9567 0.847982 37.0928 1.0026 37.0928 1.17578C37.0928 1.48503 36.8763 1.99837 36.4434 2.71582C36.0228 3.4209 35.293 4.52799 34.2539 6.03711C33.1283 7.63281 32.3304 8.75846 31.8604 9.41406C31.3903 10.0573 30.6852 10.9788 29.7451 12.1787C28.8174 13.3662 27.9639 14.43 27.1846 15.3701C26.4176 16.2979 25.5394 17.306 24.5498 18.3945V20.6211C26.2074 18.778 27.6423 17.2689 28.8545 16.0938C30.0667 14.9186 31.0934 14.0342 31.9346 13.4404C32.7757 12.8343 33.3942 12.5312 33.79 12.5312C34.1611 12.5312 34.5075 12.7539 34.8291 13.1992C35.1507 13.6322 35.3115 13.9909 35.3115 14.2754C35.3115 14.3991 35.2497 14.5537 35.126 14.7393C34.2354 15.8031 33.5241 16.6875 32.9922 17.3926C32.4727 18.0853 32.0706 18.71 31.7861 19.2666C31.5016 19.8109 31.3594 20.2809 31.3594 20.6768C31.3594 21.2581 31.6377 21.5488 32.1943 21.5488C32.7881 21.5488 34.1055 20.751 36.1465 19.1553ZM48.0771 19.1182V20.3613C47.2607 21.1035 46.6051 21.5983 46.1104 21.8457C45.6156 22.0931 44.9043 22.1921 43.9766 22.1426C42.3685 24.0475 40.9521 25 39.7275 25C39.0348 25 38.404 24.7712 37.835 24.3135C37.266 23.8558 36.8083 23.2311 36.4619 22.4395C36.1279 21.6478 35.9609 20.7633 35.9609 19.7861C35.9609 18.9945 36.2207 18.1162 36.7402 17.1514C37.2721 16.1865 37.9525 15.2897 38.7812 14.4609C39.6224 13.6198 40.5192 12.9456 41.4717 12.4385C42.4242 11.9189 43.3086 11.6592 44.125 11.6592C44.7064 11.6592 45.1641 11.752 45.498 11.9375C45.832 12.1107 45.999 12.3581 45.999 12.6797C45.999 12.9271 45.8568 13.2116 45.5723 13.5332C46.0423 13.6322 46.3639 13.7992 46.5371 14.0342C46.7103 14.2568 46.7969 14.6712 46.7969 15.2773C46.7969 15.8711 46.6546 16.6195 46.3701 17.5225C46.098 18.4255 45.7207 19.2728 45.2383 20.0645L45.5723 20.3984H45.8506C46.0609 20.3984 46.265 20.349 46.4629 20.25C46.6732 20.1387 46.8587 20.0273 47.0195 19.916C47.1803 19.7923 47.5329 19.5264 48.0771 19.1182ZM44.2549 14.2383C43.2282 14.8568 42.3499 15.4196 41.6201 15.9268C40.8903 16.4215 40.2718 16.9287 39.7646 17.4482C39.2575 17.9554 38.9173 18.4688 38.7441 18.9883C38.4349 20.3737 38.2803 21.1221 38.2803 21.2334C38.2803 22.0498 38.8493 22.458 39.9873 22.458C40.5192 22.458 41.4098 22.0003 42.6592 21.085C42.4489 20.5036 42.3438 19.9469 42.3438 19.415C42.3438 18.6357 42.5046 17.8441 42.8262 17.04C43.1478 16.2236 43.624 15.2897 44.2549 14.2383ZM47.8359 20.7139V19.415C49.5677 17.5348 51.0583 15.766 52.3076 14.1084C53.5693 12.4508 54.5651 11.1335 55.2949 10.1562C56.0247 9.17904 56.668 8.49251 57.2246 8.09668C57.7812 7.68848 58.4801 7.48438 59.3213 7.48438C59.7419 7.48438 59.9521 7.64518 59.9521 7.9668C59.9521 8.22656 59.779 8.61003 59.4326 9.11719C59.0986 9.62435 58.6657 10.1439 58.1338 10.6758C57.4287 11.3685 56.736 12.2406 56.0557 13.292C55.3877 14.3311 54.627 15.6608 53.7734 17.2812C54.4414 16.7617 55.2083 16.1494 56.0742 15.4443C56.9525 14.7269 57.6637 14.1702 58.208 13.7744C58.7646 13.3662 59.3089 13.0446 59.8408 12.8096C60.3851 12.5745 60.9294 12.457 61.4736 12.457C61.82 12.457 62.0426 12.5189 62.1416 12.6426C62.2529 12.7663 62.3086 13.0075 62.3086 13.3662C62.3086 14.3063 62.0798 15.2279 61.6221 16.1309C61.1644 17.0215 60.5088 17.9492 59.6553 18.9141C58.8018 19.8789 57.7503 20.9303 56.501 22.0684C56.9339 22.2292 57.3792 22.3096 57.8369 22.3096C59.2718 22.3096 61.1953 21.2148 63.6074 19.0254V20.3613C62.6673 21.2025 61.7458 21.9941 60.8428 22.7363C59.9521 23.4785 59.111 24.0723 58.3193 24.5176C57.5277 24.9629 56.7979 25.1855 56.1299 25.1855C55.8825 25.1855 55.6165 25.1546 55.332 25.0928C55.0599 25.0433 54.8063 24.9814 54.5713 24.9072C54.3363 24.8206 54.0332 24.7031 53.6621 24.5547C53.291 24.4062 53.0065 24.3011 52.8086 24.2393C52.4128 24.3382 52.1901 24.3877 52.1406 24.3877C51.7077 24.3877 51.2005 24.2145 50.6191 23.8682C50.2109 24.6598 49.7594 25.6803 49.2646 26.9297C48.7822 28.1914 48.374 29.1934 48.04 29.9355C47.7061 30.6777 47.2607 31.389 46.7041 32.0693C46.3949 32.3786 46.1784 32.5332 46.0547 32.5332C45.5228 32.5332 45.2568 32.0632 45.2568 31.123C45.2568 30.3066 45.4238 29.4531 45.7578 28.5625C46.0794 27.6842 46.4814 26.8493 46.9639 26.0576C47.4339 25.266 47.9535 24.4681 48.5225 23.6641C49.0915 22.8477 49.4935 22.2415 49.7285 21.8457C51.6829 18.4811 53.2044 15.6175 54.293 13.2549C51.4479 16.7184 49.2956 19.2048 47.8359 20.7139ZM55.3691 21.623C56.5938 20.3366 57.5029 19.2419 58.0967 18.3389C58.7028 17.4359 59.0059 16.7432 59.0059 16.2607C59.0059 15.8031 58.777 15.5742 58.3193 15.5742C57.7008 15.5742 56.8288 16.0876 55.7031 17.1143C54.5898 18.1286 53.4395 19.5016 52.252 21.2334C53.1673 21.1344 53.7796 21.1035 54.0889 21.1406C54.3981 21.1654 54.8249 21.3262 55.3691 21.623ZM75.9648 14.0898C76.3854 13.9909 76.639 13.9414 76.7256 13.9414C76.8122 13.929 77.14 13.9785 77.709 14.0898C77.9069 14.1146 78.0677 14.1393 78.1914 14.1641C78.3275 14.1888 78.445 14.2259 78.5439 14.2754C78.6553 14.3125 78.7109 14.3558 78.7109 14.4053C78.7109 14.5166 78.377 14.8568 77.709 15.4258C77.041 15.9824 76.373 16.3473 75.7051 16.5205C75.2845 16.6566 74.5299 16.7741 73.4414 16.873C72.3529 16.972 71.1406 17.0215 69.8047 17.0215C69.0996 17.0215 68.5677 16.9967 68.209 16.9473C67.8626 16.8854 67.6895 16.7555 67.6895 16.5576C67.6895 16.4587 67.776 16.2793 67.9492 16.0195C68.1348 15.7474 68.376 15.4629 68.6729 15.166C69.5016 14.3249 71.0231 13.9043 73.2373 13.9043C73.6084 13.9043 74.5176 13.9661 75.9648 14.0898ZM105.986 19.0811V20.2871C103.908 22.6003 101.997 24.5052 100.253 26.002C98.5212 27.5111 96.8265 28.6676 95.1689 29.4717C93.5114 30.2881 91.9095 30.6963 90.3633 30.6963C89.0273 30.6963 87.877 30.4303 86.9121 29.8984C85.9596 29.3665 85.236 28.5872 84.7412 27.5605C84.2588 26.5462 84.0176 25.3402 84.0176 23.9424C84.0176 22.8415 84.1908 21.6787 84.5371 20.4541C84.8958 19.2171 85.4092 17.974 86.0771 16.7246C86.7451 15.4629 87.5615 14.1641 88.5264 12.8281C89.5036 11.4922 90.6478 10.0882 91.959 8.61621C93.3197 7.09473 94.6618 5.78353 95.9854 4.68262C97.3089 3.56934 98.5088 2.69727 99.585 2.06641C100.661 1.43555 101.657 0.965495 102.572 0.65625C103.5 0.347005 104.267 0.192383 104.873 0.192383C105.492 0.192383 106.017 0.34082 106.45 0.637695C106.883 0.93457 107.217 1.36751 107.452 1.93652C107.687 2.50553 107.805 3.16113 107.805 3.90332C107.805 5.30111 107.328 6.8597 106.376 8.5791C105.424 10.2861 104.236 11.9375 102.813 13.5332C101.391 15.1289 100.03 16.4339 98.7314 17.4482C97.445 18.4502 96.5173 18.9512 95.9482 18.9512C95.5648 18.9512 95.2061 18.8027 94.8721 18.5059C94.5505 18.1966 94.3896 17.8503 94.3896 17.4668C94.3896 16.7617 94.7607 15.9082 95.5029 14.9062C96.2575 13.9043 97.0739 12.9889 97.9521 12.1602C98.8428 11.319 99.3747 10.8984 99.5479 10.8984C99.6344 10.8984 99.6777 10.9355 99.6777 11.0098C99.6777 11.1211 99.6097 11.3128 99.4736 11.585C99.3499 11.8571 99.2881 12.0241 99.2881 12.0859C99.2881 12.1849 99.3252 12.2344 99.3994 12.2344C99.6097 12.2344 100.216 11.6715 101.218 10.5459C102.22 9.42025 103.135 8.18327 103.964 6.83496C104.805 5.47428 105.226 4.361 105.226 3.49512C105.226 3.13639 105.145 2.86426 104.984 2.67871C104.836 2.48079 104.607 2.38184 104.298 2.38184C103.432 2.38184 102.115 3.08691 100.346 4.49707C98.5892 5.89486 96.7832 7.68229 94.9277 9.85938C93.0846 12.0241 91.5446 14.263 90.3076 16.5762C89.0706 18.8893 88.4521 20.9242 88.4521 22.6807C88.4521 23.695 88.6006 24.5423 88.8975 25.2227C89.2067 25.903 89.652 26.4287 90.2334 26.7998C90.8271 27.1709 91.5384 27.3564 92.3672 27.3564C94.1608 27.3564 96.1956 26.6576 98.4717 25.2598C100.748 23.862 103.253 21.8024 105.986 19.0811ZM119.717 19.1553V20.3242C118.641 21.4251 117.707 22.3281 116.915 23.0332C116.136 23.7259 115.449 24.2516 114.855 24.6104C114.274 24.9691 113.779 25.1484 113.371 25.1484C112.406 25.1484 111.924 24.5794 111.924 23.4414C111.924 22.526 112.221 21.4684 112.814 20.2686C113.421 19.0563 114.286 17.6338 115.412 16.001C114.855 16.3102 114.33 16.6689 113.835 17.0771C113.34 17.473 112.901 17.8936 112.518 18.3389C112.134 18.7718 111.812 19.1429 111.553 19.4521C110.749 20.3551 109.976 21.2829 109.233 22.2354C108.491 23.1755 107.99 23.7878 107.73 24.0723C107.471 24.3568 107.223 24.499 106.988 24.499C106.023 24.499 105.541 23.3115 105.541 20.9365C105.541 20.1572 105.659 19.2975 105.894 18.3574C106.129 17.4173 106.759 16.1742 107.786 14.6279C109.951 11.387 111.8 8.73991 113.334 6.68652C114.88 4.62077 116.16 3.06217 117.175 2.01074C118.189 0.94694 118.869 0.427409 119.216 0.452148C119.649 0.489258 119.995 0.575846 120.255 0.711914C120.527 0.847982 120.663 1.0026 120.663 1.17578C120.663 1.48503 120.447 1.99837 120.014 2.71582C119.593 3.4209 118.863 4.52799 117.824 6.03711C116.699 7.63281 115.901 8.75846 115.431 9.41406C114.961 10.0573 114.256 10.9788 113.315 12.1787C112.388 13.3662 111.534 14.43 110.755 15.3701C109.988 16.2979 109.11 17.306 108.12 18.3945V20.6211C109.778 18.778 111.213 17.2689 112.425 16.0938C113.637 14.9186 114.664 14.0342 115.505 13.4404C116.346 12.8343 116.965 12.5312 117.36 12.5312C117.731 12.5312 118.078 12.7539 118.399 13.1992C118.721 13.6322 118.882 13.9909 118.882 14.2754C118.882 14.3991 118.82 14.5537 118.696 14.7393C117.806 15.8031 117.094 16.6875 116.562 17.3926C116.043 18.0853 115.641 18.71 115.356 19.2666C115.072 19.8109 114.93 20.2809 114.93 20.6768C114.93 21.2581 115.208 21.5488 115.765 21.5488C116.358 21.5488 117.676 20.751 119.717 19.1553ZM131.647 19.1182V20.3613C130.831 21.1035 130.175 21.5983 129.681 21.8457C129.186 22.0931 128.475 22.1921 127.547 22.1426C125.939 24.0475 124.522 25 123.298 25C122.605 25 121.974 24.7712 121.405 24.3135C120.836 23.8558 120.379 23.2311 120.032 22.4395C119.698 21.6478 119.531 20.7633 119.531 19.7861C119.531 18.9945 119.791 18.1162 120.311 17.1514C120.842 16.1865 121.523 15.2897 122.352 14.4609C123.193 13.6198 124.09 12.9456 125.042 12.4385C125.994 11.9189 126.879 11.6592 127.695 11.6592C128.277 11.6592 128.734 11.752 129.068 11.9375C129.402 12.1107 129.569 12.3581 129.569 12.6797C129.569 12.9271 129.427 13.2116 129.143 13.5332C129.613 13.6322 129.934 13.7992 130.107 14.0342C130.281 14.2568 130.367 14.6712 130.367 15.2773C130.367 15.8711 130.225 16.6195 129.94 17.5225C129.668 18.4255 129.291 19.2728 128.809 20.0645L129.143 20.3984H129.421C129.631 20.3984 129.835 20.349 130.033 20.25C130.243 20.1387 130.429 20.0273 130.59 19.916C130.751 19.7923 131.103 19.5264 131.647 19.1182ZM127.825 14.2383C126.799 14.8568 125.92 15.4196 125.19 15.9268C124.461 16.4215 123.842 16.9287 123.335 17.4482C122.828 17.9554 122.488 18.4688 122.314 18.9883C122.005 20.3737 121.851 21.1221 121.851 21.2334C121.851 22.0498 122.42 22.458 123.558 22.458C124.09 22.458 124.98 22.0003 126.229 21.085C126.019 20.5036 125.914 19.9469 125.914 19.415C125.914 18.6357 126.075 17.8441 126.396 17.04C126.718 16.2236 127.194 15.2897 127.825 14.2383ZM131.406 20.7139V19.415C133.138 17.5348 134.629 15.766 135.878 14.1084C137.14 12.4508 138.135 11.1335 138.865 10.1562C139.595 9.17904 140.238 8.49251 140.795 8.09668C141.352 7.68848 142.05 7.48438 142.892 7.48438C143.312 7.48438 143.522 7.64518 143.522 7.9668C143.522 8.22656 143.349 8.61003 143.003 9.11719C142.669 9.62435 142.236 10.1439 141.704 10.6758C140.999 11.3685 140.306 12.2406 139.626 13.292C138.958 14.3311 138.197 15.6608 137.344 17.2812C138.012 16.7617 138.779 16.1494 139.645 15.4443C140.523 14.7269 141.234 14.1702 141.778 13.7744C142.335 13.3662 142.879 13.0446 143.411 12.8096C143.955 12.5745 144.5 12.457 145.044 12.457C145.39 12.457 145.613 12.5189 145.712 12.6426C145.823 12.7663 145.879 13.0075 145.879 13.3662C145.879 14.3063 145.65 15.2279 145.192 16.1309C144.735 17.0215 144.079 17.9492 143.226 18.9141C142.372 19.8789 141.321 20.9303 140.071 22.0684C140.504 22.2292 140.95 22.3096 141.407 22.3096C142.842 22.3096 144.766 21.2148 147.178 19.0254V20.3613C146.238 21.2025 145.316 21.9941 144.413 22.7363C143.522 23.4785 142.681 24.0723 141.89 24.5176C141.098 24.9629 140.368 25.1855 139.7 25.1855C139.453 25.1855 139.187 25.1546 138.902 25.0928C138.63 25.0433 138.377 24.9814 138.142 24.9072C137.907 24.8206 137.604 24.7031 137.232 24.5547C136.861 24.4062 136.577 24.3011 136.379 24.2393C135.983 24.3382 135.76 24.3877 135.711 24.3877C135.278 24.3877 134.771 24.2145 134.189 23.8682C133.781 24.6598 133.33 25.6803 132.835 26.9297C132.353 28.1914 131.944 29.1934 131.61 29.9355C131.276 30.6777 130.831 31.389 130.274 32.0693C129.965 32.3786 129.749 32.5332 129.625 32.5332C129.093 32.5332 128.827 32.0632 128.827 31.123C128.827 30.3066 128.994 29.4531 129.328 28.5625C129.65 27.6842 130.052 26.8493 130.534 26.0576C131.004 25.266 131.524 24.4681 132.093 23.6641C132.662 22.8477 133.064 22.2415 133.299 21.8457C135.253 18.4811 136.775 15.6175 137.863 13.2549C135.018 16.7184 132.866 19.2048 131.406 20.7139ZM138.939 21.623C140.164 20.3366 141.073 19.2419 141.667 18.3389C142.273 17.4359 142.576 16.7432 142.576 16.2607C142.576 15.8031 142.347 15.5742 141.89 15.5742C141.271 15.5742 140.399 16.0876 139.273 17.1143C138.16 18.1286 137.01 19.5016 135.822 21.2334C136.738 21.1344 137.35 21.1035 137.659 21.1406C137.968 21.1654 138.395 21.3262 138.939 21.623Z" fill="#B70606"/>
</svg>
