<svg width="389" height="35" viewBox="0 0 389 35" fill="none" xmlns="http://www.w3.org/2000/svg">
<path d="M2.9668 8.69043C2.9668 8.77702 3.0472 8.82031 3.20801 8.82031C3.31934 8.82031 3.82031 8.74609 4.71094 8.59766C5.61393 8.44922 6.43034 8.36882 7.16016 8.35645C6.34375 8.5791 5.63867 8.80794 5.04492 9.04297C4.46354 9.26562 3.85742 9.51921 3.22656 9.80371C2.60807 10.0758 2.16276 10.2614 1.89062 10.3604C1.61849 10.4469 1.38346 10.4902 1.18555 10.4902C0.554688 10.4902 0.239258 10.082 0.239258 9.26562C0.239258 7.16276 0.771159 5.68457 1.83496 4.83105C2.2679 4.4847 2.96061 4.0765 3.91309 3.60645C4.87793 3.12402 5.96029 2.67253 7.16016 2.25195C8.3724 1.81901 9.70215 1.44792 11.1494 1.13867C12.5967 0.829427 14.0254 0.674805 15.4355 0.674805C16.8828 0.674805 18.2126 0.885091 19.4248 1.30566C20.637 1.72624 21.6514 2.31999 22.4678 3.08691C23.2842 3.84147 23.9089 4.76921 24.3418 5.87012C24.7871 6.97103 25.0098 8.20801 25.0098 9.58105C25.0098 11.6715 24.4036 13.7002 23.1914 15.667C21.9915 17.6338 20.3835 19.3717 18.3672 20.8809C16.3633 22.3776 14.0996 23.5651 11.5762 24.4434C9.05273 25.3216 6.56641 25.7607 4.11719 25.7607C3.65951 25.7607 3.2946 25.7113 3.02246 25.6123C2.7627 25.5133 2.57715 25.3154 2.46582 25.0186C2.35449 24.734 2.29883 24.3073 2.29883 23.7383C2.29883 23.0332 2.35449 22.458 2.46582 22.0127C2.57715 21.5674 2.7627 21.054 3.02246 20.4727C4.80371 16.5267 7.90234 11.5602 12.3184 5.57324C11.4277 5.6722 10.4505 5.86393 9.38672 6.14844C8.32292 6.42057 7.31478 6.72363 6.3623 7.05762C5.40983 7.3916 4.60579 7.71322 3.9502 8.02246C3.2946 8.33171 2.9668 8.55436 2.9668 8.69043ZM12.8564 5.46191C12.8564 5.48665 12.8812 5.62891 12.9307 5.88867C12.9801 6.13607 13.0049 6.35254 13.0049 6.53809C13.0049 6.82259 12.8564 7.22461 12.5596 7.74414C12.2751 8.2513 11.7061 9.16048 10.8525 10.4717C9.99902 11.7829 9.26921 12.9333 8.66309 13.9229C8.05697 14.9124 7.33952 16.1865 6.51074 17.7451C6.25098 18.2399 6.07161 18.5739 5.97266 18.7471C5.8737 18.9202 5.71289 19.2048 5.49023 19.6006C5.27995 19.9964 5.12533 20.3366 5.02637 20.6211C4.92741 20.9056 4.87793 21.1221 4.87793 21.2705C4.87793 21.5921 5.05111 21.821 5.39746 21.957C5.75618 22.0807 6.26335 22.1426 6.91895 22.1426C8.60124 22.1426 10.3825 21.8395 12.2627 21.2334C14.1429 20.6149 15.9056 19.7614 17.5508 18.6729C19.2083 17.5843 20.5319 16.3535 21.5215 14.9805C22.5111 13.6074 23.0059 12.1725 23.0059 10.6758C23.0059 8.96875 22.3812 7.65755 21.1318 6.74219C19.8825 5.81445 18.0641 5.35059 15.6768 5.35059C14.6748 5.35059 13.7347 5.3877 12.8564 5.46191ZM28.832 19.8232V20.2871C28.832 21.0169 29.0114 21.5859 29.3701 21.9941C29.7288 22.4023 30.1989 22.6064 30.7803 22.6064C31.3864 22.6064 32.0111 22.4642 32.6543 22.1797C33.3099 21.8952 33.9593 21.5179 34.6025 21.0479C35.2458 20.5778 36.0312 19.9469 36.959 19.1553V20.2871C35.5612 21.9694 34.25 23.262 33.0254 24.165C31.8008 25.0557 30.5576 25.501 29.2959 25.501C28.195 25.501 27.3229 25.0742 26.6797 24.2207C26.0365 23.3672 25.7148 22.1982 25.7148 20.7139C25.7148 19.415 26.0179 18.2399 26.624 17.1885C27.2301 16.1247 28.2197 15.0052 29.5928 13.8301C30.5329 13.026 31.4668 12.4199 32.3945 12.0117C33.3223 11.6035 34.151 11.3994 34.8809 11.3994C35.4622 11.3994 35.9199 11.5355 36.2539 11.8076C36.6003 12.0674 36.7734 12.4632 36.7734 12.9951C36.7734 13.7744 36.4827 14.5537 35.9014 15.333C35.32 16.0999 34.4294 16.8669 33.2295 17.6338C32.042 18.3883 30.5762 19.1182 28.832 19.8232ZM29.0176 18.6172C30.1309 18.1842 31.0833 17.6462 31.875 17.0029C32.6667 16.3597 33.248 15.7474 33.6191 15.166C34.0026 14.5723 34.1943 14.1393 34.1943 13.8672C34.1943 13.5827 34.0645 13.4404 33.8047 13.4404C33.582 13.4404 33.2171 13.5827 32.71 13.8672C32.2152 14.1517 31.708 14.5228 31.1885 14.9805C30.6813 15.4382 30.2236 15.9762 29.8154 16.5947C29.4072 17.2132 29.1413 17.8874 29.0176 18.6172ZM45.8281 18.9512V20.3242C43.2428 23.7507 41.14 25.4639 39.5195 25.4639C38.6413 25.4639 37.9486 24.9876 37.4414 24.0352C36.9466 23.0703 36.6992 21.8086 36.6992 20.25C36.6992 18.9883 36.9961 17.4915 37.5898 15.7598C38.1836 14.0156 38.9753 12.2529 39.9648 10.4717C40.9668 8.67806 41.9997 7.11947 43.0635 5.7959C44.1396 4.45996 45.1354 3.52604 46.0508 2.99414C46.4219 2.77148 46.7126 2.66016 46.9229 2.66016C47.1826 2.66016 47.3558 2.77767 47.4424 3.0127C47.529 3.23535 47.5723 3.625 47.5723 4.18164C47.5723 5.90104 46.8734 8.01628 45.4756 10.5273C44.0778 13.026 42.1296 15.5804 39.6309 18.1904C39.5072 18.8337 39.4453 19.3285 39.4453 19.6748C39.4453 20.4665 39.6123 21.1097 39.9463 21.6045C40.2926 22.0993 40.7689 22.3467 41.375 22.3467C41.6842 22.3467 42.0182 22.2292 42.377 21.9941C42.7357 21.7467 43.113 21.4437 43.5088 21.085C43.9046 20.7262 44.6777 20.015 45.8281 18.9512ZM40.2803 15.6113C40.9235 14.9805 41.542 14.263 42.1357 13.459C42.7419 12.6549 43.3109 11.7952 43.8428 10.8799C44.3747 9.96452 44.7891 9.14193 45.0859 8.41211C45.3952 7.68229 45.5498 7.13184 45.5498 6.76074C45.5498 6.47624 45.4508 6.33398 45.2529 6.33398C45.1787 6.33398 45.0365 6.40202 44.8262 6.53809C44.0716 7.15658 43.2243 8.36882 42.2842 10.1748C41.3441 11.9684 40.6761 13.7806 40.2803 15.6113ZM53.2871 10.8613C52.9779 10.8613 52.681 10.7438 52.3965 10.5088C52.1243 10.2738 51.9883 9.97689 51.9883 9.61816C51.9883 9.07389 52.248 8.46777 52.7676 7.7998C53.2871 7.13184 53.8252 6.79785 54.3818 6.79785C54.7529 6.79785 55.0622 6.91536 55.3096 7.15039C55.557 7.37305 55.6807 7.70085 55.6807 8.13379C55.6807 8.66569 55.4271 9.25326 54.9199 9.89648C54.4128 10.5397 53.8685 10.8613 53.2871 10.8613ZM54.5488 19.1553V20.5098C53.349 22.056 52.2295 23.2249 51.1904 24.0166C50.1514 24.7959 49.2669 25.1855 48.5371 25.1855C47.5228 25.1855 46.7682 24.6536 46.2734 23.5898C45.7786 22.526 45.5312 21.3633 45.5312 20.1016C45.5312 19.6191 45.5807 19.1615 45.6797 18.7285C45.7786 18.2832 45.8962 17.9183 46.0322 17.6338C46.1683 17.3493 46.4219 16.904 46.793 16.2979C48.5495 13.5641 50.1576 12.1973 51.6172 12.1973C52.3717 12.1973 52.749 12.488 52.749 13.0693C52.749 13.4652 52.5016 14.0837 52.0068 14.9248C51.5244 15.766 51.0915 16.3659 50.708 16.7246C49.6318 17.7637 48.9268 18.4873 48.5928 18.8955C48.2712 19.3037 48.1104 19.7676 48.1104 20.2871C48.1104 20.7324 48.2773 21.1035 48.6113 21.4004C48.9453 21.6973 49.3783 21.8457 49.9102 21.8457C50.4915 21.8457 51.1286 21.6354 51.8213 21.2148C52.5264 20.7819 53.4355 20.0954 54.5488 19.1553ZM56.8311 19.1924L56.4971 20.751C56.4476 20.9489 56.4229 21.1715 56.4229 21.4189C56.4229 22.0869 56.7012 22.4209 57.2578 22.4209C57.7897 22.4209 59.0824 21.3818 61.1357 19.3037C61.1481 18.4997 61.445 17.5719 62.0264 16.5205C62.6201 15.4691 63.2695 14.5475 63.9746 13.7559C64.6921 12.9642 65.224 12.5684 65.5703 12.5684C66.1146 12.5684 66.3867 12.9271 66.3867 13.6445C66.3867 14.0775 66.2816 14.6094 66.0713 15.2402C65.861 15.8587 65.5518 16.5329 65.1436 17.2627C64.7354 17.9801 64.2344 18.7223 63.6406 19.4893C63.9499 20.0459 64.2653 20.3242 64.5869 20.3242C64.859 20.3242 65.1559 20.2314 65.4775 20.0459C65.8115 19.848 66.2259 19.5511 66.7207 19.1553V20.3984C66.028 20.9427 65.4775 21.3138 65.0693 21.5117C64.6735 21.7096 64.1602 21.8086 63.5293 21.8086C63.2819 21.8086 62.8366 21.6416 62.1934 21.3076C60.9316 22.6436 59.9049 23.6455 59.1133 24.3135C58.3216 24.9691 57.6784 25.2969 57.1836 25.2969C56.3301 25.2969 55.6003 24.7897 54.9941 23.7754C54.4004 22.7487 54.1035 21.623 54.1035 20.3984C54.1035 18.7533 55.0312 16.7803 56.8867 14.4795C57.4434 13.7868 57.8887 13.3167 58.2227 13.0693C58.569 12.8096 58.9587 12.6797 59.3916 12.6797C59.7627 12.6797 60.1152 12.7477 60.4492 12.8838C60.7832 13.0199 60.9502 13.1807 60.9502 13.3662C60.9502 13.9847 60.5358 14.8939 59.707 16.0938C58.8783 17.2812 57.9196 18.3141 56.8311 19.1924ZM69.6523 19.8232V20.2871C69.6523 21.0169 69.8317 21.5859 70.1904 21.9941C70.5492 22.4023 71.0192 22.6064 71.6006 22.6064C72.2067 22.6064 72.8314 22.4642 73.4746 22.1797C74.1302 21.8952 74.7796 21.5179 75.4229 21.0479C76.0661 20.5778 76.8516 19.9469 77.7793 19.1553V20.2871C76.3815 21.9694 75.0703 23.262 73.8457 24.165C72.6211 25.0557 71.3779 25.501 70.1162 25.501C69.0153 25.501 68.1432 25.0742 67.5 24.2207C66.8568 23.3672 66.5352 22.1982 66.5352 20.7139C66.5352 19.415 66.8382 18.2399 67.4443 17.1885C68.0505 16.1247 69.04 15.0052 70.4131 13.8301C71.3532 13.026 72.2871 12.4199 73.2148 12.0117C74.1426 11.6035 74.9714 11.3994 75.7012 11.3994C76.2826 11.3994 76.7402 11.5355 77.0742 11.8076C77.4206 12.0674 77.5938 12.4632 77.5938 12.9951C77.5938 13.7744 77.3031 14.5537 76.7217 15.333C76.1403 16.0999 75.2497 16.8669 74.0498 17.6338C72.8623 18.3883 71.3965 19.1182 69.6523 19.8232ZM69.8379 18.6172C70.9512 18.1842 71.9036 17.6462 72.6953 17.0029C73.487 16.3597 74.0684 15.7474 74.4395 15.166C74.8229 14.5723 75.0146 14.1393 75.0146 13.8672C75.0146 13.5827 74.8848 13.4404 74.625 13.4404C74.4023 13.4404 74.0374 13.5827 73.5303 13.8672C73.0355 14.1517 72.5283 14.5228 72.0088 14.9805C71.5016 15.4382 71.0439 15.9762 70.6357 16.5947C70.2275 17.2132 69.9616 17.8874 69.8379 18.6172ZM77.5938 20.584V19.3779C78.2617 18.5863 78.7689 17.9121 79.1152 17.3555C78.7194 17.2194 78.4287 17.0524 78.2432 16.8545C78.07 16.6566 77.9834 16.3597 77.9834 15.9639C77.9834 15.5186 78.1689 14.9557 78.54 14.2754C78.9111 13.5951 79.3688 12.958 79.9131 12.3643C80.4574 11.7705 80.9521 11.387 81.3975 11.2139C81.5706 11.1273 81.7376 11.084 81.8984 11.084C82.1458 11.084 82.2695 11.2015 82.2695 11.4365C82.2695 11.6468 82.0778 12.0736 81.6943 12.7168C84.2425 12.321 85.8506 12.123 86.5186 12.123C86.7783 12.123 86.9577 12.1478 87.0566 12.1973C87.2669 12.3086 87.4401 12.5684 87.5762 12.9766C87.7122 13.3848 87.7803 13.793 87.7803 14.2012C87.7803 14.4609 87.6628 14.7454 87.4277 15.0547C87.2051 15.3516 86.8154 15.7907 86.2588 16.3721C85.6032 17.0771 85.0527 17.8441 84.6074 18.6729C84.1621 19.5016 83.9395 20.1263 83.9395 20.5469C83.9395 21.1283 84.2982 21.4189 85.0156 21.4189C85.7702 21.4189 87.0814 20.652 88.9492 19.1182V20.3613C87.9225 21.4375 87.0752 22.2848 86.4072 22.9033C85.7393 23.5218 85.1208 24.0166 84.5518 24.3877C83.9827 24.7464 83.4756 24.9258 83.0303 24.9258C82.5107 24.9258 82.0778 24.6908 81.7314 24.2207C81.3851 23.7383 81.2119 23.0456 81.2119 22.1426C81.2119 21.6107 81.348 21.0046 81.6201 20.3242C81.8923 19.6439 82.2881 18.9079 82.8076 18.1162C83.3395 17.3122 83.9333 16.5143 84.5889 15.7227C84.2425 15.7969 83.8529 15.8773 83.4199 15.9639C82.987 16.0381 82.5293 16.1185 82.0469 16.2051C81.5645 16.2917 81.1934 16.3597 80.9336 16.4092C80.1667 17.943 79.0534 19.3346 77.5938 20.584ZM111.586 15.7598H114.388C116.008 13.5827 117.239 11.6839 118.08 10.0635C118.934 8.44303 119.36 7.37923 119.36 6.87207C119.36 6.16699 118.754 5.81445 117.542 5.81445C116.837 5.8763 115.588 6.03092 113.794 6.27832C112 6.51335 110.262 6.79785 108.58 7.13184C107.071 7.41634 105.859 7.71322 104.943 8.02246C104.04 8.31934 103.403 8.56673 103.032 8.76465C102.661 8.96257 102.432 9.10482 102.346 9.19141C103.261 9.14193 104.034 9.11719 104.665 9.11719C105.655 9.11719 106.149 9.22852 106.149 9.45117C106.149 9.55013 105.803 9.68001 105.11 9.84082C104.418 9.98926 103.762 10.1501 103.144 10.3232C102.537 10.4964 101.944 10.7005 101.362 10.9355C100.793 11.1706 100.447 11.2881 100.323 11.2881C100.039 11.2881 99.8037 11.1829 99.6182 10.9727C99.4326 10.75 99.3398 10.484 99.3398 10.1748C99.3398 9.96452 99.5068 9.42025 99.8408 8.54199C100.187 7.65137 100.67 6.76074 101.288 5.87012C101.907 4.96712 102.674 4.29915 103.589 3.86621C103.923 3.7054 104.987 3.41471 106.78 2.99414C108.586 2.57357 110.621 2.1901 112.885 1.84375C115.148 1.4974 117.22 1.32422 119.101 1.32422C120.239 1.32422 121.148 1.48503 121.828 1.80664C122.521 2.11589 122.867 2.79004 122.867 3.8291C122.867 4.16309 122.743 4.68262 122.496 5.3877C122.249 6.0804 121.853 6.97103 121.309 8.05957C120.777 9.14811 120.121 10.3418 119.342 11.6406C118.575 12.9395 117.697 14.3125 116.707 15.7598H119.564L117.097 19.3037C116.763 19.3285 116.342 19.347 115.835 19.3594C115.34 19.3717 114.796 19.3903 114.202 19.415C112.681 21.3942 111.029 23.2559 109.248 25C107.479 26.7441 105.871 28.1419 104.424 29.1934C102.989 30.2448 101.981 30.7705 101.399 30.7705C101.164 30.7705 100.96 30.6901 100.787 30.5293C100.614 30.3809 100.527 30.1829 100.527 29.9355C100.527 29.7253 100.799 29.1872 101.344 28.3213C101.9 27.4554 102.667 26.6452 103.645 25.8906C104.622 25.1361 105.735 24.7155 106.984 24.6289C107.492 24.097 107.924 23.627 108.283 23.2188C108.654 22.7982 109.174 22.1982 109.842 21.4189C110.51 20.6273 111.023 20.0212 111.382 19.6006L105.797 19.8789C105.191 19.9036 104.77 19.8789 104.535 19.8047C104.312 19.7181 104.201 19.514 104.201 19.1924C104.201 19.1924 104.263 19.0378 104.387 18.7285C104.51 18.4069 104.64 18.1286 104.776 17.8936C104.974 17.5348 105.129 17.3184 105.24 17.2441C105.364 17.1699 105.704 17.071 106.261 16.9473L109.675 16.1123C110.59 15.8773 111.227 15.7598 111.586 15.7598ZM122.626 15.834C124.506 14.127 126.331 12.859 128.1 12.0303C129.868 11.2015 131.235 10.7871 132.2 10.7871C132.46 10.7871 132.701 10.8984 132.924 11.1211C133.146 11.3314 133.32 11.5788 133.443 11.8633C133.579 12.1478 133.647 12.3581 133.647 12.4941C133.647 12.7168 133.561 12.8838 133.388 12.9951C133.215 13.0941 132.911 13.2178 132.479 13.3662C132.565 13.5641 132.676 13.8177 132.812 14.127C132.949 14.4362 133.054 14.6898 133.128 14.8877C133.202 15.0732 133.239 15.2402 133.239 15.3887C133.239 15.6855 132.936 16.2422 132.33 17.0586C131.736 17.8626 131.316 18.4564 131.068 18.8398C130.833 19.2233 130.716 19.6934 130.716 20.25C130.716 21.1654 131.136 21.623 131.978 21.623C132.843 21.623 134.198 20.8128 136.041 19.1924V20.3242C132.911 23.8001 130.673 25.5381 129.324 25.5381C128.842 25.5381 128.495 25.3773 128.285 25.0557C128.087 24.7464 127.988 24.2826 127.988 23.6641C127.988 22.6868 128.341 21.2705 129.046 19.415C127.24 21.4189 125.898 22.8477 125.02 23.7012C124.141 24.5423 123.418 24.9629 122.849 24.9629C122.576 24.9629 122.236 24.7279 121.828 24.2578C121.42 23.7878 121.055 23.1816 120.733 22.4395C120.424 21.6849 120.27 20.9056 120.27 20.1016C120.27 19.5202 120.325 19.0378 120.437 18.6543C120.548 18.2585 120.764 17.8564 121.086 17.4482C121.408 17.04 121.921 16.502 122.626 15.834ZM131.514 13.793C128.298 15.265 126.003 16.5143 124.63 17.541C123.269 18.5677 122.589 19.6253 122.589 20.7139C122.589 21.1097 122.657 21.4375 122.793 21.6973C122.929 21.9447 123.115 22.0684 123.35 22.0684C123.486 22.0684 123.727 21.9818 124.073 21.8086C125.372 21.0417 126.56 20.0459 127.636 18.8213C128.712 17.5843 130.005 15.9082 131.514 13.793ZM135.818 19.6748V19.2295C139.01 15.8649 141.205 13.5085 142.405 12.1602C142.677 10.6387 143.333 9.87793 144.372 9.87793C144.632 9.87793 144.91 9.95215 145.207 10.1006L145.318 10.4531C145.269 10.6016 145.244 10.8118 145.244 11.084C145.244 11.319 145.331 11.7581 145.504 12.4014C145.689 13.0322 145.832 13.5641 145.931 13.9971C146.03 14.43 146.079 14.9186 146.079 15.4629C146.079 16.2793 145.894 17.0648 145.522 17.8193C145.151 18.5615 144.613 19.279 143.908 19.9717C143.203 20.652 142.294 21.3509 141.181 22.0684C141.626 22.1426 141.979 22.1797 142.238 22.1797C142.745 22.1797 143.29 22.056 143.871 21.8086C144.465 21.5488 145.065 21.2087 145.671 20.7881C146.289 20.3551 147.007 19.7985 147.823 19.1182V20.3613C146.24 21.9076 144.824 23.0827 143.574 23.8867C142.325 24.6784 141.249 25.0742 140.346 25.0742C139.183 25.0742 138.107 24.5794 137.117 23.5898C136.536 22.9961 136.171 22.4271 136.022 21.8828C135.886 21.3385 135.818 20.6025 135.818 19.6748ZM142.739 16.8359L142.405 14.127C141.638 14.9928 139.999 16.6566 137.488 19.1182C138.23 19.279 138.738 19.4954 139.01 19.7676C139.282 20.0397 139.665 20.5654 140.16 21.3447C141.001 20.9984 141.645 20.5283 142.09 19.9346C142.548 19.3285 142.776 18.5059 142.776 17.4668C142.776 17.3431 142.77 17.2318 142.758 17.1328C142.758 17.0339 142.752 16.9349 142.739 16.8359ZM154.28 9.52539H155.078C155.734 8.35026 156.327 7.52148 156.859 7.03906C157.391 6.54427 157.997 6.29688 158.678 6.29688C159.358 6.29688 159.698 6.4515 159.698 6.76074C159.698 6.90918 159.432 7.3112 158.9 7.9668C158.368 8.6224 157.966 9.17285 157.694 9.61816C158.115 9.66764 158.486 9.71094 158.808 9.74805C159.142 9.78516 159.401 9.81608 159.587 9.84082C158.882 11.152 157.997 12.4941 156.934 13.8672C156.587 13.8424 156.297 13.8239 156.062 13.8115C155.826 13.7868 155.585 13.7682 155.338 13.7559C155.103 13.7311 154.812 13.7064 154.466 13.6816C153.798 14.7578 153.235 15.7227 152.777 16.5762C152.332 17.4173 151.986 18.1904 151.738 18.8955C151.503 19.6006 151.386 20.2686 151.386 20.8994C151.386 21.7529 151.726 22.1797 152.406 22.1797C152.876 22.1797 153.489 21.9323 154.243 21.4375C155.01 20.9303 156.031 20.1572 157.305 19.1182V20.3613C153.965 23.9857 151.497 25.7979 149.901 25.7979C149.345 25.7979 148.893 25.5814 148.547 25.1484C148.213 24.7155 148.046 24.1589 148.046 23.4785C148.046 23.0208 148.139 22.4766 148.324 21.8457C148.522 21.2148 148.868 20.2624 149.363 18.9883C149.19 19.1367 149.023 19.2852 148.862 19.4336C148.714 19.5697 148.572 19.6995 148.436 19.8232C148.312 19.9346 148.176 20.0583 148.027 20.1943C147.879 20.318 147.73 20.4479 147.582 20.584V19.3037C148.881 18.2152 150.452 16.304 152.295 13.5703C152.109 13.5579 151.936 13.5518 151.775 13.5518C151.615 13.5394 151.423 13.5332 151.2 13.5332C150.47 13.5332 149.926 13.5827 149.567 13.6816C149.419 13.7188 149.277 13.762 149.141 13.8115C149.017 13.8486 148.93 13.8672 148.881 13.8672C148.831 13.8672 148.807 13.8301 148.807 13.7559C148.807 13.3477 149.06 12.7354 149.567 11.9189C149.976 11.2262 150.359 10.7129 150.718 10.3789C151.089 10.0449 151.534 9.82227 152.054 9.71094C152.586 9.58724 153.328 9.52539 154.28 9.52539ZM160.236 19.8232V20.2871C160.236 21.0169 160.416 21.5859 160.774 21.9941C161.133 22.4023 161.603 22.6064 162.185 22.6064C162.791 22.6064 163.415 22.4642 164.059 22.1797C164.714 21.8952 165.364 21.5179 166.007 21.0479C166.65 20.5778 167.436 19.9469 168.363 19.1553V20.2871C166.965 21.9694 165.654 23.262 164.43 24.165C163.205 25.0557 161.962 25.501 160.7 25.501C159.599 25.501 158.727 25.0742 158.084 24.2207C157.441 23.3672 157.119 22.1982 157.119 20.7139C157.119 19.415 157.422 18.2399 158.028 17.1885C158.634 16.1247 159.624 15.0052 160.997 13.8301C161.937 13.026 162.871 12.4199 163.799 12.0117C164.727 11.6035 165.555 11.3994 166.285 11.3994C166.867 11.3994 167.324 11.5355 167.658 11.8076C168.005 12.0674 168.178 12.4632 168.178 12.9951C168.178 13.7744 167.887 14.5537 167.306 15.333C166.724 16.0999 165.834 16.8669 164.634 17.6338C163.446 18.3883 161.98 19.1182 160.236 19.8232ZM160.422 18.6172C161.535 18.1842 162.488 17.6462 163.279 17.0029C164.071 16.3597 164.652 15.7474 165.023 15.166C165.407 14.5723 165.599 14.1393 165.599 13.8672C165.599 13.5827 165.469 13.4404 165.209 13.4404C164.986 13.4404 164.621 13.5827 164.114 13.8672C163.619 14.1517 163.112 14.5228 162.593 14.9805C162.086 15.4382 161.628 15.9762 161.22 16.5947C160.812 17.2132 160.546 17.8874 160.422 18.6172ZM168.178 20.584V19.3779C168.846 18.5863 169.353 17.9121 169.699 17.3555C169.303 17.2194 169.013 17.0524 168.827 16.8545C168.654 16.6566 168.567 16.3597 168.567 15.9639C168.567 15.5186 168.753 14.9557 169.124 14.2754C169.495 13.5951 169.953 12.958 170.497 12.3643C171.041 11.7705 171.536 11.387 171.981 11.2139C172.155 11.1273 172.322 11.084 172.482 11.084C172.73 11.084 172.854 11.2015 172.854 11.4365C172.854 11.6468 172.662 12.0736 172.278 12.7168C174.826 12.321 176.435 12.123 177.103 12.123C177.362 12.123 177.542 12.1478 177.641 12.1973C177.851 12.3086 178.024 12.5684 178.16 12.9766C178.296 13.3848 178.364 13.793 178.364 14.2012C178.364 14.4609 178.247 14.7454 178.012 15.0547C177.789 15.3516 177.399 15.7907 176.843 16.3721C176.187 17.0771 175.637 17.8441 175.191 18.6729C174.746 19.5016 174.523 20.1263 174.523 20.5469C174.523 21.1283 174.882 21.4189 175.6 21.4189C176.354 21.4189 177.665 20.652 179.533 19.1182V20.3613C178.507 21.4375 177.659 22.2848 176.991 22.9033C176.323 23.5218 175.705 24.0166 175.136 24.3877C174.567 24.7464 174.06 24.9258 173.614 24.9258C173.095 24.9258 172.662 24.6908 172.315 24.2207C171.969 23.7383 171.796 23.0456 171.796 22.1426C171.796 21.6107 171.932 21.0046 172.204 20.3242C172.476 19.6439 172.872 18.9079 173.392 18.1162C173.924 17.3122 174.517 16.5143 175.173 15.7227C174.826 15.7969 174.437 15.8773 174.004 15.9639C173.571 16.0381 173.113 16.1185 172.631 16.2051C172.148 16.2917 171.777 16.3597 171.518 16.4092C170.751 17.943 169.637 19.3346 168.178 20.584ZM202.597 21.3076L203.209 21.7715C203.048 22.1178 202.894 22.4209 202.745 22.6807C202.597 22.9404 202.417 23.2559 202.207 23.627C201.997 23.998 201.836 24.2764 201.725 24.4619C200.797 26.0824 199.925 26.8926 199.108 26.8926C198.762 26.8926 198.465 26.7565 198.218 26.4844C197.97 26.2122 197.847 25.8411 197.847 25.3711C197.847 24.7031 198.082 23.7878 198.552 22.625C199.034 21.4622 199.77 20.0335 200.76 18.3389C201.762 16.6318 203.017 14.7021 204.526 12.5498C206.035 10.3975 207.736 8.1276 209.629 5.74023C208.54 5.57943 207.248 5.49902 205.751 5.49902C204.032 5.49902 202.114 5.69076 199.999 6.07422C197.896 6.45768 196.059 6.90299 194.488 7.41016C192.93 7.90495 192.15 8.26986 192.15 8.50488C192.15 8.59147 192.181 8.65332 192.243 8.69043C192.305 8.71517 192.404 8.73991 192.54 8.76465C192.688 8.77702 192.874 8.79557 193.097 8.82031C194.544 9.01823 195.268 9.24089 195.268 9.48828C195.268 9.61198 194.952 9.67383 194.321 9.67383C193.69 9.66146 192.93 9.65527 192.039 9.65527C191.334 9.65527 190.821 9.63053 190.499 9.58105C190.19 9.51921 189.979 9.41406 189.868 9.26562C189.769 9.10482 189.72 8.86361 189.72 8.54199C189.72 8.33171 189.782 7.87402 189.905 7.16895C190.14 5.85775 190.499 4.80632 190.981 4.01465C191.476 3.22298 192.225 2.57975 193.227 2.08496C194.241 1.5778 195.632 1.17578 197.401 0.878906C200.37 0.371745 202.826 0.118164 204.768 0.118164C206.202 0.118164 207.334 0.180013 208.163 0.303711C208.992 0.415039 209.598 0.582031 209.981 0.804688C210.377 1.02734 210.625 1.25 210.724 1.47266C210.835 1.68294 210.977 2.05404 211.15 2.58594L211.726 4.29297C211.763 4.4043 211.794 4.49707 211.818 4.57129C211.843 4.63314 211.862 4.70117 211.874 4.77539C211.899 4.84961 211.911 4.91764 211.911 4.97949C211.911 5.46191 211.8 5.89486 211.577 6.27832C211.367 6.66178 210.971 7.23698 210.39 8.00391C209.821 8.77083 209.4 9.37077 209.128 9.80371C205.937 14.9867 203.759 18.8213 202.597 21.3076ZM222.877 19.1553V20.3242C221.801 21.4251 220.867 22.3281 220.075 23.0332C219.296 23.7259 218.609 24.2516 218.016 24.6104C217.434 24.9691 216.939 25.1484 216.531 25.1484C215.566 25.1484 215.084 24.5794 215.084 23.4414C215.084 22.526 215.381 21.4684 215.975 20.2686C216.581 19.0563 217.447 17.6338 218.572 16.001C218.016 16.3102 217.49 16.6689 216.995 17.0771C216.5 17.473 216.061 17.8936 215.678 18.3389C215.294 18.7718 214.973 19.1429 214.713 19.4521C213.909 20.3551 213.136 21.2829 212.394 22.2354C211.651 23.1755 211.15 23.7878 210.891 24.0723C210.631 24.3568 210.383 24.499 210.148 24.499C209.184 24.499 208.701 23.3115 208.701 20.9365C208.701 20.1572 208.819 19.2975 209.054 18.3574C209.289 17.4173 209.92 16.1742 210.946 14.6279C213.111 11.387 214.96 8.73991 216.494 6.68652C218.04 4.62077 219.321 3.06217 220.335 2.01074C221.349 0.94694 222.03 0.427409 222.376 0.452148C222.809 0.489258 223.155 0.575846 223.415 0.711914C223.687 0.847982 223.823 1.0026 223.823 1.17578C223.823 1.48503 223.607 1.99837 223.174 2.71582C222.753 3.4209 222.023 4.52799 220.984 6.03711C219.859 7.63281 219.061 8.75846 218.591 9.41406C218.121 10.0573 217.416 10.9788 216.476 12.1787C215.548 13.3662 214.694 14.43 213.915 15.3701C213.148 16.2979 212.27 17.306 211.28 18.3945V20.6211C212.938 18.778 214.373 17.2689 215.585 16.0938C216.797 14.9186 217.824 14.0342 218.665 13.4404C219.506 12.8343 220.125 12.5312 220.521 12.5312C220.892 12.5312 221.238 12.7539 221.56 13.1992C221.881 13.6322 222.042 13.9909 222.042 14.2754C222.042 14.3991 221.98 14.5537 221.856 14.7393C220.966 15.8031 220.255 16.6875 219.723 17.3926C219.203 18.0853 218.801 18.71 218.517 19.2666C218.232 19.8109 218.09 20.2809 218.09 20.6768C218.09 21.2581 218.368 21.5488 218.925 21.5488C219.519 21.5488 220.836 20.751 222.877 19.1553ZM225.048 15.834C226.928 14.127 228.753 12.859 230.521 12.0303C232.29 11.2015 233.657 10.7871 234.622 10.7871C234.882 10.7871 235.123 10.8984 235.346 11.1211C235.568 11.3314 235.742 11.5788 235.865 11.8633C236.001 12.1478 236.069 12.3581 236.069 12.4941C236.069 12.7168 235.983 12.8838 235.81 12.9951C235.636 13.0941 235.333 13.2178 234.9 13.3662C234.987 13.5641 235.098 13.8177 235.234 14.127C235.37 14.4362 235.476 14.6898 235.55 14.8877C235.624 15.0732 235.661 15.2402 235.661 15.3887C235.661 15.6855 235.358 16.2422 234.752 17.0586C234.158 17.8626 233.738 18.4564 233.49 18.8398C233.255 19.2233 233.138 19.6934 233.138 20.25C233.138 21.1654 233.558 21.623 234.399 21.623C235.265 21.623 236.62 20.8128 238.463 19.1924V20.3242C235.333 23.8001 233.094 25.5381 231.746 25.5381C231.264 25.5381 230.917 25.3773 230.707 25.0557C230.509 24.7464 230.41 24.2826 230.41 23.6641C230.41 22.6868 230.763 21.2705 231.468 19.415C229.662 21.4189 228.32 22.8477 227.441 23.7012C226.563 24.5423 225.84 24.9629 225.271 24.9629C224.998 24.9629 224.658 24.7279 224.25 24.2578C223.842 23.7878 223.477 23.1816 223.155 22.4395C222.846 21.6849 222.691 20.9056 222.691 20.1016C222.691 19.5202 222.747 19.0378 222.858 18.6543C222.97 18.2585 223.186 17.8564 223.508 17.4482C223.829 17.04 224.343 16.502 225.048 15.834ZM233.936 13.793C230.719 15.265 228.425 16.5143 227.052 17.541C225.691 18.5677 225.011 19.6253 225.011 20.7139C225.011 21.1097 225.079 21.4375 225.215 21.6973C225.351 21.9447 225.536 22.0684 225.771 22.0684C225.908 22.0684 226.149 21.9818 226.495 21.8086C227.794 21.0417 228.981 20.0459 230.058 18.8213C231.134 17.5843 232.426 15.9082 233.936 13.793ZM250.82 15.7969C248.643 18.2214 247.555 19.9098 247.555 20.8623C247.555 21.3942 247.771 21.6602 248.204 21.6602C248.563 21.6602 249.027 21.4746 249.596 21.1035C250.177 20.7201 251.08 20.0459 252.305 19.0811V20.3613C250.548 22.0931 249.2 23.3424 248.26 24.1094C247.32 24.8763 246.553 25.2598 245.959 25.2598C244.945 25.2598 244.438 24.5918 244.438 23.2559C244.438 22.86 244.499 22.4704 244.623 22.0869C244.747 21.7035 244.914 21.3076 245.124 20.8994C245.347 20.4788 245.681 19.8851 246.126 19.1182C246.571 18.3389 247.085 17.4606 247.666 16.4834C246.961 16.8421 246.076 17.5534 245.013 18.6172C244.32 19.2852 243.732 19.9222 243.25 20.5283C242.768 21.1221 242.248 21.79 241.691 22.5322C241.147 23.262 240.745 23.7568 240.485 24.0166C240.238 24.264 239.984 24.3877 239.725 24.3877C239.329 24.3877 238.964 23.9733 238.63 23.1445C238.296 22.3158 238.129 21.3509 238.129 20.25C238.129 19.5697 238.203 19.0378 238.352 18.6543C238.512 18.2708 238.822 17.7266 239.279 17.0215C240.133 15.7103 240.869 14.7516 241.487 14.1455C242.106 13.527 242.7 13.2178 243.269 13.2178C243.664 13.2178 243.98 13.2858 244.215 13.4219C244.462 13.5579 244.586 13.7682 244.586 14.0527C244.586 14.1764 244.549 14.3063 244.475 14.4424C244.4 14.5785 244.314 14.7021 244.215 14.8135C244.128 14.9248 243.937 15.1413 243.64 15.4629C241.685 17.6276 240.708 19.0316 240.708 19.6748C240.708 20.0335 240.826 20.2129 241.061 20.2129C241.209 20.2129 241.493 19.9779 241.914 19.5078C242.347 19.0254 242.897 18.4007 243.565 17.6338C244.246 16.8545 245.044 16.0443 245.959 15.2031C246.887 14.362 247.938 13.5518 249.113 12.7725C249.769 12.3148 250.313 12.0859 250.746 12.0859C250.944 12.0859 251.136 12.3581 251.321 12.9023C251.519 13.4466 251.618 13.9971 251.618 14.5537C251.618 14.8258 251.352 15.2402 250.82 15.7969ZM260.153 12.0859L260.487 9.91504C260.599 9.17285 260.797 8.56673 261.081 8.09668C261.366 7.62663 261.867 7.11328 262.584 6.55664C263.289 5.98763 264.39 5.18359 265.887 4.14453C269.486 1.63346 272.288 0.37793 274.292 0.37793C274.898 0.37793 275.325 0.501628 275.572 0.749023C275.832 0.996419 275.962 1.42936 275.962 2.04785C275.962 2.48079 275.795 3.07454 275.461 3.8291C275.139 4.58366 274.539 5.77734 273.661 7.41016C272.795 9.04297 272.028 10.5088 271.36 11.8076C270.816 12.8714 270.198 14.0033 269.505 15.2031C268.812 16.3906 268.348 17.207 268.113 17.6523C267.878 18.0977 267.761 18.4316 267.761 18.6543C267.761 18.9017 267.841 19.1182 268.002 19.3037C268.163 19.4769 268.361 19.5635 268.596 19.5635C268.917 19.5635 269.276 19.3903 269.672 19.0439C270.08 18.6976 270.872 17.9492 272.047 16.7988C272.616 16.2298 273.222 15.5557 273.865 14.7764C274.521 13.9971 275.331 12.9951 276.296 11.7705C277.261 10.5459 278.151 9.40788 278.968 8.35645C279.475 7.70085 279.933 7.11328 280.341 6.59375C280.749 6.07422 281.095 5.67839 281.38 5.40625C281.677 5.12174 281.912 4.97949 282.085 4.97949C282.233 4.97949 282.475 5.16504 282.809 5.53613L283.254 6.11133C283.588 6.58138 283.755 6.92155 283.755 7.13184C283.755 7.37923 283.291 8.28841 282.363 9.85938C281.448 11.418 280.669 12.7725 280.025 13.9229C279.382 15.0609 278.547 16.7122 277.521 18.877C276.506 21.0293 275.529 23.4229 274.589 26.0576C277.1 24.165 278.819 22.9033 279.747 22.2725C280.675 21.6292 281.349 21.3076 281.77 21.3076C282.054 21.3076 282.196 21.4251 282.196 21.6602C282.196 21.9199 282.06 22.2601 281.788 22.6807C281.516 23.0889 281.151 23.5465 280.693 24.0537C280.236 24.5485 279.543 25.266 278.615 26.2061C277.7 27.1585 276.698 28.1852 275.609 29.2861C274.941 29.9665 274.292 30.7581 273.661 31.6611C273.03 32.5641 272.542 33.263 272.195 33.7578C271.849 34.2526 271.534 34.5371 271.249 34.6113C270.828 34.735 270.445 34.6423 270.099 34.333C269.752 34.0238 269.579 33.5352 269.579 32.8672C269.579 32.3971 269.814 31.4261 270.284 29.9541C270.767 28.4821 271.49 26.6514 272.455 24.4619C273.024 23.1507 273.605 21.9137 274.199 20.751C274.793 19.5758 275.473 18.2894 276.24 16.8916C277.02 15.4814 277.78 14.1455 278.522 12.8838C279.265 11.6221 279.896 10.5459 280.415 9.65527C279.178 11.2757 277.947 12.8529 276.723 14.3867C275.51 15.9082 274.15 17.5163 272.641 19.2109C271.144 20.8932 269.629 22.4704 268.095 23.9424C267.427 24.5732 266.944 25 266.647 25.2227C266.363 25.4577 265.986 25.5752 265.516 25.5752C265.219 25.5752 264.928 25.4701 264.644 25.2598C264.371 25.0618 264.143 24.8021 263.957 24.4805C263.771 24.1465 263.679 23.8249 263.679 23.5156C263.679 22.9961 263.753 22.5384 263.901 22.1426C264.062 21.7467 264.334 21.153 264.718 20.3613C266.4 16.9596 267.625 14.6279 268.392 13.3662C271.138 8.96257 272.511 6.49479 272.511 5.96289C272.511 5.78971 272.449 5.65365 272.325 5.55469C272.201 5.44336 272.047 5.3877 271.861 5.3877C271.515 5.3877 271.101 5.54232 270.618 5.85156C270.136 6.14844 269.53 6.59375 268.8 7.1875C268.07 7.78125 267.179 8.49251 266.128 9.32129C265.089 10.1501 263.994 10.9417 262.844 11.6963C262.386 11.9932 261.873 12.3457 261.304 12.7539C260.722 13.1621 260.388 13.3662 260.302 13.3662C260.129 13.3662 260.042 13.2796 260.042 13.1064C260.042 12.9456 260.079 12.6055 260.153 12.0859ZM293.366 19.1182V20.3613C292.55 21.1035 291.894 21.5983 291.399 21.8457C290.905 22.0931 290.193 22.1921 289.266 22.1426C287.658 24.0475 286.241 25 285.017 25C284.324 25 283.693 24.7712 283.124 24.3135C282.555 23.8558 282.097 23.2311 281.751 22.4395C281.417 21.6478 281.25 20.7633 281.25 19.7861C281.25 18.9945 281.51 18.1162 282.029 17.1514C282.561 16.1865 283.242 15.2897 284.07 14.4609C284.911 13.6198 285.808 12.9456 286.761 12.4385C287.713 11.9189 288.598 11.6592 289.414 11.6592C289.995 11.6592 290.453 11.752 290.787 11.9375C291.121 12.1107 291.288 12.3581 291.288 12.6797C291.288 12.9271 291.146 13.2116 290.861 13.5332C291.331 13.6322 291.653 13.7992 291.826 14.0342C291.999 14.2568 292.086 14.6712 292.086 15.2773C292.086 15.8711 291.944 16.6195 291.659 17.5225C291.387 18.4255 291.01 19.2728 290.527 20.0645L290.861 20.3984H291.14C291.35 20.3984 291.554 20.349 291.752 20.25C291.962 20.1387 292.148 20.0273 292.309 19.916C292.469 19.7923 292.822 19.5264 293.366 19.1182ZM289.544 14.2383C288.517 14.8568 287.639 15.4196 286.909 15.9268C286.179 16.4215 285.561 16.9287 285.054 17.4482C284.547 17.9554 284.206 18.4688 284.033 18.9883C283.724 20.3737 283.569 21.1221 283.569 21.2334C283.569 22.0498 284.138 22.458 285.276 22.458C285.808 22.458 286.699 22.0003 287.948 21.085C287.738 20.5036 287.633 19.9469 287.633 19.415C287.633 18.6357 287.794 17.8441 288.115 17.04C288.437 16.2236 288.913 15.2897 289.544 14.2383ZM302.087 17.8936C300.293 20.2686 298.926 21.957 297.986 22.959C297.059 23.9609 296.298 24.4619 295.704 24.4619C295.234 24.4619 294.801 24.2702 294.405 23.8867C294.009 23.4909 293.7 22.9652 293.478 22.3096C293.267 21.6416 293.162 20.9303 293.162 20.1758C293.162 19.681 293.205 19.2357 293.292 18.8398C293.391 18.444 293.57 18.0111 293.83 17.541C294.09 17.0586 294.43 16.5391 294.851 15.9824C295.284 15.4258 295.809 14.7949 296.428 14.0898C296.799 13.6569 297.108 13.292 297.355 12.9951C297.615 12.6982 297.863 12.5003 298.098 12.4014C298.345 12.29 298.741 12.2344 299.285 12.2344C299.681 12.2344 300.058 12.29 300.417 12.4014C300.776 12.5003 300.955 12.6055 300.955 12.7168C300.955 12.9395 300.77 13.3415 300.398 13.9229C300.04 14.5042 299.452 15.2155 298.636 16.0566C297.832 16.8854 296.898 17.7018 295.834 18.5059C295.599 19.2357 295.481 19.7923 295.481 20.1758C295.481 20.7077 295.686 20.9736 296.094 20.9736C296.242 20.9736 296.49 20.8499 296.836 20.6025C297.182 20.3428 297.764 19.8542 298.58 19.1367C299.409 18.4069 300.151 17.7637 300.807 17.207C301.289 16.7865 301.846 16.1618 302.477 15.333C303.12 14.4919 303.639 13.861 304.035 13.4404C304.951 12.4756 305.575 11.8509 305.909 11.5664C306.243 11.2695 306.565 11.1211 306.874 11.1211C307.171 11.1211 307.369 11.2139 307.468 11.3994C307.579 11.585 307.635 11.9622 307.635 12.5312C307.635 12.791 307.61 13.0013 307.561 13.1621C307.511 13.3229 307.406 13.5332 307.245 13.793C307.097 14.0404 306.787 14.5042 306.317 15.1846C305.847 15.8649 305.291 16.6689 304.647 17.5967C304.301 18.0915 303.998 18.6357 303.738 19.2295C303.479 19.8109 303.349 20.25 303.349 20.5469C303.349 21.1901 303.602 21.5117 304.109 21.5117C304.53 21.5117 305.019 21.3385 305.575 20.9922C306.132 20.6458 306.985 20.0212 308.136 19.1182V20.3613C306.688 21.6973 305.618 22.6683 304.926 23.2744C304.233 23.8805 303.633 24.3382 303.126 24.6475C302.619 24.9567 302.136 25.1113 301.679 25.1113C300.64 25.1113 300.12 24.4928 300.12 23.2559C300.12 22.7858 300.275 22.1549 300.584 21.3633C300.893 20.5592 301.394 19.4027 302.087 17.8936ZM331.106 21.3076L331.719 21.7715C331.558 22.1178 331.403 22.4209 331.255 22.6807C331.106 22.9404 330.927 23.2559 330.717 23.627C330.507 23.998 330.346 24.2764 330.234 24.4619C329.307 26.0824 328.435 26.8926 327.618 26.8926C327.272 26.8926 326.975 26.7565 326.728 26.4844C326.48 26.2122 326.356 25.8411 326.356 25.3711C326.356 24.7031 326.591 23.7878 327.062 22.625C327.544 21.4622 328.28 20.0335 329.27 18.3389C330.271 16.6318 331.527 14.7021 333.036 12.5498C334.545 10.3975 336.246 8.1276 338.139 5.74023C337.05 5.57943 335.757 5.49902 334.261 5.49902C332.541 5.49902 330.624 5.69076 328.509 6.07422C326.406 6.45768 324.569 6.90299 322.998 7.41016C321.439 7.90495 320.66 8.26986 320.66 8.50488C320.66 8.59147 320.691 8.65332 320.753 8.69043C320.815 8.71517 320.914 8.73991 321.05 8.76465C321.198 8.77702 321.384 8.79557 321.606 8.82031C323.054 9.01823 323.777 9.24089 323.777 9.48828C323.777 9.61198 323.462 9.67383 322.831 9.67383C322.2 9.66146 321.439 9.65527 320.549 9.65527C319.844 9.65527 319.33 9.63053 319.009 9.58105C318.7 9.51921 318.489 9.41406 318.378 9.26562C318.279 9.10482 318.229 8.86361 318.229 8.54199C318.229 8.33171 318.291 7.87402 318.415 7.16895C318.65 5.85775 319.009 4.80632 319.491 4.01465C319.986 3.22298 320.734 2.57975 321.736 2.08496C322.751 1.5778 324.142 1.17578 325.911 0.878906C328.88 0.371745 331.335 0.118164 333.277 0.118164C334.712 0.118164 335.844 0.180013 336.673 0.303711C337.502 0.415039 338.108 0.582031 338.491 0.804688C338.887 1.02734 339.134 1.25 339.233 1.47266C339.345 1.68294 339.487 2.05404 339.66 2.58594L340.235 4.29297C340.272 4.4043 340.303 4.49707 340.328 4.57129C340.353 4.63314 340.371 4.70117 340.384 4.77539C340.409 4.84961 340.421 4.91764 340.421 4.97949C340.421 5.46191 340.31 5.89486 340.087 6.27832C339.877 6.66178 339.481 7.23698 338.899 8.00391C338.33 8.77083 337.91 9.37077 337.638 9.80371C334.446 14.9867 332.269 18.8213 331.106 21.3076ZM351.387 19.1553V20.3242C350.311 21.4251 349.377 22.3281 348.585 23.0332C347.806 23.7259 347.119 24.2516 346.525 24.6104C345.944 24.9691 345.449 25.1484 345.041 25.1484C344.076 25.1484 343.594 24.5794 343.594 23.4414C343.594 22.526 343.891 21.4684 344.484 20.2686C345.09 19.0563 345.956 17.6338 347.082 16.001C346.525 16.3102 346 16.6689 345.505 17.0771C345.01 17.473 344.571 17.8936 344.188 18.3389C343.804 18.7718 343.482 19.1429 343.223 19.4521C342.419 20.3551 341.646 21.2829 340.903 22.2354C340.161 23.1755 339.66 23.7878 339.4 24.0723C339.141 24.3568 338.893 24.499 338.658 24.499C337.693 24.499 337.211 23.3115 337.211 20.9365C337.211 20.1572 337.328 19.2975 337.563 18.3574C337.799 17.4173 338.429 16.1742 339.456 14.6279C341.621 11.387 343.47 8.73991 345.004 6.68652C346.55 4.62077 347.83 3.06217 348.845 2.01074C349.859 0.94694 350.539 0.427409 350.886 0.452148C351.319 0.489258 351.665 0.575846 351.925 0.711914C352.197 0.847982 352.333 1.0026 352.333 1.17578C352.333 1.48503 352.117 1.99837 351.684 2.71582C351.263 3.4209 350.533 4.52799 349.494 6.03711C348.368 7.63281 347.571 8.75846 347.101 9.41406C346.631 10.0573 345.925 10.9788 344.985 12.1787C344.058 13.3662 343.204 14.43 342.425 15.3701C341.658 16.2979 340.78 17.306 339.79 18.3945V20.6211C341.448 18.778 342.882 17.2689 344.095 16.0938C345.307 14.9186 346.334 14.0342 347.175 13.4404C348.016 12.8343 348.634 12.5312 349.03 12.5312C349.401 12.5312 349.748 12.7539 350.069 13.1992C350.391 13.6322 350.552 13.9909 350.552 14.2754C350.552 14.3991 350.49 14.5537 350.366 14.7393C349.476 15.8031 348.764 16.6875 348.232 17.3926C347.713 18.0853 347.311 18.71 347.026 19.2666C346.742 19.8109 346.6 20.2809 346.6 20.6768C346.6 21.2581 346.878 21.5488 347.435 21.5488C348.028 21.5488 349.346 20.751 351.387 19.1553ZM358.994 10.8613C358.685 10.8613 358.388 10.7438 358.104 10.5088C357.831 10.2738 357.695 9.97689 357.695 9.61816C357.695 9.07389 357.955 8.46777 358.475 7.7998C358.994 7.13184 359.532 6.79785 360.089 6.79785C360.46 6.79785 360.769 6.91536 361.017 7.15039C361.264 7.37305 361.388 7.70085 361.388 8.13379C361.388 8.66569 361.134 9.25326 360.627 9.89648C360.12 10.5397 359.576 10.8613 358.994 10.8613ZM360.256 19.1553V20.5098C359.056 22.056 357.937 23.2249 356.897 24.0166C355.858 24.7959 354.974 25.1855 354.244 25.1855C353.23 25.1855 352.475 24.6536 351.98 23.5898C351.486 22.526 351.238 21.3633 351.238 20.1016C351.238 19.6191 351.288 19.1615 351.387 18.7285C351.486 18.2832 351.603 17.9183 351.739 17.6338C351.875 17.3493 352.129 16.904 352.5 16.2979C354.257 13.5641 355.865 12.1973 357.324 12.1973C358.079 12.1973 358.456 12.488 358.456 13.0693C358.456 13.4652 358.209 14.0837 357.714 14.9248C357.231 15.766 356.799 16.3659 356.415 16.7246C355.339 17.7637 354.634 18.4873 354.3 18.8955C353.978 19.3037 353.817 19.7676 353.817 20.2871C353.817 20.7324 353.984 21.1035 354.318 21.4004C354.652 21.6973 355.085 21.8457 355.617 21.8457C356.199 21.8457 356.836 21.6354 357.528 21.2148C358.233 20.7819 359.143 20.0954 360.256 19.1553ZM372.613 15.7969C370.436 18.2214 369.348 19.9098 369.348 20.8623C369.348 21.3942 369.564 21.6602 369.997 21.6602C370.356 21.6602 370.82 21.4746 371.389 21.1035C371.97 20.7201 372.873 20.0459 374.098 19.0811V20.3613C372.341 22.0931 370.993 23.3424 370.053 24.1094C369.113 24.8763 368.346 25.2598 367.752 25.2598C366.738 25.2598 366.23 24.5918 366.23 23.2559C366.23 22.86 366.292 22.4704 366.416 22.0869C366.54 21.7035 366.707 21.3076 366.917 20.8994C367.14 20.4788 367.474 19.8851 367.919 19.1182C368.364 18.3389 368.878 17.4606 369.459 16.4834C368.754 16.8421 367.869 17.5534 366.806 18.6172C366.113 19.2852 365.525 19.9222 365.043 20.5283C364.561 21.1221 364.041 21.79 363.484 22.5322C362.94 23.262 362.538 23.7568 362.278 24.0166C362.031 24.264 361.777 24.3877 361.518 24.3877C361.122 24.3877 360.757 23.9733 360.423 23.1445C360.089 22.3158 359.922 21.3509 359.922 20.25C359.922 19.5697 359.996 19.0378 360.145 18.6543C360.305 18.2708 360.615 17.7266 361.072 17.0215C361.926 15.7103 362.662 14.7516 363.28 14.1455C363.899 13.527 364.493 13.2178 365.062 13.2178C365.457 13.2178 365.773 13.2858 366.008 13.4219C366.255 13.5579 366.379 13.7682 366.379 14.0527C366.379 14.1764 366.342 14.3063 366.268 14.4424C366.193 14.5785 366.107 14.7021 366.008 14.8135C365.921 14.9248 365.729 15.1413 365.433 15.4629C363.478 17.6276 362.501 19.0316 362.501 19.6748C362.501 20.0335 362.618 20.2129 362.854 20.2129C363.002 20.2129 363.286 19.9779 363.707 19.5078C364.14 19.0254 364.69 18.4007 365.358 17.6338C366.039 16.8545 366.837 16.0443 367.752 15.2031C368.68 14.362 369.731 13.5518 370.906 12.7725C371.562 12.3148 372.106 12.0859 372.539 12.0859C372.737 12.0859 372.929 12.3581 373.114 12.9023C373.312 13.4466 373.411 13.9971 373.411 14.5537C373.411 14.8258 373.145 15.2402 372.613 15.7969ZM387.977 19.1553V20.3984C386.591 22.0189 385.428 23.2497 384.488 24.0908C383.548 24.9196 382.763 25.334 382.132 25.334C381.526 25.334 380.975 25.1546 380.48 24.7959C379.998 24.4372 379.559 23.9424 379.163 23.3115C378.78 22.6807 378.322 21.8024 377.79 20.6768C377.159 21.4561 376.59 22.1859 376.083 22.8662C375.576 23.5342 375.223 23.9795 375.025 24.2021C374.827 24.4248 374.648 24.5361 374.487 24.5361C374.153 24.5361 373.912 24.3258 373.764 23.9053C373.615 23.4723 373.541 22.8477 373.541 22.0312C373.541 20.918 373.671 19.848 373.931 18.8213C374.203 17.7822 374.586 16.7741 375.081 15.7969C375.588 14.8197 376.231 13.7682 377.011 12.6426C377.802 11.5046 378.687 10.3171 379.664 9.08008C381.012 7.37305 382.175 5.98145 383.152 4.90527C384.13 3.81673 384.977 3.00033 385.694 2.45605C386.424 1.89941 387.03 1.62109 387.513 1.62109C388.106 1.62109 388.403 1.88704 388.403 2.41895C388.403 2.87663 387.309 4.52799 385.119 7.37305C382.93 10.2057 379.738 14.0775 375.545 18.9883V20.584C378.353 17.5781 380.61 15.3454 382.317 13.8857C384.037 12.4261 385.367 11.6963 386.307 11.6963C386.69 11.6963 386.987 11.9251 387.197 12.3828C387.408 12.8281 387.513 13.3477 387.513 13.9414C387.513 15.1536 386.993 16.2793 385.954 17.3184C384.915 18.3451 383.319 19.5264 381.167 20.8623C381.538 21.4189 381.866 21.8271 382.15 22.0869C382.435 22.3343 382.794 22.458 383.227 22.458C383.61 22.458 384.024 22.3281 384.47 22.0684C384.915 21.8086 385.367 21.4808 385.824 21.085C386.294 20.6891 387.012 20.0459 387.977 19.1553ZM380.647 20.1016C381.118 19.7923 381.699 19.3161 382.392 18.6729C383.097 18.0173 383.697 17.3431 384.191 16.6504C384.686 15.9453 384.934 15.3577 384.934 14.8877C384.934 14.6898 384.847 14.5908 384.674 14.5908C384.204 14.5908 383.394 15.0423 382.243 15.9453C381.105 16.8483 379.992 18.0049 378.903 19.415C379.373 19.415 379.955 19.6439 380.647 20.1016Z" fill="#006210"/>
</svg>
