<?xml version="1.0" standalone="no"?>
<!DOCTYPE svg PUBLIC "-//W3C//DTD SVG 20010904//EN"
 "http://www.w3.org/TR/2001/REC-SVG-20010904/DTD/svg10.dtd">
<svg version="1.0" xmlns="http://www.w3.org/2000/svg"
 width="512.000000pt" height="512.000000pt" viewBox="0 0 512.000000 512.000000"
 preserveAspectRatio="xMidYMid meet">

<g transform="translate(0.000000,512.000000) scale(0.100000,-0.100000)"
fill="#000000" stroke="none">
<path d="M2005 4784 c-574 -78 -1102 -376 -1456 -821 -237 -299 -393 -642
-459 -1013 -32 -174 -39 -505 -15 -675 58 -422 216 -795 474 -1118 367 -461
916 -762 1509 -827 160 -18 473 -8 627 19 433 77 814 267 1144 569 118 108
156 179 156 292 0 62 -5 85 -28 132 -56 115 -167 183 -297 182 -93 0 -154 -32
-270 -138 -216 -200 -470 -332 -767 -398 -85 -19 -128 -22 -323 -22 -212 0
-232 1 -345 28 -152 36 -233 65 -370 132 -154 76 -280 169 -420 309 -227 226
-365 480 -437 802 -19 85 -22 128 -22 323 0 195 3 238 22 323 142 638 612
1107 1249 1249 85 19 128 22 323 22 195 0 238 -3 323 -22 297 -66 551 -198
767 -398 116 -106 177 -138 270 -138 130 -1 241 67 297 182 23 47 28 70 28
132 0 138 -61 224 -285 403 -330 263 -731 431 -1145 477 -125 14 -430 11 -550
-6z"/>
<path d="M4023 3493 c-105 -36 -188 -120 -214 -218 -6 -22 -9 -71 -7 -110 6
-89 37 -151 113 -225 l56 -55 -878 -5 -878 -5 -50 -25 c-64 -31 -124 -91 -155
-155 -35 -72 -35 -198 0 -270 31 -64 91 -124 155 -155 l50 -25 878 -5 878 -5
-56 -55 c-76 -74 -107 -136 -113 -225 -5 -83 7 -134 47 -197 61 -95 189 -157
300 -144 110 13 122 23 500 399 404 403 411 412 411 547 0 135 -7 144 -411
547 -275 274 -365 357 -401 373 -67 29 -160 34 -225 13z"/>
</g>
</svg>
