<?xml version="1.0" standalone="no"?>
<!DOCTYPE svg PUBLIC "-//W3C//DTD SVG 20010904//EN"
 "http://www.w3.org/TR/2001/REC-SVG-20010904/DTD/svg10.dtd">
<svg version="1.0" xmlns="http://www.w3.org/2000/svg"
 width="1080.000000pt" height="1080.000000pt" viewBox="0 0 1080.000000 1080.000000"
 preserveAspectRatio="xMidYMid meet">

<g transform="translate(0.000000,1080.000000) scale(0.100000,-0.100000)"
fill="#000000" stroke="none">
<path d="M6650 9718 c-66 -34 -84 -66 -88 -151 -2 -60 1 -78 20 -111 46 -79
168 -105 259 -55 l44 24 3 73 3 72 -81 0 -80 0 0 -30 c0 -28 2 -30 40 -30 36
0 40 -3 40 -25 0 -29 -26 -45 -75 -45 -49 0 -74 15 -91 55 -29 70 -12 145 37
171 43 22 77 17 109 -14 22 -23 35 -28 59 -24 38 5 39 21 5 61 -44 53 -132 65
-204 29z"/>
<path d="M3956 9563 c-36 -93 -66 -172 -66 -177 0 -4 17 -6 37 -4 32 3 38 8
48 38 l12 35 71 3 72 3 16 -41 c15 -37 19 -40 55 -40 l39 0 -17 43 c-9 23 -40
101 -69 172 l-52 130 -40 3 -40 3 -66 -168z m131 17 l22 -60 -49 0 -49 0 22
60 c12 33 24 60 27 60 3 0 15 -27 27 -60z"/>
<path d="M4340 9555 l0 -175 35 0 34 0 3 110 3 109 66 -107 c62 -102 67 -107
102 -110 l37 -3 0 175 0 176 -30 0 -30 0 0 -110 c0 -60 -3 -110 -7 -110 -5 0
-37 50 -73 110 -64 108 -65 109 -102 110 l-38 0 0 -175z"/>
<path d="M4743 9706 c116 -176 117 -179 117 -254 l0 -72 35 0 35 0 0 77 c0 76
0 76 60 170 33 51 60 95 60 98 0 3 -18 5 -39 5 -38 0 -41 -2 -76 -66 -42 -74
-45 -74 -90 10 -29 55 -31 56 -74 56 l-43 0 15 -24z"/>
<path d="M5130 9700 c0 -29 1 -30 50 -30 l50 0 0 -145 0 -145 40 0 40 0 0 145
0 145 50 0 c49 0 50 1 50 30 l0 30 -140 0 -140 0 0 -30z"/>
<path d="M5520 9555 l0 -175 35 0 35 0 0 75 0 75 70 0 70 0 0 -75 0 -75 40 0
40 0 0 175 0 175 -40 0 -40 0 0 -70 0 -71 -67 3 -68 3 -3 68 -3 67 -34 0 -35
0 0 -175z"/>
<path d="M5940 9555 l0 -175 35 0 35 0 0 175 0 175 -35 0 -35 0 0 -175z"/>
<path d="M6150 9555 l0 -175 30 0 29 0 3 113 3 112 70 -112 c69 -112 70 -113
107 -113 l38 0 0 175 0 175 -35 0 -34 0 -3 -112 -3 -113 -68 113 c-66 108 -70
112 -103 112 l-34 0 0 -175z"/>
<path d="M2267 9000 c-123 -37 -203 -156 -297 -443 -33 -101 -39 -130 -30
-146 33 -62 153 -51 178 16 5 15 15 53 21 85 l12 56 27 -14 c32 -17 36 -17 85
-3 53 14 110 69 138 132 19 42 23 70 23 149 1 89 -1 98 -24 123 -23 25 -79 56
-97 54 -4 0 -21 -5 -36 -9z m-2 -230 c-4 -32 -16 -62 -32 -80 -25 -31 -43 -38
-43 -19 0 18 70 162 76 156 3 -3 3 -29 -1 -57z"/>
<path d="M3393 8998 c-13 -6 -23 -15 -23 -20 0 -4 -7 -8 -16 -8 -24 0 -48 -66
-115 -324 l-63 -238 23 -19 c29 -24 63 -24 83 -1 9 9 26 41 38 70 12 28 26 52
31 52 4 0 44 -27 88 -61 124 -93 169 -74 121 54 -11 30 -38 73 -59 95 l-39 40
40 12 c25 7 62 33 99 69 63 61 76 102 43 135 -26 27 -58 18 -132 -34 -40 -28
-72 -49 -72 -47 0 2 20 40 44 84 58 109 59 110 36 133 -22 22 -89 26 -127 8z"/>
<path d="M4767 9000 c-123 -37 -203 -156 -297 -443 -33 -101 -39 -130 -30
-146 33 -62 153 -51 178 16 5 15 15 53 21 85 l12 56 27 -14 c32 -17 36 -17 85
-3 53 14 110 69 138 132 19 42 23 70 23 149 1 89 -1 98 -24 123 -23 25 -79 56
-97 54 -4 0 -21 -5 -36 -9z m-2 -246 c-9 -49 -75 -122 -75 -83 0 6 17 45 37
87 29 62 37 72 41 53 2 -13 1 -39 -3 -57z"/>
<path d="M5494 8996 c-41 -18 -98 -87 -112 -135 -7 -21 -12 -60 -12 -87 -1
-46 -4 -51 -45 -84 -70 -54 -108 -114 -113 -177 -6 -66 9 -101 52 -131 53 -36
120 -39 195 -9 l62 25 24 -24 c32 -32 75 -31 114 2 33 27 41 54 16 54 -8 0
-19 9 -25 19 -8 16 -4 30 20 68 39 63 49 110 25 119 -10 4 -26 2 -36 -4 -10
-7 -25 -12 -33 -12 -7 0 -19 -7 -26 -15 -7 -8 -16 -15 -20 -15 -9 0 -40 74
-40 95 0 7 24 36 53 64 92 87 120 173 74 227 -20 23 -33 28 -83 31 -36 2 -71
-2 -90 -11z m66 -115 c0 -11 -13 -29 -30 -41 -36 -26 -42 -7 -9 34 24 31 39
33 39 7z m-127 -354 l19 -28 -33 3 c-27 2 -35 8 -37 26 -4 27 20 63 27 41 2
-8 13 -27 24 -42z"/>
<path d="M4370 8990 c-8 -5 -26 -11 -40 -14 -21 -5 -39 -33 -103 -159 -72
-142 -118 -209 -133 -194 -9 9 18 117 56 220 29 82 30 90 16 112 -21 32 -52
40 -80 22 -50 -33 -135 -266 -143 -392 -6 -101 12 -140 77 -172 54 -28 84 -29
132 -5 31 16 36 17 45 3 6 -9 24 -15 48 -15 29 0 43 6 61 28 13 15 24 35 24
45 0 27 35 159 87 329 39 128 44 156 35 177 -12 26 -51 33 -82 15z"/>
<path d="M8695 8981 c-54 -15 -75 -26 -98 -52 -65 -77 -187 -381 -187 -466 0
-51 23 -73 77 -73 49 0 54 6 83 94 24 74 23 74 65 -6 28 -53 41 -63 103 -73
86 -14 94 31 22 133 -47 67 -48 71 -29 77 36 12 99 77 126 129 30 59 42 160
24 195 -15 27 -69 61 -96 60 -11 0 -51 -8 -90 -18z m55 -132 c0 -33 -29 -79
-57 -90 -14 -5 -27 -8 -30 -6 -6 7 29 82 49 104 23 25 38 22 38 -8z"/>
<path d="M2662 8970 c-7 -11 -24 -26 -39 -33 -35 -16 -67 -85 -144 -318 l-64
-191 24 -19 c28 -23 59 -24 105 -5 39 16 32 0 138 324 79 240 80 254 22 260
-21 2 -33 -3 -42 -18z"/>
<path d="M6180 8978 c-31 -17 -38 -31 -100 -223 -40 -121 -54 -180 -58 -242
-5 -81 -4 -82 26 -112 35 -36 69 -39 105 -11 14 11 38 20 54 20 75 1 180 85
229 186 32 66 44 185 24 234 -14 33 -97 113 -142 136 -41 21 -109 27 -138 12z
m129 -197 c25 -23 31 -37 31 -70 0 -57 -31 -113 -86 -156 -48 -36 -64 -42 -64
-25 0 25 35 169 66 268 5 19 19 15 53 -17z"/>
<path d="M6710 8968 c-78 -24 -90 -33 -90 -65 0 -14 -18 -65 -40 -114 -22 -49
-49 -122 -60 -162 -22 -83 -34 -197 -23 -213 17 -24 55 -34 133 -34 92 0 137
15 168 55 20 25 21 30 7 45 -8 9 -15 22 -15 28 0 8 -23 12 -70 12 -42 0 -70 4
-70 10 0 6 9 28 20 49 15 30 27 40 54 45 44 8 81 38 94 76 12 33 12 33 -50 30
-45 -2 -49 14 -18 66 16 25 33 36 74 48 56 17 78 35 95 77 7 20 6 32 -5 48
-13 18 -25 21 -77 20 -34 0 -91 -9 -127 -21z"/>
<path d="M7135 8978 c-16 -6 -36 -15 -43 -21 -30 -24 -146 -289 -185 -422 -13
-45 -13 -54 4 -91 9 -23 22 -45 28 -48 5 -4 58 -7 116 -7 81 0 113 4 131 16
36 23 40 58 12 95 -22 31 -25 32 -80 26 l-57 -6 90 183 c95 194 108 232 87
259 -17 23 -65 30 -103 16z"/>
<path d="M7512 8970 c-7 -11 -24 -26 -39 -33 -35 -16 -67 -85 -144 -318 l-64
-191 24 -19 c28 -23 59 -24 105 -5 39 16 32 0 138 324 79 240 80 254 22 260
-21 2 -33 -3 -42 -18z"/>
<path d="M7953 8983 c-29 -6 -35 -14 -108 -155 -71 -136 -70 -136 -78 7 -6
105 -20 135 -62 135 -19 0 -39 -8 -50 -20 -17 -18 -17 -36 -9 -277 l9 -257 37
-14 c75 -29 106 3 233 243 32 61 80 147 107 192 42 69 48 84 39 102 -18 32
-71 52 -118 44z"/>
<path d="M8285 8985 c-5 -2 -35 -11 -65 -19 -75 -21 -82 -27 -90 -77 -5 -24
-26 -84 -48 -134 -45 -104 -72 -210 -72 -289 0 -79 18 -90 148 -84 81 3 103 7
129 26 34 24 53 64 34 70 -6 2 -11 12 -11 23 0 17 -8 19 -70 19 -78 0 -82 4
-54 64 13 27 25 36 53 41 50 10 69 21 87 56 22 44 15 54 -39 50 -55 -3 -59 8
-24 60 15 22 38 39 67 50 73 26 80 30 95 60 32 61 9 89 -73 88 -31 0 -61 -2
-67 -4z"/>
<path d="M2975 8957 c-94 -44 -190 -176 -216 -298 -15 -67 -6 -160 18 -201 41
-71 149 -93 243 -51 81 37 85 43 70 96 -15 56 -37 66 -91 41 -116 -52 -129
104 -19 218 53 55 80 62 80 21 0 -54 37 -73 94 -49 44 18 68 64 69 129 1 45
-3 53 -36 83 -34 31 -42 34 -99 34 -45 0 -78 -7 -113 -23z"/>
<path d="M4313 8086 c-334 -81 -506 -464 -351 -782 62 -127 185 -234 316 -274
63 -20 96 -20 1482 -20 1386 0 1419 0 1482 20 242 75 400 328 367 589 -12 96
-41 174 -95 253 -76 112 -200 194 -328 217 -92 17 -2803 14 -2873 -3z m1447
-181 c0 -3 -10 -21 -22 -40 -22 -33 -26 -35 -80 -35 l-56 0 14 -30 c15 -29 18
-30 80 -30 35 0 64 -3 64 -6 0 -4 -9 -22 -21 -40 -18 -30 -26 -34 -63 -34 -39
0 -43 -3 -55 -35 -7 -19 -24 -49 -39 -66 -28 -34 -113 -79 -149 -79 -12 0 -24
-3 -27 -8 -2 -4 43 -66 101 -137 58 -72 119 -147 135 -167 l30 -38 -65 0 -65
0 -136 170 c-102 128 -136 178 -136 199 0 28 1 28 77 35 42 4 89 14 104 21 34
18 69 62 69 86 0 18 -10 19 -135 19 l-135 0 26 40 27 40 105 0 c93 0 103 2 92
16 -25 30 -56 39 -153 44 l-97 5 25 38 26 37 229 0 c127 0 230 -2 230 -5z
m640 -57 c0 -36 -10 -56 -61 -128 -107 -150 -149 -253 -149 -372 l0 -68 -106
0 -105 0 6 58 c14 111 70 241 150 347 l35 45 -145 0 -145 0 0 80 0 80 260 0
260 0 0 -42z m540 -38 l0 -79 -142 -3 -143 -3 -3 -34 c-3 -27 0 -33 12 -28
166 64 307 -9 323 -166 7 -74 -33 -150 -100 -191 -42 -26 -61 -31 -137 -34
-96 -5 -142 5 -202 44 -42 27 -78 88 -78 134 l0 30 79 0 79 0 5 -29 c7 -36 37
-54 90 -54 52 0 82 30 82 82 0 48 -25 78 -70 87 -32 6 -89 -15 -97 -34 -2 -5
-35 -5 -76 1 l-73 10 5 46 c3 25 8 87 11 136 3 50 8 107 11 128 l6 37 209 0
209 0 0 -80z m367 30 c-7 -55 -7 -54 47 -17 28 20 29 20 43 1 36 -48 36 -52
-12 -77 l-46 -23 46 -22 46 -22 -16 -29 c-21 -41 -31 -45 -63 -23 -52 36 -52
36 -45 -18 l6 -50 -46 0 -46 0 6 51 6 52 -39 -27 c-21 -14 -42 -26 -45 -26 -4
0 -16 16 -28 36 l-21 35 47 21 47 21 -40 20 c-51 25 -49 22 -34 57 17 41 25
44 58 22 56 -39 56 -39 48 16 l-7 52 47 0 47 0 -6 -50z m-2455 -28 c66 -33 91
-72 96 -148 5 -76 -17 -132 -79 -199 -50 -55 -132 -105 -171 -105 -30 0 -68
40 -68 72 0 15 -3 17 -19 8 -22 -11 -61 -13 -86 -4 -45 18 -59 118 -25 184 36
70 121 116 169 91 14 -8 27 -8 39 -2 26 14 71 1 89 -26 15 -23 14 -30 -26
-129 -23 -59 -40 -108 -37 -111 7 -7 58 76 74 122 28 83 10 189 -37 215 -51
27 -136 8 -208 -47 -76 -58 -144 -208 -129 -286 10 -53 50 -81 101 -72 77 13
90 12 90 -10 0 -41 -101 -59 -186 -33 -53 15 -115 71 -129 114 -24 72 9 176
80 257 41 46 150 110 216 126 70 18 193 9 246 -17z"/>
<path d="M4621 7631 c-16 -17 -33 -48 -38 -69 -10 -38 -2 -82 16 -82 18 0 70
70 76 104 14 74 -10 95 -54 47z"/>
<path d="M10223 8000 c-3 -11 -13 -20 -22 -20 -13 0 -13 -2 -2 -9 11 -7 8 -12
-14 -23 l-28 -15 27 -7 c15 -4 24 -11 21 -16 -3 -6 3 -10 15 -10 12 0 28 -7
36 -15 13 -13 10 -22 -23 -79 -36 -61 -40 -64 -70 -61 -18 2 -33 0 -33 -6 0
-6 -5 -7 -10 -4 -6 3 -13 0 -16 -9 -5 -12 -10 -13 -30 -4 -17 8 -27 8 -39 -2
-12 -10 -18 -10 -30 0 -13 10 -15 9 -15 -9 0 -24 -7 -26 -29 -7 -9 7 -26 17
-38 20 -19 6 -23 3 -23 -12 0 -15 -5 -19 -20 -15 -11 3 -20 0 -20 -6 0 -6 -10
-11 -21 -11 -19 0 -21 -4 -16 -34 5 -34 5 -35 -19 -24 -18 8 -31 9 -42 2 -9
-6 -32 -9 -50 -7 -22 3 -34 -1 -38 -11 -5 -12 -11 -13 -24 -6 -29 16 -32 12
-28 -27 6 -50 -17 -74 -52 -56 -23 12 -26 11 -34 -12 -6 -14 -13 -25 -18 -25
-4 0 -8 -6 -8 -14 0 -8 -7 -17 -16 -20 -8 -3 -13 -10 -9 -15 3 -5 -5 -11 -17
-13 -13 -2 -22 -9 -21 -16 2 -6 -4 -12 -12 -12 -8 0 -15 -4 -15 -10 0 -5 5
-10 11 -10 22 0 -4 -20 -41 -31 -40 -12 -54 -29 -25 -29 13 0 13 -3 3 -20 -7
-11 -19 -20 -27 -20 -11 0 -11 -3 -1 -15 10 -12 9 -15 -6 -15 -15 0 -10 -8 20
-36 39 -36 39 -36 18 -48 -27 -14 -19 -26 18 -26 14 0 30 -4 36 -10 6 -6 19
-5 36 4 16 9 30 10 36 4 6 -6 25 -3 51 8 23 9 44 15 46 12 2 -2 -23 -32 -56
-67 -33 -35 -58 -69 -56 -75 2 -6 -3 -16 -11 -22 -12 -9 -9 -13 17 -24 20 -8
30 -18 27 -26 -20 -48 -20 -47 6 -41 21 6 24 3 24 -16 -1 -12 -8 -27 -16 -34
-13 -11 -13 -12 2 -13 10 0 17 -6 15 -12 -1 -7 4 -12 11 -11 16 4 15 -2 -5
-22 -14 -14 -14 -18 -2 -25 11 -7 11 -12 1 -22 -19 -19 -14 -28 16 -28 22 0
24 -2 12 -11 -11 -8 -3 -9 30 -4 l45 6 -38 -27 c-25 -19 -34 -30 -25 -35 9 -6
8 -12 -3 -25 -13 -16 -11 -17 35 -11 47 7 48 6 33 -11 -25 -27 -21 -35 8 -16
l26 17 -11 -27 c-9 -25 -9 -26 13 -15 12 6 30 19 40 27 15 14 20 14 27 2 7
-11 12 -11 32 2 12 8 26 15 29 14 4 -1 16 7 28 18 20 18 20 18 11 -13 -9 -33
4 -43 27 -20 16 16 66 -19 60 -42 -3 -12 2 -19 15 -21 19 -3 19 -4 -3 -32
l-22 -29 36 5 c33 4 36 2 31 -15 -6 -18 -3 -19 30 -14 33 5 35 4 26 -13 -13
-24 3 -35 30 -20 14 8 25 7 40 -2 18 -11 23 -10 34 5 14 18 36 23 36 7 0 -5 7
-7 16 -3 19 7 64 -16 64 -34 0 -7 11 -13 25 -13 22 0 23 -3 15 -24 -7 -20 -6
-23 9 -19 15 4 18 0 14 -21 -6 -28 13 -36 35 -14 9 9 12 9 12 -1 0 -20 62 -3
83 22 13 15 20 18 24 10 2 -7 14 -13 25 -13 14 0 18 -5 14 -15 -3 -8 -1 -15 4
-15 6 0 10 -11 10 -25 0 -27 18 -33 38 -13 9 9 15 8 26 -7 12 -17 17 -18 40
-7 14 6 26 16 26 22 0 5 4 10 9 10 14 0 23 -137 13 -195 l-8 -50 -13 58 c-7
31 -15 57 -18 57 -4 0 -15 -7 -25 -17 -17 -15 -18 -15 -18 0 0 24 -10 21 -47
-15 -32 -31 -33 -31 -47 -12 -14 19 -15 19 -39 -4 l-24 -22 -11 25 c-15 33
-28 32 -51 -5 -10 -16 -21 -27 -25 -22 -4 4 -14 -1 -21 -11 -9 -13 -15 -15
-20 -7 -6 9 -9 9 -15 0 -13 -22 -53 27 -46 56 8 29 1 30 -42 4 -40 -25 -42
-25 -42 1 0 15 -4 19 -16 15 -13 -5 -15 -1 -10 19 5 20 3 25 -13 25 -15 0 -19
5 -14 17 5 14 1 15 -35 11 l-41 -6 17 26 c16 25 16 25 -10 19 -18 -5 -28 -2
-31 7 -5 11 -14 12 -48 5 -23 -5 -44 -8 -46 -5 -3 3 -6 25 -7 50 -1 34 3 47
18 56 15 10 16 14 5 21 -8 5 -24 9 -36 9 -13 0 -23 5 -23 11 0 7 -12 10 -30 7
-20 -3 -30 0 -30 8 0 8 -6 11 -15 8 -11 -5 -17 3 -21 25 -4 17 -11 28 -16 25
-5 -3 -19 -8 -31 -10 -12 -2 -37 -7 -54 -10 -31 -6 -33 -4 -33 20 0 32 -22 43
-55 28 -18 -8 -25 -8 -28 1 -3 8 -13 4 -31 -12 l-26 -24 0 26 c0 19 -4 25 -15
21 -8 -4 -15 -1 -15 4 0 17 -39 10 -57 -10 -15 -16 -17 -16 -35 7 -29 37 -56
33 -64 -10 -4 -22 -12 -35 -21 -35 -13 0 -13 -3 -3 -15 11 -13 9 -15 -13 -15
-13 0 -37 -6 -52 -14 l-28 -15 28 -7 c28 -7 28 -8 -19 -21 -26 -8 -45 -17 -42
-20 3 -4 -1 -15 -10 -24 -16 -17 -15 -19 12 -30 25 -11 26 -13 9 -17 -10 -2
-28 -10 -40 -17 -11 -7 -44 -20 -72 -30 -49 -15 -71 -35 -40 -35 7 0 13 -9 14
-20 1 -11 -4 -20 -13 -20 -8 0 -14 -4 -14 -10 0 -5 -9 -10 -19 -10 -11 0 -32
-5 -48 -11 -21 -8 -24 -12 -13 -19 11 -7 8 -11 -13 -21 -36 -16 -34 -29 5 -29
29 0 30 -1 15 -18 -21 -23 -21 -32 -2 -32 8 0 15 -4 15 -10 0 -5 -6 -7 -13 -4
-8 3 -20 -2 -27 -11 -11 -13 -9 -30 8 -103 12 -48 26 -154 32 -237 6 -82 17
-228 25 -324 8 -96 13 -176 11 -178 -7 -8 -24 61 -30 122 -3 33 -15 167 -26
298 -26 311 -47 391 -114 441 -32 25 -113 56 -144 56 -10 0 -28 7 -40 16 -26
18 -103 23 -837 55 -275 12 -606 23 -735 23 -222 1 -238 0 -280 -21 -58 -28
-103 -76 -131 -138 -19 -42 -22 -68 -22 -165 0 -157 34 -674 45 -681 4 -3 9
-78 11 -167 2 -154 3 -162 22 -162 19 0 19 -1 -1 -18 -21 -16 -21 -20 -8 -67
25 -93 13 -167 -35 -209 -29 -26 -86 -23 -164 9 -36 14 -65 21 -70 16 -12 -12
5 -66 48 -156 18 -38 43 -92 56 -119 14 -32 53 -79 108 -132 l85 -83 4 -73 c4
-64 8 -77 35 -107 45 -52 67 -108 67 -174 0 -98 -48 -182 -99 -171 -91 19
-246 81 -288 116 -19 15 -33 0 -33 -34 0 -41 35 -112 68 -139 l27 -22 -40 7
c-103 18 -125 19 -125 4 0 -39 135 -152 276 -230 125 -70 154 -91 160 -118 3
-14 17 -46 30 -71 43 -83 29 -200 -31 -247 -61 -48 -121 -41 -294 34 -144 63
-160 51 -74 -56 24 -30 58 -65 76 -77 17 -13 27 -23 21 -23 -20 0 -118 38
-205 78 -89 42 -159 61 -159 45 0 -17 143 -124 205 -154 33 -16 76 -32 97 -35
22 -4 38 -13 41 -23 4 -18 217 -155 278 -179 31 -12 38 -21 44 -50 4 -20 22
-53 40 -73 54 -60 55 -151 4 -251 -18 -35 -24 -39 -47 -34 -15 4 -52 9 -82 12
-56 7 -186 50 -294 98 -77 34 -86 33 -86 -6 0 -55 32 -93 120 -144 136 -78 94
-68 -141 34 -160 70 -268 128 -306 164 -47 45 -77 121 -69 176 18 134 121 241
231 242 53 0 159 -30 265 -76 47 -20 105 -44 130 -54 25 -9 76 -31 113 -49 94
-42 76 -23 -36 39 -455 252 -629 376 -686 488 -29 57 -28 149 3 221 27 63 98
140 153 166 59 29 169 24 276 -12 48 -16 84 -26 80 -23 -5 4 -46 36 -93 72
-94 72 -171 143 -216 200 l-29 37 -190 -9 c-192 -10 -406 -28 -680 -58 l-150
-17 -7 -60 c-8 -75 -21 -117 -47 -154 -26 -36 -96 -71 -140 -71 l-34 0 7 -61
c6 -53 13 -68 56 -121 52 -65 114 -176 149 -268 12 -30 26 -64 30 -75 5 -11
21 -46 35 -78 41 -93 100 -133 224 -152 50 -8 50 -9 21 -120 -11 -44 -22 -89
-25 -101 -4 -13 -22 -26 -51 -37 -66 -25 -175 -101 -228 -159 -70 -78 -145
-197 -236 -377 -95 -188 -144 -246 -249 -298 -123 -60 -161 -63 -750 -63 -347
0 -530 3 -530 10 0 6 -55 10 -145 10 -90 0 -145 4 -145 10 0 6 -9 10 -20 10
-11 0 -20 5 -20 10 0 6 7 10 16 10 8 0 12 5 9 10 -4 6 -88 10 -220 10 l-214 0
11 -30 c14 -43 6 -147 -17 -194 -58 -120 -198 -177 -334 -137 -62 18 -143 100
-166 170 -17 52 -17 133 0 174 7 16 -8 17 -224 17 -127 0 -231 4 -231 8 0 4 5
13 11 19 8 8 6 18 -6 37 -15 23 -24 26 -74 26 l-56 0 -43 66 -44 66 22 52 c75
178 237 444 350 575 59 69 61 81 14 81 -9 0 -40 12 -71 26 -63 30 -52 30 -463
-1 -113 -9 -263 -20 -335 -25 -71 -5 -171 -12 -222 -16 l-92 -7 -14 34 c-9 22
-10 36 -4 41 7 4 6 27 -3 67 -13 61 -13 61 -44 56 -84 -13 -236 -25 -333 -25
l-108 0 -13 77 c-8 43 -17 143 -22 223 -9 155 -32 328 -57 425 -8 33 -19 137
-24 230 -7 156 -18 237 -33 252 -3 4 -6 -818 -6 -1825 l0 -1832 4606 0 c4202
0 4606 1 4600 16 -3 9 -52 97 -108 197 -56 100 -182 340 -279 532 -269 535
-280 554 -384 633 -16 13 -25 21 -19 18 13 -6 230 -42 309 -51 76 -8 117 -36
192 -128 58 -71 124 -139 129 -134 1 1 -6 27 -16 57 -39 113 -20 182 68 239
87 57 99 72 164 201 22 42 23 55 21 220 -1 96 -7 216 -13 265 -14 124 -67 716
-75 839 -3 56 -8 108 -10 116 -6 24 -16 175 -20 323 -2 76 -7 163 -11 193 -3
30 -3 74 0 99 8 52 20 56 87 25 24 -11 55 -20 69 -20 l24 0 -24 18 c-14 9 -41
25 -60 35 -34 17 -34 17 -5 10 17 -3 82 -7 145 -9 l115 -2 21 32 c42 64 109
318 91 347 -6 9 -17 15 -24 12 -7 -3 -13 1 -13 8 0 7 -3 9 -7 6 -3 -4 -11 3
-17 15 -6 12 -23 25 -38 29 -15 4 -36 16 -48 27 -32 30 -78 33 -130 8 -40 -19
-50 -31 -91 -111 -25 -49 -53 -91 -61 -93 -24 -5 -75 82 -92 157 -10 45 -15
115 -15 207 1 77 -2 150 -5 164 -8 32 -56 532 -56 579 0 24 3 31 9 23 7 -12
12 -12 30 0 20 11 24 11 37 -6 12 -17 14 -18 14 -3 0 22 9 22 26 0 12 -16 15
-16 24 -3 9 12 10 9 4 -10 -4 -14 -9 -31 -11 -37 -7 -17 8 -16 35 2 20 14 21
14 16 0 -8 -21 8 -19 40 6 23 18 26 18 26 4 0 -15 2 -16 17 -4 13 11 17 11 20
2 7 -19 20 -16 43 9 l20 22 0 -24 c0 -19 3 -21 12 -12 17 17 27 15 22 -5 -2
-10 0 -25 6 -33 9 -13 12 -13 20 2 6 10 17 15 25 11 9 -3 22 0 30 7 12 10 15
10 15 0 0 -7 8 -10 20 -7 11 3 20 1 20 -4 0 -5 12 -9 26 -9 22 0 26 -4 22 -24
-4 -22 -3 -23 19 -15 19 7 23 5 23 -11 0 -24 8 -25 38 -4 18 12 22 13 22 1 0
-8 9 -22 21 -33 21 -19 21 -18 39 4 13 15 20 18 24 10 4 -9 10 -6 22 10 16 21
17 21 30 5 12 -17 13 -16 21 5 8 21 10 22 22 8 18 -21 34 -20 49 4 6 11 30 29
52 40 36 18 43 19 74 6 45 -19 53 -34 26 -53 -15 -11 -18 -19 -11 -26 7 -7 1
-22 -21 -50 -17 -21 -27 -42 -22 -45 22 -16 8 -47 -42 -96 -57 -56 -63 -66
-39 -66 14 0 14 -3 0 -30 -12 -23 -13 -30 -2 -30 9 0 11 -12 9 -41 -3 -27 -1
-39 6 -35 6 3 14 -3 17 -14 5 -16 10 -18 20 -10 10 8 14 7 17 -2 7 -20 38 9
39 36 0 18 1 19 8 3 6 -16 9 -16 31 8 18 19 26 22 32 13 6 -10 13 -7 27 10 11
12 22 18 25 13 8 -12 63 3 87 25 21 19 39 11 39 -19 0 -44 12 -69 31 -64 11 3
19 -2 22 -14 5 -20 51 -27 61 -11 3 5 18 9 34 10 39 1 55 -33 30 -69 -22 -34
-8 -99 22 -99 18 0 18 -2 5 -34 -15 -36 -12 -46 16 -46 10 0 16 -7 15 -17 -1
-14 5 -17 25 -15 21 2 25 -2 25 -20 -1 -31 30 -35 59 -8 21 20 23 20 30 3 4
-10 7 -111 5 -224 -1 -183 1 -219 23 -335 14 -71 38 -235 53 -364 l27 -236
-16 -223 c-9 -123 -18 -225 -20 -227 -2 -3 -177 69 -388 159 -545 233 -1024
406 -1051 379 -7 -7 -14 -39 -16 -72 -4 -48 2 -78 27 -152 50 -153 78 -276 90
-403 29 -303 42 -363 94 -455 29 -51 123 -189 172 -251 11 -15 30 -40 42 -55
21 -27 161 -207 221 -284 63 -81 266 -316 359 -416 55 -60 179 -194 275 -299
96 -104 189 -205 206 -224 l32 -33 0 2756 c0 2620 -1 2757 -17 2754 -15 -2
-19 6 -21 48 -3 45 0 52 18 57 20 5 20 7 20 805 l0 799 -25 27 c-29 31 -51 33
-60 6 -4 -11 -10 -18 -15 -15 -5 3 -11 -4 -15 -15 -4 -14 -15 -20 -35 -20 -16
0 -31 -4 -35 -10 -3 -5 -13 -6 -22 -3 -9 4 -21 -1 -29 -11 -7 -11 -18 -15 -25
-10 -8 5 -11 2 -7 -8 3 -8 -2 -19 -12 -25 -24 -16 -53 20 -54 67 -1 29 -5 35
-22 34 -16 0 -20 5 -16 23 3 18 1 22 -12 17 -10 -4 -18 0 -22 10 -3 9 -10 14
-14 11 -4 -2 -10 22 -13 54 -6 71 -28 116 -70 141 -41 25 -67 25 -74 0z m297
-400 c0 -5 -4 -10 -10 -10 -5 0 -10 5 -10 10 0 6 5 10 10 10 6 0 10 -4 10 -10z
m30 -110 c0 -17 -3 -19 -19 -8 -21 13 -19 28 5 28 8 0 14 -9 14 -20z m62 -42
c-7 -7 -12 -20 -12 -31 0 -14 5 -17 20 -12 11 4 20 2 20 -4 0 -6 18 -11 40
-11 35 0 40 -3 40 -22 0 -12 -12 -34 -26 -49 -14 -14 -26 -33 -27 -40 -2 -8
-6 -20 -10 -26 -6 -9 -3 -11 10 -6 10 3 -1 -13 -24 -36 -51 -49 -54 -65 -14
-56 20 4 34 1 45 -11 26 -25 16 -49 -22 -52 -27 -3 -32 -7 -27 -23 9 -29 -4
-23 -15 7 -8 21 -15 25 -35 22 -21 -4 -25 -1 -25 18 0 20 -5 24 -30 24 -16 0
-30 4 -30 9 0 5 -10 11 -21 14 l-21 6 21 27 c15 20 18 30 10 35 -7 4 -9 15 -5
25 5 14 9 15 15 5 7 -10 11 -10 22 1 8 8 22 17 32 21 10 4 17 17 17 32 0 14 7
28 15 31 24 10 18 43 -14 74 -16 16 -26 32 -23 35 3 3 23 5 46 5 31 0 37 -3
28 -12z m151 -1185 c4 -3 2 -12 -4 -20 -9 -10 -8 -13 0 -13 7 0 9 -5 5 -11 -4
-8 -9 -7 -15 2 -18 29 -6 63 14 42z m-3634 -170 c35 -3 64 -11 66 -17 25 -94
25 -95 58 -105 29 -9 971 -51 1154 -51 l73 0 0 43 c0 69 6 72 117 69 105 -3
191 -22 235 -53 71 -51 91 -131 118 -470 10 -140 33 -425 49 -634 17 -209 42
-522 56 -695 13 -173 38 -484 54 -690 17 -206 44 -548 61 -760 55 -682 61
-782 63 -930 2 -163 -7 -193 -72 -237 -58 -39 -4 -34 -1156 -113 -242 -16
-506 -34 -586 -39 -201 -14 -278 -2 -337 53 -61 55 -75 159 -117 861 -13 231
-36 607 -50 835 -33 547 -79 1314 -110 1835 -14 231 -30 500 -36 598 -15 236
-10 362 16 406 50 85 157 114 344 94z m-399 -1725 c0 -21 -3 -29 -10 -22 -5 5
-7 19 -4 32 9 31 14 27 14 -10z m2775 -637 c10 -17 -12 -21 -25 -6 -10 12 -10
15 3 15 9 0 18 -4 22 -9z m-2651 -307 c9 -24 7 -122 -3 -128 -12 -8 -21 29
-21 92 0 50 12 68 24 36z m-1199 -1258 c146 -39 320 -179 431 -346 23 -35 31
-40 52 -35 29 7 42 -7 42 -47 0 -23 -6 -29 -37 -36 -151 -37 -680 -176 -690
-181 -7 -4 -9 -12 -4 -19 6 -10 14 -9 40 4 45 22 141 29 196 14 26 -7 65 -30
92 -53 124 -110 125 -293 0 -403 -110 -97 -285 -84 -380 27 -77 89 -86 216
-25 317 16 26 23 30 34 21 8 -6 11 -16 8 -21 -3 -5 -7 -19 -9 -31 -2 -12 -6
-38 -9 -57 l-6 -35 11 35 c6 19 15 40 20 46 5 6 6 20 2 30 -6 17 -5 17 12 4
10 -8 49 -46 87 -84 38 -38 70 -67 73 -64 8 7 -234 243 -248 242 -16 -2 -269
-68 -380 -100 -70 -21 -91 -23 -102 -14 -22 18 -18 39 9 46 19 4 24 14 28 47
6 55 100 246 179 367 74 113 203 244 278 284 101 54 200 68 296 42z m-4645
-57 c0 -14 7 -19 25 -19 30 0 33 -20 5 -27 -17 -5 -18 -8 -8 -21 11 -13 10
-15 -9 -10 -15 4 -23 2 -23 -6 0 -7 -6 -20 -13 -31 -18 -24 -67 -13 -67 15 0
11 -7 20 -15 20 -18 0 -20 20 -2 20 6 0 4 5 -5 11 -36 20 -21 44 25 40 9 -1
17 4 17 11 0 9 13 14 35 15 28 1 35 -3 35 -18z m592 -105 l20 -19 -28 -6 c-46
-10 -154 -10 -154 0 0 5 12 19 28 31 33 27 101 23 134 -6z m-532 -155 c16 -28
5 -67 -34 -127 -33 -50 -33 -51 -9 -41 39 14 78 11 97 -10 15 -16 15 -20 2
-30 -9 -7 -43 -15 -76 -18 l-60 -6 15 -23 c65 -99 86 -175 66 -237 -13 -39
-77 -77 -132 -77 -37 0 -96 31 -117 61 -18 25 -27 24 -40 -6 -9 -19 -19 -25
-42 -25 -33 0 -38 17 -20 64 9 24 8 25 -16 16 -46 -18 -99 -12 -128 15 -14 13
-26 31 -26 40 0 28 29 73 62 96 18 13 39 29 45 35 7 7 18 14 24 16 7 2 -2 17
-20 35 -36 37 -38 51 -11 80 16 18 25 20 51 13 17 -5 37 -14 45 -21 11 -9 10
-2 -2 34 -18 53 -8 83 31 93 56 14 105 -27 105 -88 0 -20 7 -16 48 30 45 51
108 102 124 102 4 0 12 -9 18 -21z m5730 -28 c65 -23 86 -35 88 -51 3 -18 -6
-16 -91 24 -53 24 -104 49 -114 56 -16 10 -15 11 7 6 14 -2 63 -18 110 -35z
m-5470 -276 c0 -18 5 -19 29 -3 15 9 23 9 35 -1 21 -17 20 -48 0 -59 -13 -7
-8 -11 22 -17 22 -4 44 -11 51 -17 21 -17 3 -38 -33 -38 -32 0 -33 -1 -22 -25
16 -36 0 -45 -26 -14 l-22 26 -21 -36 c-28 -48 -60 -65 -96 -52 -29 11 -51 53
-42 81 4 12 -1 19 -15 23 -26 7 -26 27 -1 34 20 5 20 5 0 26 -42 45 -14 78 52
60 33 -9 38 -8 42 9 6 22 47 25 47 3z m250 -200 c0 -8 9 -15 20 -15 11 0 20
-4 20 -10 0 -5 -4 -10 -10 -10 -5 0 -10 -7 -10 -15 0 -8 -4 -14 -9 -12 -4 1
-18 -9 -29 -23 l-21 -25 -26 28 c-14 15 -23 31 -20 36 3 5 1 12 -5 16 -15 9
-2 25 21 25 10 0 19 5 19 10 0 6 11 10 25 10 16 0 25 -6 25 -15z m157 -62 c-3
-10 -5 -2 -5 17 0 19 2 27 5 18 2 -10 2 -26 0 -35z"/>
<path d="M8617 5642 c-25 -28 -21 -60 16 -114 17 -26 34 -47 37 -47 3 0 17 20
33 45 30 51 35 95 11 118 -21 22 -77 20 -97 -2z"/>
<path d="M7860 3682 c-59 -19 -65 -72 -15 -137 l34 -46 31 48 c16 26 30 60 30
74 0 38 -45 72 -80 61z"/>
<path d="M8856 2598 c-24 -34 -19 -61 20 -113 l37 -47 33 53 c38 59 39 62 23
92 -16 30 -28 37 -66 37 -22 0 -37 -7 -47 -22z"/>
<path d="M7061 2344 c-27 -34 -26 -44 4 -85 13 -19 30 -44 36 -56 12 -22 13
-20 45 30 39 60 42 89 14 117 -29 29 -74 26 -99 -6z"/>
<path d="M5513 1485 c-24 -10 -31 -18 -27 -30 5 -12 13 -15 28 -10 11 4 46 13
76 20 41 10 48 14 25 14 -23 1 -27 4 -15 11 24 16 -50 12 -87 -5z"/>
<path d="M5587 1433 c-15 -14 -7 -43 12 -43 24 0 33 13 25 34 -6 16 -25 21
-37 9z"/>
<path d="M5673 1384 c-3 -8 -1 -20 5 -26 16 -16 42 -2 42 22 0 24 -38 28 -47
4z"/>
<path d="M5437 1313 c-4 -3 -7 -15 -7 -25 0 -23 38 -25 47 -2 8 21 -24 43 -40
27z"/>
<path d="M5723 1294 c-7 -18 14 -35 34 -27 7 3 13 14 13 24 0 24 -38 26 -47 3z"/>
<path d="M5381 1270 c-1 -8 -4 -26 -6 -40 -5 -22 -4 -23 5 -5 8 16 9 13 7 -20
-1 -29 2 -39 12 -37 9 2 11 -3 7 -15 -4 -9 -4 -14 0 -10 8 8 34 -11 34 -25 0
-6 -8 -4 -17 3 -15 11 -15 10 1 -8 10 -13 22 -20 26 -18 5 3 27 -6 50 -19 23
-13 37 -25 31 -27 -6 -2 25 -4 68 -4 44 0 75 3 69 6 -6 4 -5 8 3 11 7 2 -17 2
-53 0 -111 -7 -187 48 -219 160 -9 35 -18 56 -18 48z"/>
<path d="M5566 1225 c-3 -8 -1 -15 4 -15 13 0 22 18 11 24 -5 3 -11 -1 -15 -9z"/>
<path d="M5449 1204 c-11 -14 -10 -18 6 -30 16 -12 21 -12 34 0 12 12 12 18 1
30 -16 20 -24 20 -41 0z"/>
<path d="M5704 1199 c-8 -14 21 -43 35 -35 19 12 13 46 -8 46 -11 0 -23 -5
-27 -11z"/>
<path d="M5524 1136 c-8 -21 3 -36 27 -36 15 0 20 6 17 22 -4 27 -35 37 -44
14z"/>
<path d="M5628 1138 c-8 -21 2 -38 22 -38 19 0 30 17 23 38 -3 6 -13 12 -23
12 -10 0 -20 -6 -22 -12z"/>
<path d="M5583 1033 c9 -2 25 -2 35 0 9 3 1 5 -18 5 -19 0 -27 -2 -17 -5z"/>
<path d="M30 6630 c-6 -11 -15 -18 -21 -15 -6 4 -8 -54 -7 -162 3 -164 4 -168
25 -171 14 -2 26 4 32 17 6 11 32 34 57 52 31 21 42 34 34 39 -7 4 -9 13 -5
20 4 7 2 16 -6 21 -12 8 -12 10 0 18 9 6 10 10 2 16 -9 5 -9 10 0 21 9 11 9
14 -1 14 -9 0 -8 6 4 19 17 18 16 19 -23 26 -38 6 -39 8 -29 30 8 19 7 27 -4
39 -9 8 -18 12 -22 9 -3 -4 -6 1 -6 10 0 23 -17 21 -30 -3z"/>
<path d="M250 6332 c0 -10 -7 -12 -24 -8 -18 4 -25 1 -28 -12 -5 -17 -16 -22
-60 -23 -10 0 -18 -6 -18 -14 0 -7 -13 -19 -30 -27 -31 -13 -37 -23 -20 -33 6
-3 10 -12 10 -18 0 -9 -2 -9 -8 -1 -7 11 -32 18 -59 15 -16 -1 -19 -341 -3
-341 6 0 10 7 10 16 0 8 5 12 10 9 6 -3 10 -2 10 4 0 5 12 9 27 8 22 -2 31 5
45 32 24 48 38 60 38 33 0 -23 14 -29 25 -12 4 6 14 10 23 8 10 -1 23 1 30 5
7 5 12 3 12 -3 0 -6 5 -8 10 -5 6 3 17 -1 26 -9 21 -22 31 -20 38 7 5 18 8 20
16 7 8 -12 10 -11 10 8 0 13 4 21 9 17 6 -3 14 3 20 12 7 12 10 13 11 4 0 -7
6 -11 14 -8 8 3 17 -1 20 -9 3 -8 12 -14 21 -14 11 0 15 7 12 28 -5 28 17 62
39 62 7 0 19 10 25 23 7 12 17 26 23 30 8 6 8 10 -1 13 -7 3 -9 12 -6 20 3 8
-1 14 -10 14 -8 0 -17 7 -21 15 -3 8 -9 15 -13 14 -4 -1 -15 -1 -23 0 -11 1
-11 4 -2 13 16 16 15 96 -2 113 -11 11 -17 11 -40 0 -14 -8 -26 -11 -26 -7 0
3 -5 1 -12 -6 -16 -16 -23 -15 -44 6 -10 9 -21 18 -26 18 -4 1 -9 2 -10 4 -2
1 -13 3 -25 4 -15 2 -23 -3 -23 -12z"/>
<path d="M500 5869 c0 -6 -9 -9 -20 -6 -10 3 -24 -1 -31 -9 -6 -8 -20 -14 -30
-14 -10 0 -20 -4 -23 -8 -7 -12 -75 -5 -92 9 -11 9 -18 8 -32 -3 -9 -9 -22
-13 -29 -11 -6 2 -19 -6 -28 -19 l-16 -23 -23 29 c-20 24 -26 27 -45 17 -11
-7 -21 -18 -21 -25 0 -7 -13 -26 -28 -43 -21 -21 -34 -27 -48 -22 -10 3 -22 5
-26 2 -5 -2 -8 -435 -7 -961 0 -581 4 -948 9 -934 11 27 18 28 36 5 13 -17 14
-16 20 5 5 17 10 20 19 12 9 -8 14 -5 18 10 3 11 11 19 18 18 7 -2 15 6 17 17
7 34 21 41 38 17 12 -18 19 -20 35 -12 13 8 19 7 19 0 0 -6 5 -8 10 -5 5 3 10
1 10 -6 0 -8 4 -8 15 1 12 10 15 10 15 -4 0 -9 4 -16 9 -16 5 0 13 -10 16 -21
6 -17 9 -19 16 -8 8 12 11 12 19 -1 8 -12 10 -11 10 8 0 22 14 30 25 13 9 -15
65 21 65 42 0 9 7 17 15 17 16 0 16 1 20 39 1 13 7 26 12 30 10 7 10 101 0
118 -6 10 20 27 61 38 13 4 22 2 22 -5 0 -17 28 -42 40 -35 5 3 10 -1 10 -10
0 -11 5 -15 15 -12 8 4 17 2 20 -3 8 -12 55 34 55 54 0 9 5 16 10 16 7 0 7 6
0 20 -9 17 -8 20 12 17 12 -1 30 -9 39 -18 9 -9 22 -18 28 -20 9 -3 8 -14 -4
-41 -22 -54 -20 -61 15 -55 16 4 32 2 36 -4 4 -7 11 -6 20 2 11 9 14 7 14 -15
0 -17 4 -25 11 -21 6 4 17 -1 24 -11 8 -11 15 -15 15 -11 0 5 10 1 22 -7 12
-9 27 -16 33 -16 17 0 56 40 50 50 -5 9 28 50 41 50 7 0 34 27 34 34 0 3 -8 6
-17 6 -13 0 -14 3 -6 11 13 13 8 22 -39 69 -22 22 -25 29 -13 34 8 3 15 12 15
21 0 8 6 15 13 15 18 0 10 60 -9 67 -19 7 -18 23 1 23 8 0 15 -5 15 -11 0 -7
14 -8 40 -4 33 6 40 4 40 -9 0 -20 10 -20 38 0 20 14 22 14 22 -2 0 -16 1 -16
19 0 12 11 21 14 26 7 11 -19 44 -12 61 14 15 23 15 31 4 66 -10 28 -10 43 -3
50 8 8 15 1 24 -24 l12 -35 20 25 c12 15 22 21 26 14 4 -6 13 6 20 26 11 30
16 34 25 22 13 -18 46 -32 46 -20 0 17 27 19 59 4 40 -20 49 -11 26 23 l-17
27 29 -6 c39 -8 52 2 55 43 2 19 8 38 13 43 6 4 -1 17 -19 31 -16 13 -25 29
-22 35 4 6 1 11 -8 11 -10 0 -13 8 -11 30 3 22 0 30 -12 30 -11 0 -13 4 -6 13
6 6 8 29 6 49 -5 34 -7 36 -29 28 -19 -8 -24 -6 -24 7 0 14 -2 14 -20 -2 -19
-17 -20 -17 -20 -1 0 10 -3 16 -8 14 -4 -1 -27 -13 -52 -24 -72 -34 -122 -55
-125 -52 -1 2 -5 22 -8 46 -4 35 -2 42 12 42 10 0 25 15 34 33 12 25 16 27 17
12 0 -17 2 -17 10 -5 8 12 10 12 10 -5 1 -19 1 -19 14 -2 11 14 15 15 19 5 3
-8 6 -6 6 5 1 10 6 15 11 12 6 -3 10 -1 10 4 0 6 7 11 16 11 14 0 14 3 4 15
-7 8 -9 15 -4 15 5 0 4 4 -1 8 -6 4 -16 19 -22 35 -8 16 -20 27 -33 27 -11 0
-20 4 -20 9 0 23 -42 17 -76 -10 -20 -15 -45 -31 -56 -35 -12 -3 -32 -18 -45
-32 -12 -14 -23 -20 -23 -13 0 8 -5 8 -19 -1 -15 -9 -23 -9 -33 0 -8 6 -19 7
-28 2 -8 -5 -18 -6 -22 -4 -4 3 -8 0 -8 -5 0 -6 -12 -11 -26 -11 -15 0 -42
-10 -62 -22 l-35 -21 6 29 c3 16 7 38 9 49 2 11 9 24 16 28 6 4 12 14 12 22 0
9 6 12 15 9 8 -4 15 -1 15 6 0 6 5 8 10 5 6 -3 10 0 10 8 0 8 7 17 15 21 8 3
15 15 15 27 l0 22 25 -23 c14 -13 25 -18 25 -11 0 7 4 10 9 6 5 -3 12 -1 15 4
4 5 2 13 -4 16 -8 5 -7 11 1 21 9 11 8 14 -2 14 -8 1 8 10 35 20 63 25 78 39
48 46 -12 4 -22 10 -22 15 0 5 -11 9 -24 9 -16 0 -27 7 -31 20 -3 11 -12 20
-18 21 -7 0 -28 2 -47 3 -19 1 -40 5 -46 9 -6 3 -27 2 -47 -4 -19 -5 -55 -11
-79 -14 -23 -2 -44 -8 -46 -14 -2 -5 -15 -4 -33 2 -27 11 -32 9 -54 -18 -25
-32 -40 -62 -49 -107 -4 -16 -13 -28 -22 -28 -10 0 -14 -6 -11 -15 4 -8 1 -17
-4 -21 -6 -3 -9 -14 -6 -24 3 -11 -1 -21 -9 -24 -8 -3 -14 -18 -14 -33 0 -27
-24 -112 -40 -143 -5 -8 -13 -14 -19 -13 -6 2 -11 -6 -11 -17 0 -13 -10 -24
-25 -30 -14 -5 -28 -17 -31 -25 -4 -8 -12 -15 -20 -15 -8 0 -14 -4 -14 -10 0
-5 -13 -7 -30 -3 -18 3 -30 1 -30 -5 0 -6 -20 -20 -45 -31 -25 -11 -48 -26
-51 -34 -6 -16 -46 -16 -51 0 -2 6 -13 9 -23 6 -12 -3 -20 0 -20 6 0 7 -5 9
-12 5 -7 -5 -27 -7 -45 -5 -27 2 -36 -3 -51 -28 -10 -17 -22 -28 -25 -24 -6 6
-27 -2 -79 -28 -26 -13 -28 -12 -16 21 10 31 74 83 89 74 5 -3 19 1 31 7 13 7
34 14 48 15 36 2 70 15 70 26 0 5 7 8 15 6 9 -2 31 15 50 37 31 36 36 38 45
23 6 -10 20 -18 30 -18 11 0 20 -4 20 -8 0 -4 16 -6 36 -4 25 3 38 10 41 23 3
11 10 19 15 19 6 0 7 11 4 25 -4 14 -2 25 4 25 5 0 10 9 10 20 0 11 7 20 15
20 8 0 15 5 15 10 0 6 9 10 20 10 17 0 19 5 14 25 -4 18 -1 27 10 31 22 9 20
41 -4 56 -13 9 -20 24 -20 45 0 36 -18 44 -40 18 -15 -18 -37 -20 -42 -4 -3 8
-14 6 -37 -6 -31 -16 -35 -16 -43 -1 -7 13 -13 14 -29 5 -17 -9 -21 -7 -26 10
-6 23 -18 27 -28 11 -3 -5 -17 -10 -30 -10 -13 0 -27 -5 -30 -10 -5 -8 -11 -7
-21 1 -11 9 -14 9 -14 -1 0 -10 -5 -9 -17 2 -10 9 -30 14 -46 13 -15 -2 -27 1
-27 7 0 6 -9 8 -20 5 -23 -6 -26 7 -8 27 11 11 15 11 25 -3 9 -11 12 -12 13
-3 0 9 7 11 20 7 14 -5 20 -2 20 9 0 15 4 18 33 20 22 2 48 32 41 49 -3 9 -1
24 5 34 7 12 11 13 11 4 0 -7 6 -11 14 -8 9 4 20 -6 31 -29 11 -24 23 -34 38
-34 13 0 28 -5 35 -12 8 -8 17 -5 36 13 28 27 33 65 12 94 -12 16 -9 21 19 47
40 34 45 35 45 2 l0 -25 30 21 c28 20 30 20 30 3 0 -15 2 -16 10 -3 6 10 10
11 10 3 0 -20 18 -15 25 6 4 13 13 17 32 15 42 -4 83 7 83 23 0 8 9 17 20 20
22 6 36 44 24 65 -14 23 -13 58 2 58 8 0 14 5 14 10 0 6 8 10 18 10 15 1 15 2
-2 15 -19 14 -19 15 0 36 17 19 18 21 1 30 -16 9 -16 12 -1 40 15 30 15 30 -5
19 -18 -9 -21 -8 -21 10 0 25 -28 70 -43 70 -6 0 -21 -10 -34 -22 -14 -13 -23
-17 -23 -9 0 10 -4 10 -13 3 -8 -7 -17 -7 -30 2 -21 16 -22 45 -2 52 8 4 12
10 9 15 -3 5 0 9 5 9 8 0 7 6 -1 19 -13 21 -96 37 -111 22 -7 -7 -17 -6 -29 0
-13 7 -18 6 -18 -2z m-430 -689 c0 -5 -5 -10 -11 -10 -5 0 -7 5 -4 10 3 6 8
10 11 10 2 0 4 -4 4 -10z"/>
<path d="M3857 5044 c-122 -26 -112 -11 -130 -183 -8 -83 -18 -155 -21 -160
-3 -5 -40 -28 -81 -50 -90 -50 -101 -74 -14 -30 34 17 65 27 69 22 5 -4 38
-63 75 -130 37 -68 71 -123 76 -123 5 0 9 2 9 4 0 13 -105 254 -117 267 -10
13 -11 18 -2 21 7 2 16 48 24 121 6 64 14 119 16 122 3 3 85 8 182 11 l177 7
0 -88 c0 -110 12 -103 39 22 27 119 27 123 -4 123 -15 0 -25 -6 -25 -14 0 -16
-45 -22 -242 -32 l-128 -6 0 25 c0 14 7 28 17 31 32 13 270 36 373 37 68 0 98
3 85 9 -33 14 -303 10 -378 -6z"/>
<path d="M3318 4243 c-49 -56 -64 -130 -42 -203 21 -71 22 -72 45 -59 17 8 18
13 8 25 -20 25 -24 172 -6 217 18 42 17 45 -5 20z"/>
<path d="M3307 3943 c3 -6 10 -10 18 -7 7 3 24 -14 41 -43 88 -152 238 -361
242 -339 2 9 -17 42 -41 73 -61 80 -174 248 -197 293 -15 29 -25 38 -43 36
-14 0 -23 -6 -20 -13z"/>
<path d="M4886 3648 c-9 -45 -16 -459 -7 -454 5 3 11 29 15 58 4 29 15 118 26
198 31 233 31 220 -2 220 -21 0 -29 -6 -32 -22z"/>
<path d="M4495 3616 c-54 -23 -124 -127 -111 -162 9 -23 23 -16 34 15 13 37
77 108 114 127 16 8 26 19 23 24 -8 13 -24 12 -60 -4z"/>
<path d="M4525 3434 c-22 -8 -50 -12 -61 -10 -19 5 -22 0 -28 -35 -6 -40 -5
-43 36 -78 23 -20 49 -36 58 -37 8 0 27 -7 43 -14 21 -10 33 -11 53 -1 19 8
30 9 39 1 10 -8 18 -4 34 16 49 62 39 118 -29 152 -51 25 -88 27 -145 6z"/>
<path d="M9350 3390 c-7 -17 -11 -33 -8 -35 8 -9 58 35 58 51 0 27 -37 15 -50
-16z"/>
<path d="M4185 3340 c-22 -5 -125 -25 -230 -45 -104 -20 -212 -41 -238 -47
l-48 -10 6 -36 c4 -21 8 -46 10 -58 4 -19 -3 -21 -103 -33 -59 -6 -215 -27
-346 -46 -132 -19 -241 -35 -244 -35 -2 0 -2 14 2 31 7 37 36 41 -319 -48
-212 -54 -282 -68 -377 -74 -149 -9 -217 -29 -271 -78 -23 -22 -61 -44 -84
-51 l-43 -13 0 -166 c0 -189 -4 -210 -34 -212 -11 -1 -5 -4 14 -8 45 -8 56
-41 13 -41 l-28 -1 35 -19 c27 -14 37 -16 45 -7 6 7 30 29 54 50 l45 37 833 0
c814 0 833 0 833 -19 0 -11 2 -26 5 -33 4 -10 -18 -26 -68 -52 -136 -69 -232
-192 -258 -331 -7 -34 -9 -99 -5 -152 10 -161 57 -250 156 -296 43 -20 64 -21
517 -25 l472 -4 39 84 c118 248 159 366 213 603 20 85 17 283 -5 365 -44 165
-148 385 -182 385 -18 0 -65 62 -58 78 3 8 -1 21 -8 28 -62 65 -115 164 -124
233 -6 42 -9 46 -34 46 -15 0 -54 2 -86 5 -32 2 -77 0 -99 -5z m-355 -256
c208 -56 546 -177 673 -240 49 -26 54 -37 38 -90 -5 -16 -17 -56 -26 -89 -65
-226 -183 -525 -331 -832 -53 -111 -77 -153 -90 -153 -10 0 -29 -14 -44 -32
-30 -36 -50 -31 -50 13 0 19 -5 29 -15 29 -11 0 -14 7 -10 23 13 54 41 186
111 532 41 204 77 377 79 385 4 13 -42 15 -378 15 -331 0 -393 2 -466 18 -101
22 -144 43 -193 94 -37 38 -88 133 -88 165 0 11 11 20 28 24 15 4 32 10 37 14
6 4 44 19 85 35 41 15 89 33 105 40 89 38 233 63 420 74 11 0 63 -11 115 -25z
m785 -831 c24 -78 49 -168 56 -201 l12 -59 -38 -63 c-33 -54 -39 -60 -48 -44
-5 11 -19 29 -29 41 -11 12 -17 26 -13 33 3 6 1 9 -6 8 -6 -2 -21 14 -33 34
-11 21 -41 70 -65 109 -38 62 -43 77 -38 112 3 23 1 49 -4 58 -6 11 -5 20 1
24 6 3 14 -4 19 -17 6 -13 10 -18 10 -11 1 7 15 28 32 48 17 19 28 35 24 35
-4 0 8 19 26 41 39 49 30 64 94 -148z"/>
<path d="M4348 2778 c-16 -5 -28 -14 -28 -19 0 -15 23 -10 50 11 27 21 20 24
-22 8z"/>
<path d="M4255 2714 l-40 -35 45 25 c25 14 46 30 48 36 7 19 -13 10 -53 -26z"/>
<path d="M2160 1344 c-14 -36 -13 -154 1 -134 8 12 10 10 5 -9 -6 -29 11 -64
26 -55 7 5 9 2 5 -8 -3 -10 6 -27 25 -44 17 -16 28 -23 23 -15 -5 9 -3 12 6 9
8 -3 13 -10 12 -16 -2 -7 4 -9 14 -5 9 4 14 2 11 -3 -11 -16 136 -17 176 0 20
8 36 17 36 20 0 3 -17 -2 -37 -11 -25 -10 -58 -14 -100 -11 -69 4 -97 20 -147
82 -28 35 -31 44 -31 111 0 58 4 77 19 94 19 21 19 21 -8 21 -19 0 -29 -7 -36
-26z m30 -189 c0 -5 -5 -3 -10 5 -5 8 -10 20 -10 25 0 6 5 3 10 -5 5 -8 10
-19 10 -25z m35 -45 c10 -11 16 -20 13 -20 -3 0 -13 9 -23 20 -10 11 -16 20
-13 20 3 0 13 -9 23 -20z"/>
<path d="M2265 1360 c3 -5 12 -10 20 -10 8 0 17 5 20 10 4 6 -5 10 -20 10 -15
0 -24 -4 -20 -10z"/>
<path d="M2455 1360 c3 -5 12 -10 20 -10 8 0 17 5 20 10 4 6 -5 10 -20 10 -15
0 -24 -4 -20 -10z"/>
<path d="M2322 1328 c-20 -20 -15 -54 8 -54 23 0 27 14 5 22 -11 5 -12 11 -4
25 11 22 8 24 -9 7z"/>
<path d="M2217 1314 c-12 -12 -8 -42 6 -47 21 -8 39 8 35 29 -3 19 -29 30 -41
18z"/>
<path d="M2504 1299 c-8 -14 21 -43 35 -35 6 4 11 16 11 27 0 21 -34 27 -46 8z"/>
<path d="M2352 1236 c-7 -16 -8 -26 -1 -26 12 0 22 25 17 41 -2 6 -9 0 -16
-15z"/>
<path d="M2230 1204 c-11 -12 -10 -18 3 -32 16 -15 18 -15 34 0 13 14 14 20 3
32 -7 9 -16 16 -20 16 -4 0 -13 -7 -20 -16z"/>
<path d="M2484 1199 c-3 -6 1 -18 9 -27 13 -12 19 -13 31 -3 8 7 12 19 9 27
-6 17 -39 19 -49 3z"/>
<path d="M2304 1136 c-8 -21 3 -36 27 -36 15 0 20 6 17 22 -4 27 -35 37 -44
14z"/>
<path d="M2410 1135 c-15 -18 -5 -35 20 -35 10 0 22 5 25 10 7 11 -12 40 -25
40 -4 0 -13 -7 -20 -15z"/>
<path d="M2358 1033 c12 -2 32 -2 45 0 12 2 2 4 -23 4 -25 0 -35 -2 -22 -4z"/>
</g>
</svg>
