<?xml version="1.0" standalone="no"?>
<!DOCTYPE svg PUBLIC "-//W3C//DTD SVG 20010904//EN"
 "http://www.w3.org/TR/2001/REC-SVG-20010904/DTD/svg10.dtd">
<svg version="1.0" xmlns="http://www.w3.org/2000/svg"
 width="512.000000pt" height="512.000000pt" viewBox="0 0 512.000000 512.000000"
 preserveAspectRatio="xMidYMid meet">

<g transform="translate(0.000000,512.000000) scale(0.100000,-0.100000)"
fill="#000000" stroke="none">
<path d="M2015 4786 c-94 -41 -124 -169 -58 -247 45 -53 73 -59 268 -59 l175
0 0 -164 0 -163 -62 -7 c-192 -21 -417 -87 -605 -176 -521 -248 -902 -716
-1039 -1275 -251 -1030 381 -2069 1411 -2321 736 -179 1519 97 1977 698 415
545 510 1260 252 1893 -25 61 -64 144 -86 185 -48 89 -169 269 -198 295 -11
10 -20 23 -20 29 0 5 63 73 139 151 150 150 161 171 146 252 -9 49 -69 109
-118 118 -81 16 -101 4 -255 -148 -107 -106 -146 -139 -156 -132 -7 6 -46 35
-87 66 -260 195 -598 330 -916 365 l-63 7 0 163 0 163 189 3 c173 3 192 5 217
24 53 39 69 71 69 134 0 63 -16 95 -69 134 -27 21 -40 21 -554 23 -423 2 -533
0 -557 -11z m849 -976 c648 -130 1137 -622 1268 -1275 30 -148 32 -421 4 -570
-108 -586 -511 -1053 -1071 -1242 -178 -60 -295 -77 -510 -77 -158 0 -208 4
-295 22 -373 80 -692 266 -920 540 -182 217 -296 456 -352 737 -32 159 -32
434 0 590 87 434 326 795 687 1036 209 140 430 220 730 263 73 11 363 -4 459
-24z"/>
<path d="M2495 3346 c-37 -17 -70 -52 -84 -89 -7 -19 -11 -201 -11 -538 0
-414 3 -516 14 -542 8 -18 135 -152 282 -299 290 -287 293 -290 381 -273 49 9
109 69 118 118 17 87 12 94 -240 347 l-234 235 -3 477 c-3 463 -4 477 -24 504
-11 15 -32 37 -46 47 -34 25 -113 32 -153 13z"/>
</g>
</svg>
